<svg width="142" height="60" viewBox="0 0 142 60" fill="none" xmlns="http://www.w3.org/2000/svg">
<path d="M18.0289 57.8618C15.2136 57.8618 12.3408 57.4309 9.4105 56.5691C6.48024 55.7072 4.95766 55.2763 4.84274 55.2763C4.49801 55.2763 4.09582 55.4487 3.63617 55.7934C3.17652 56.1382 2.9467 56.5404 2.9467 57H0.964464V43.3829H2.86051C3.49253 46.7728 5.38858 49.5594 8.54866 51.7428C11.7087 53.8686 14.6964 54.9316 17.5118 54.9316C20.3846 54.9316 22.6828 54.1847 24.4065 52.6908C26.1876 51.1395 27.0782 49.1285 27.0782 46.6579C27.0782 45.7961 26.7909 44.963 26.2164 44.1586C25.6993 43.2967 24.8374 42.4349 23.6309 41.5731C22.4817 40.6538 21.4475 39.9068 20.5282 39.3323C19.6089 38.7003 18.2587 37.8672 16.4776 36.8329C14.7539 35.7987 13.5186 35.0518 12.7717 34.5922C4.95766 29.7659 1.05065 24.5948 1.05065 19.079C1.05065 15.6891 2.60196 12.6152 5.70458 9.85735C8.80721 7.09946 12.2833 5.72052 16.1328 5.72052C17.8565 5.72052 19.9537 6.15144 22.4243 7.01328C24.8949 7.87512 26.2738 8.30604 26.5611 8.30604C27.2506 8.30604 27.5953 7.73148 27.5953 6.58236H29.5776L30.4394 19.5961H28.5433C28.1986 17.2404 26.6473 14.8273 23.8894 12.3567C21.1315 9.88608 18.5747 8.65077 16.219 8.65077C13.6335 8.65077 11.68 9.48389 10.3585 11.1501C9.03703 12.7589 8.37629 14.4826 8.37629 16.3212C8.37629 17.0681 8.63484 17.815 9.15194 18.5619C9.66905 19.2514 10.5022 20.0271 11.6513 20.8889C12.8004 21.7507 13.8059 22.4689 14.6677 23.0435C15.5296 23.5606 16.851 24.3363 18.6322 25.3705C20.4133 26.4047 21.6486 27.1229 22.3381 27.5251C26.3026 29.9382 29.4052 32.4376 31.646 35.0231C33.8868 37.6086 35.0071 40.6825 35.0071 44.2448C35.0071 48.4965 33.2835 51.829 29.8361 54.2421C26.3887 56.6553 22.453 57.8618 18.0289 57.8618ZM63.6169 0.980398H68.0122V59.5855H63.6169V0.980398ZM97.228 57V55.1901C100.331 55.1901 102.14 54.6156 102.658 53.4665V10.1159C102.14 8.96678 100.331 8.39222 97.228 8.39222V6.58236H120.153C127.22 6.58236 132.592 7.93257 136.269 10.633C140.004 13.3334 141.871 16.3499 141.871 19.6823C141.871 23.9915 140.148 27.4676 136.7 30.1106C133.253 32.7536 128.082 34.0751 121.187 34.0751H113.603V53.4665C114.12 54.6156 115.93 55.1901 119.033 55.1901V57H97.228ZM113.603 9.51262V31.1448H118.171C122.595 31.1448 125.697 30.283 127.479 28.5593C129.317 26.7781 130.236 23.8479 130.236 19.7685C130.236 12.9312 125.87 9.51262 117.136 9.51262H113.603Z" fill="#FFFBFB"/>
</svg>
