<svg width="1014" height="290" viewBox="0 0 1014 290" fill="none" xmlns="http://www.w3.org/2000/svg">
<line x1="41" y1="118.5" x2="911" y2="118.5" stroke="white"/>
<line x1="946" y1="118.5" x2="966" y2="118.5" stroke="white"/>
<line x1="994" y1="118.5" x2="1014" y2="118.5" stroke="white"/>
<circle cx="41.5" cy="118.5" r="9.5" fill="white"/>
<circle cx="262.5" cy="118.5" r="9.5" fill="white"/>
<line x1="263.5" y1="10" x2="263.5" y2="239" stroke="#F2F2F2"/>
<line x1="42.5" y1="47" x2="42.5" y2="257" stroke="#F2F2F2"/>
<path d="M10.0085 9.14062C9.91904 8.82955 9.79333 8.55469 9.63139 8.31605C9.46946 8.07315 9.27131 7.86861 9.03693 7.70241C8.80682 7.53196 8.54261 7.40199 8.24432 7.3125C7.95029 7.22301 7.62429 7.17827 7.26634 7.17827C6.5973 7.17827 6.00923 7.34446 5.50213 7.67685C4.99929 8.00923 4.60725 8.4929 4.326 9.12784C4.04475 9.75852 3.90412 10.5298 3.90412 11.4418C3.90412 12.3537 4.04261 13.1293 4.3196 13.7685C4.59659 14.4077 4.98864 14.8956 5.49574 15.2322C6.00284 15.5646 6.60156 15.7308 7.2919 15.7308C7.91833 15.7308 8.45313 15.62 8.89631 15.3984C9.34375 15.1726 9.68466 14.8551 9.91904 14.446C10.1577 14.0369 10.277 13.5533 10.277 12.995L10.8395 13.0781H7.46449V10.9943H12.9425V12.6435C12.9425 13.794 12.6996 14.7827 12.2138 15.6094C11.728 16.4318 11.059 17.0668 10.2067 17.5142C9.3544 17.9574 8.37855 18.179 7.27912 18.179C6.05185 18.179 4.97372 17.9084 4.04475 17.3672C3.11577 16.8217 2.39134 16.0483 1.87145 15.0469C1.35582 14.0412 1.09801 12.848 1.09801 11.4673C1.09801 10.4062 1.25142 9.46023 1.55824 8.62926C1.86932 7.79403 2.30398 7.08665 2.86222 6.5071C3.42046 5.92756 4.07031 5.48651 4.81179 5.18395C5.55327 4.88139 6.35654 4.73011 7.22159 4.73011C7.96307 4.73011 8.65341 4.83878 9.29261 5.05611C9.93182 5.26918 10.4986 5.57173 10.9929 5.96378C11.4915 6.35582 11.8984 6.82244 12.2138 7.36364C12.5291 7.90057 12.7315 8.4929 12.821 9.14062H10.0085ZM17.7701 18.1854C17.1436 18.1854 16.5854 18.0767 16.0953 17.8594C15.6053 17.6378 15.2175 17.3118 14.932 16.8814C14.6507 16.4467 14.5101 15.9055 14.5101 15.2578C14.5101 14.7124 14.6103 14.2543 14.8105 13.8835C15.0108 13.5128 15.2836 13.2145 15.6287 12.9886C15.9739 12.7628 16.3659 12.5923 16.8049 12.4773C17.248 12.3622 17.7125 12.2812 18.1983 12.2344C18.7694 12.1747 19.2296 12.1193 19.579 12.0682C19.9284 12.0128 20.182 11.9318 20.3397 11.8253C20.4973 11.7187 20.5762 11.5611 20.5762 11.3523V11.3139C20.5762 10.9091 20.4483 10.5959 20.1927 10.3743C19.9412 10.1527 19.5833 10.0419 19.1188 10.0419C18.6287 10.0419 18.2388 10.1506 17.949 10.3679C17.6593 10.581 17.4675 10.8494 17.3738 11.1733L14.8553 10.9688C14.9831 10.3722 15.2346 9.85653 15.6096 9.42188C15.9846 8.98295 16.4682 8.64631 17.0605 8.41193C17.6571 8.1733 18.3475 8.05398 19.1316 8.05398C19.677 8.05398 20.199 8.1179 20.6976 8.24574C21.2005 8.37358 21.6458 8.57173 22.0336 8.8402C22.4256 9.10866 22.7346 9.45384 22.9604 9.87571C23.1863 10.2933 23.2992 10.794 23.2992 11.3778V18H20.7168V16.6385H20.6401C20.4824 16.9453 20.2715 17.2159 20.0073 17.4503C19.7431 17.6804 19.4256 17.8615 19.0549 17.9936C18.6841 18.1214 18.2559 18.1854 17.7701 18.1854ZM18.5499 16.3061C18.9505 16.3061 19.3042 16.2273 19.611 16.0696C19.9178 15.9077 20.1586 15.6903 20.3333 15.4176C20.508 15.1449 20.5953 14.8359 20.5953 14.4908V13.4489C20.5101 13.5043 20.3929 13.5554 20.2438 13.6023C20.0989 13.6449 19.9348 13.6854 19.7516 13.7237C19.5684 13.7578 19.3851 13.7898 19.2019 13.8196C19.0186 13.8452 18.8525 13.8686 18.7033 13.8899C18.3837 13.9368 18.1046 14.0114 17.8659 14.1136C17.6273 14.2159 17.4419 14.3544 17.3098 14.5291C17.1777 14.6996 17.1117 14.9126 17.1117 15.1683C17.1117 15.5391 17.2459 15.8224 17.5144 16.0185C17.7871 16.2102 18.1323 16.3061 18.5499 16.3061ZM28.1348 4.90909V18H25.4118V4.90909H28.1348ZM30.3161 18V8.18182H33.0391V18H30.3161ZM31.6839 6.91619C31.2791 6.91619 30.9318 6.78196 30.642 6.51349C30.3565 6.24077 30.2138 5.91477 30.2138 5.53551C30.2138 5.16051 30.3565 4.83878 30.642 4.57031C30.9318 4.29758 31.2791 4.16122 31.6839 4.16122C32.0888 4.16122 32.4339 4.29758 32.7195 4.57031C33.0092 4.83878 33.1541 5.16051 33.1541 5.53551C33.1541 5.91477 33.0092 6.24077 32.7195 6.51349C32.4339 6.78196 32.0888 6.91619 31.6839 6.91619ZM39.6564 18.1918C38.6507 18.1918 37.7857 17.9787 37.0613 17.5526C36.3411 17.1222 35.7871 16.5256 35.3993 15.7628C35.0158 15 34.824 14.1222 34.824 13.1293C34.824 12.1236 35.0179 11.2415 35.4057 10.483C35.7978 9.72017 36.3539 9.12571 37.074 8.69957C37.7942 8.26918 38.6507 8.05398 39.6436 8.05398C40.5002 8.05398 41.2502 8.20952 41.8936 8.5206C42.5371 8.83168 43.0463 9.26847 43.4213 9.83097C43.7963 10.3935 44.003 11.054 44.0414 11.8125H41.4718C41.3993 11.3224 41.2076 10.9283 40.8965 10.63C40.5897 10.3274 40.187 10.1761 39.6884 10.1761C39.2665 10.1761 38.8979 10.2912 38.5826 10.5213C38.2715 10.7472 38.0286 11.0774 37.8539 11.5121C37.6792 11.9467 37.5918 12.473 37.5918 13.0909C37.5918 13.7173 37.677 14.25 37.8475 14.6889C38.0222 15.1278 38.2672 15.4624 38.5826 15.6925C38.8979 15.9226 39.2665 16.0376 39.6884 16.0376C39.9995 16.0376 40.2786 15.9737 40.5257 15.8459C40.7772 15.718 40.9838 15.5327 41.1458 15.2898C41.312 15.0426 41.4206 14.7464 41.4718 14.4013H44.0414C43.9988 15.1513 43.7942 15.8118 43.4277 16.3828C43.0655 16.9496 42.5648 17.3928 41.9256 17.7124C41.2864 18.032 40.53 18.1918 39.6564 18.1918ZM45.7848 18V8.18182H48.5078V18H45.7848ZM47.1527 6.91619C46.7479 6.91619 46.4006 6.78196 46.1108 6.51349C45.8253 6.24077 45.6825 5.91477 45.6825 5.53551C45.6825 5.16051 45.8253 4.83878 46.1108 4.57031C46.4006 4.29758 46.7479 4.16122 47.1527 4.16122C47.5575 4.16122 47.9027 4.29758 48.1882 4.57031C48.478 4.83878 48.6229 5.16051 48.6229 5.53551C48.6229 5.91477 48.478 6.24077 48.1882 6.51349C47.9027 6.78196 47.5575 6.91619 47.1527 6.91619ZM53.4888 18.1854C52.8624 18.1854 52.3042 18.0767 51.8141 17.8594C51.324 17.6378 50.9363 17.3118 50.6507 16.8814C50.3695 16.4467 50.2289 15.9055 50.2289 15.2578C50.2289 14.7124 50.329 14.2543 50.5293 13.8835C50.7296 13.5128 51.0023 13.2145 51.3475 12.9886C51.6927 12.7628 52.0847 12.5923 52.5236 12.4773C52.9668 12.3622 53.4313 12.2812 53.9171 12.2344C54.4881 12.1747 54.9483 12.1193 55.2978 12.0682C55.6472 12.0128 55.9007 11.9318 56.0584 11.8253C56.2161 11.7187 56.2949 11.5611 56.2949 11.3523V11.3139C56.2949 10.9091 56.1671 10.5959 55.9114 10.3743C55.66 10.1527 55.302 10.0419 54.8375 10.0419C54.3475 10.0419 53.9576 10.1506 53.6678 10.3679C53.378 10.581 53.1863 10.8494 53.0925 11.1733L50.574 10.9688C50.7019 10.3722 50.9533 9.85653 51.3283 9.42188C51.7033 8.98295 52.187 8.64631 52.7793 8.41193C53.3759 8.1733 54.0662 8.05398 54.8503 8.05398C55.3958 8.05398 55.9178 8.1179 56.4164 8.24574C56.9192 8.37358 57.3645 8.57173 57.7523 8.8402C58.1444 9.10866 58.4533 9.45384 58.6792 9.87571C58.905 10.2933 59.0179 10.794 59.0179 11.3778V18H56.4355V16.6385H56.3588C56.2012 16.9453 55.9902 17.2159 55.726 17.4503C55.4618 17.6804 55.1444 17.8615 54.7736 17.9936C54.4029 18.1214 53.9746 18.1854 53.4888 18.1854ZM54.2686 16.3061C54.6692 16.3061 55.0229 16.2273 55.3297 16.0696C55.6365 15.9077 55.8773 15.6903 56.052 15.4176C56.2267 15.1449 56.3141 14.8359 56.3141 14.4908V13.4489C56.2289 13.5043 56.1117 13.5554 55.9625 13.6023C55.8177 13.6449 55.6536 13.6854 55.4703 13.7237C55.2871 13.7578 55.1039 13.7898 54.9206 13.8196C54.7374 13.8452 54.5712 13.8686 54.4221 13.8899C54.1025 13.9368 53.8233 14.0114 53.5847 14.1136C53.3461 14.2159 53.1607 14.3544 53.0286 14.5291C52.8965 14.6996 52.8304 14.9126 52.8304 15.1683C52.8304 15.5391 52.9647 15.8224 53.2331 16.0185C53.5059 16.2102 53.851 16.3061 54.2686 16.3061ZM64.5474 5.68722V4.14545H71.1861V5.68722H68.8045V12H66.9329V5.68722H64.5474ZM72.4373 4.14545H74.7883L76.7826 9.00852H76.8747L78.869 4.14545H81.22V12H79.3714V7.17528H79.3062L77.4193 11.9501H76.238L74.3511 7.14844H74.2859V12H72.4373V4.14545ZM27.5128 22.6903V44.2188H24.9304V22.6903H27.5128ZM30.7296 40V26.9091H39.5506V29.1911H33.4973V32.3104H39.0968V34.5923H33.4973V37.718H39.5762V40H30.7296ZM48.8526 30.674C48.8015 30.1584 48.582 29.7578 48.1942 29.4723C47.8065 29.1868 47.2802 29.044 46.6154 29.044C46.1637 29.044 45.7823 29.108 45.4712 29.2358C45.1602 29.3594 44.9215 29.532 44.7553 29.7536C44.5934 29.9751 44.5124 30.2266 44.5124 30.5078C44.5039 30.7422 44.5529 30.9467 44.6594 31.1214C44.7702 31.2962 44.9215 31.4474 45.1133 31.5753C45.305 31.6989 45.5266 31.8075 45.7781 31.9013C46.0295 31.9908 46.2979 32.0675 46.5835 32.1314L47.7596 32.4126C48.3306 32.5405 48.8548 32.7109 49.332 32.924C49.8093 33.1371 50.2227 33.3991 50.5721 33.7102C50.9215 34.0213 51.1921 34.3878 51.3839 34.8097C51.5799 35.2315 51.68 35.7152 51.6843 36.2607C51.68 37.0618 51.4755 37.7564 51.0707 38.3445C50.6701 38.9283 50.0906 39.3821 49.332 39.706C48.5778 40.0256 47.668 40.1854 46.6026 40.1854C45.5458 40.1854 44.6254 40.0234 43.8413 39.6996C43.0614 39.3757 42.4521 38.8963 42.0131 38.2614C41.5785 37.6222 41.3505 36.8317 41.3292 35.8899H44.0075C44.0373 36.3288 44.163 36.6953 44.3846 36.9893C44.6104 37.2791 44.9109 37.4986 45.2859 37.6477C45.6651 37.7926 46.0934 37.8651 46.5707 37.8651C47.0394 37.8651 47.4464 37.7969 47.7915 37.6605C48.141 37.5241 48.4116 37.3345 48.6033 37.0916C48.7951 36.8487 48.891 36.5696 48.891 36.2543C48.891 35.9602 48.8036 35.7131 48.6289 35.5128C48.4585 35.3125 48.207 35.142 47.8746 35.0014C47.5465 34.8608 47.1438 34.733 46.6665 34.6179L45.2411 34.2599C44.1374 33.9915 43.266 33.5717 42.6268 33.0007C41.9876 32.4297 41.6701 31.6605 41.6744 30.6932C41.6701 29.9006 41.881 29.2081 42.3072 28.6158C42.7376 28.0234 43.3278 27.5611 44.0778 27.2287C44.8278 26.8963 45.68 26.7301 46.6346 26.7301C47.6062 26.7301 48.4542 26.8963 49.1786 27.2287C49.9073 27.5611 50.4741 28.0234 50.8789 28.6158C51.2837 29.2081 51.4925 29.8942 51.5053 30.674H48.8526ZM57.0616 22.6903V44.2188H54.4792V22.6903H57.0616Z" fill="white"/>
<path d="M223.483 257H222.639L227.363 243.909H228.283L233.007 257H232.163L227.855 244.938H227.791L223.483 257ZM224.678 252.072H230.968V252.813H224.678V252.072ZM250.483 248H249.665C249.579 247.557 249.42 247.129 249.185 246.715C248.951 246.298 248.648 245.923 248.278 245.59C247.911 245.254 247.485 244.987 246.999 244.791C246.513 244.595 245.976 244.497 245.388 244.497C244.528 244.497 243.735 244.727 243.01 245.188C242.29 245.643 241.713 246.315 241.278 247.201C240.848 248.087 240.633 249.172 240.633 250.455C240.633 251.746 240.848 252.835 241.278 253.721C241.713 254.607 242.29 255.278 243.01 255.734C243.735 256.186 244.528 256.412 245.388 256.412C245.976 256.412 246.513 256.316 246.999 256.124C247.485 255.928 247.911 255.664 248.278 255.332C248.648 254.995 248.951 254.618 249.185 254.2C249.42 253.783 249.579 253.352 249.665 252.909H250.483C250.389 253.437 250.208 253.955 249.939 254.462C249.675 254.969 249.326 255.43 248.891 255.843C248.461 256.252 247.952 256.578 247.363 256.821C246.78 257.06 246.121 257.179 245.388 257.179C244.297 257.179 243.336 256.902 242.506 256.348C241.675 255.79 241.023 255.006 240.55 253.996C240.081 252.986 239.846 251.805 239.846 250.455C239.846 249.104 240.081 247.923 240.55 246.913C241.023 245.903 241.675 245.121 242.506 244.567C243.336 244.009 244.297 243.73 245.388 243.73C246.121 243.73 246.78 243.852 247.363 244.094C247.952 244.333 248.461 244.657 248.891 245.066C249.326 245.471 249.675 245.927 249.939 246.434C250.208 246.941 250.389 247.463 250.483 248ZM256.929 257.205C256.119 257.205 255.399 256.987 254.769 256.553C254.138 256.114 253.642 255.511 253.279 254.744C252.917 253.977 252.736 253.103 252.736 252.123C252.736 251.138 252.917 250.265 253.279 249.502C253.642 248.735 254.138 248.132 254.769 247.693C255.399 247.254 256.119 247.035 256.929 247.035C257.739 247.035 258.459 247.254 259.09 247.693C259.72 248.132 260.217 248.735 260.579 249.502C260.941 250.269 261.122 251.143 261.122 252.123C261.122 253.103 260.941 253.977 260.579 254.744C260.217 255.511 259.72 256.114 259.09 256.553C258.459 256.987 257.739 257.205 256.929 257.205ZM256.929 256.482C257.615 256.482 258.214 256.288 258.725 255.901C259.241 255.513 259.639 254.989 259.921 254.328C260.206 253.668 260.349 252.933 260.349 252.123C260.349 251.313 260.206 250.58 259.921 249.924C259.635 249.263 259.237 248.739 258.725 248.352C258.214 247.96 257.615 247.763 256.929 247.763C256.243 247.763 255.644 247.96 255.133 248.352C254.622 248.739 254.223 249.263 253.938 249.924C253.652 250.58 253.509 251.313 253.509 252.123C253.509 252.933 253.65 253.668 253.931 254.328C254.217 254.989 254.615 255.513 255.127 255.901C255.642 256.288 256.243 256.482 256.929 256.482ZM263.809 257V247.182H264.569V248.716H264.64C264.853 248.213 265.213 247.81 265.72 247.508C266.227 247.201 266.804 247.048 267.452 247.048C267.52 247.048 267.588 247.048 267.657 247.048C267.725 247.048 267.789 247.05 267.848 247.054V247.84C267.797 247.836 267.735 247.83 267.663 247.821C267.595 247.808 267.51 247.802 267.407 247.802C266.862 247.802 266.376 247.919 265.95 248.153C265.528 248.388 265.196 248.712 264.953 249.125C264.71 249.534 264.588 250.003 264.588 250.531V257H263.809ZM276.233 253.516V247.182H277.013V257H276.233V255.408H276.169C275.939 255.915 275.566 256.329 275.051 256.648C274.539 256.968 273.934 257.128 273.235 257.128C272.592 257.128 272.023 256.987 271.529 256.706C271.034 256.425 270.646 256.026 270.365 255.511C270.084 254.991 269.943 254.373 269.943 253.657V247.182H270.723V253.625C270.723 254.443 270.97 255.106 271.465 255.613C271.963 256.116 272.607 256.367 273.395 256.367C273.906 256.367 274.377 256.252 274.808 256.022C275.238 255.792 275.583 255.464 275.843 255.038C276.103 254.607 276.233 254.1 276.233 253.516ZM281.024 250.634V257H280.244V247.182H281.005V248.735H281.081C281.312 248.228 281.68 247.821 282.187 247.514C282.694 247.207 283.297 247.054 283.996 247.054C284.657 247.054 285.236 247.195 285.735 247.476C286.238 247.757 286.63 248.158 286.911 248.678C287.197 249.193 287.339 249.809 287.339 250.525V257H286.559V250.557C286.559 249.722 286.31 249.05 285.812 248.543C285.317 248.032 284.663 247.776 283.849 247.776C283.304 247.776 282.818 247.896 282.392 248.134C281.966 248.373 281.631 248.707 281.388 249.138C281.145 249.564 281.024 250.062 281.024 250.634ZM281.465 245.648L280.8 245.597C280.839 245.111 281.024 244.717 281.356 244.414C281.693 244.107 282.098 243.954 282.571 243.954C282.848 243.954 283.089 244.003 283.293 244.101C283.498 244.199 283.687 244.312 283.862 244.44C284.037 244.563 284.214 244.676 284.393 244.778C284.576 244.876 284.785 244.925 285.019 244.925C285.292 244.925 285.539 244.834 285.76 244.651C285.982 244.463 286.114 244.224 286.157 243.935L286.815 244.037C286.751 244.518 286.549 244.904 286.208 245.194C285.871 245.484 285.483 245.629 285.045 245.629C284.763 245.629 284.525 245.58 284.329 245.482C284.137 245.384 283.958 245.273 283.792 245.149C283.626 245.021 283.451 244.908 283.268 244.81C283.084 244.708 282.861 244.657 282.596 244.657C282.294 244.657 282.036 244.753 281.823 244.945C281.61 245.132 281.491 245.366 281.465 245.648ZM293.182 257.211C292.615 257.211 292.095 257.098 291.622 256.872C291.153 256.646 290.776 256.316 290.491 255.881C290.209 255.447 290.069 254.918 290.069 254.296C290.069 253.887 290.141 253.527 290.286 253.216C290.431 252.905 290.655 252.636 290.957 252.411C291.26 252.185 291.648 251.999 292.121 251.854C292.594 251.705 293.158 251.59 293.814 251.509C294.313 251.45 294.758 251.392 295.15 251.337C295.542 251.277 295.849 251.185 296.071 251.062C296.297 250.938 296.41 250.751 296.41 250.499V250.09C296.41 249.374 296.184 248.805 295.732 248.384C295.28 247.962 294.658 247.751 293.866 247.751C293.162 247.751 292.57 247.906 292.089 248.217C291.611 248.524 291.277 248.92 291.085 249.406L290.35 249.131C290.537 248.663 290.808 248.273 291.162 247.962C291.52 247.651 291.929 247.418 292.389 247.265C292.854 247.112 293.339 247.035 293.846 247.035C294.285 247.035 294.703 247.097 295.099 247.22C295.5 247.344 295.856 247.531 296.167 247.783C296.482 248.034 296.731 248.356 296.915 248.748C297.098 249.136 297.189 249.6 297.189 250.141V257H296.41V255.229H296.352C296.182 255.596 295.947 255.93 295.649 256.233C295.355 256.531 294.999 256.77 294.581 256.949C294.168 257.124 293.702 257.211 293.182 257.211ZM293.258 256.489C293.872 256.489 294.415 256.339 294.888 256.041C295.366 255.739 295.738 255.325 296.007 254.801C296.275 254.277 296.41 253.683 296.41 253.018V251.573C296.312 251.658 296.169 251.735 295.981 251.803C295.798 251.867 295.589 251.925 295.355 251.976C295.125 252.023 294.882 252.065 294.626 252.104C294.375 252.138 294.13 252.17 293.891 252.2C293.175 252.285 292.591 252.417 292.14 252.596C291.692 252.771 291.364 253.001 291.155 253.286C290.951 253.572 290.849 253.917 290.849 254.322C290.849 254.991 291.079 255.519 291.539 255.907C291.999 256.295 292.572 256.489 293.258 256.489ZM249.838 261.69V283.219H249.141V261.69H249.838ZM254.002 279V265.909H261.289V266.651H254.801V272.077H260.899V272.819H254.801V278.259H261.443V279H254.002ZM271.659 269.182C271.591 268.368 271.258 267.71 270.662 267.207C270.069 266.704 269.302 266.452 268.361 266.452C267.726 266.452 267.161 266.57 266.667 266.804C266.172 267.038 265.785 267.358 265.503 267.763C265.222 268.168 265.081 268.632 265.081 269.156C265.081 269.493 265.145 269.798 265.273 270.07C265.405 270.339 265.591 270.58 265.829 270.793C266.068 271.001 266.351 271.185 266.679 271.342C267.008 271.5 267.37 271.638 267.766 271.758L269.198 272.18C269.688 272.329 270.14 272.501 270.553 272.697C270.971 272.893 271.333 273.128 271.64 273.401C271.951 273.669 272.191 273.984 272.362 274.347C272.537 274.709 272.624 275.126 272.624 275.599C272.624 276.29 272.445 276.908 272.087 277.453C271.733 277.999 271.228 278.429 270.572 278.744C269.92 279.055 269.151 279.211 268.265 279.211C267.421 279.211 266.686 279.068 266.059 278.783C265.437 278.497 264.945 278.101 264.583 277.594C264.221 277.082 264.016 276.494 263.969 275.83H264.787C264.83 276.371 265.003 276.839 265.305 277.236C265.612 277.628 266.019 277.93 266.526 278.143C267.033 278.357 267.613 278.463 268.265 278.463C268.968 278.463 269.588 278.344 270.125 278.105C270.662 277.862 271.081 277.526 271.384 277.095C271.687 276.665 271.838 276.164 271.838 275.593C271.838 275.133 271.729 274.739 271.512 274.411C271.294 274.082 270.973 273.799 270.547 273.56C270.125 273.322 269.601 273.109 268.974 272.921L267.446 272.461C266.424 272.15 265.642 271.726 265.101 271.189C264.564 270.652 264.295 269.983 264.295 269.182C264.295 268.509 264.474 267.912 264.832 267.392C265.19 266.868 265.676 266.457 266.29 266.158C266.907 265.86 267.604 265.711 268.38 265.711C269.16 265.711 269.848 265.862 270.444 266.165C271.041 266.463 271.514 266.874 271.863 267.398C272.213 267.918 272.407 268.513 272.445 269.182H271.659ZM276.856 261.69V283.219H276.159V261.69H276.856Z" fill="white"/>
<circle cx="674.5" cy="120.5" r="9.5" fill="white"/>
<line x1="675.5" y1="-2.18557e-08" x2="675.5" y2="241" stroke="#F2F2F2"/>
<path d="M646.068 249.909H646.937L651.98 261.849H652.07L657.113 249.909H657.983V263H657.216V251.808H657.139L652.402 263H651.648L646.912 251.808H646.835V263H646.068V249.909ZM664.092 263.211C663.525 263.211 663.005 263.098 662.532 262.872C662.063 262.646 661.686 262.316 661.401 261.881C661.119 261.447 660.979 260.918 660.979 260.296C660.979 259.887 661.051 259.527 661.196 259.216C661.341 258.905 661.565 258.636 661.867 258.411C662.17 258.185 662.558 257.999 663.031 257.854C663.504 257.705 664.068 257.59 664.725 257.509C665.223 257.45 665.669 257.392 666.061 257.337C666.453 257.277 666.759 257.185 666.981 257.062C667.207 256.938 667.32 256.751 667.32 256.499V256.09C667.32 255.374 667.094 254.805 666.642 254.384C666.191 253.962 665.568 253.751 664.776 253.751C664.073 253.751 663.48 253.906 662.999 254.217C662.521 254.524 662.187 254.92 661.995 255.406L661.26 255.131C661.448 254.663 661.718 254.273 662.072 253.962C662.43 253.651 662.839 253.418 663.299 253.265C663.764 253.112 664.249 253.035 664.757 253.035C665.195 253.035 665.613 253.097 666.009 253.22C666.41 253.344 666.766 253.531 667.077 253.783C667.392 254.034 667.642 254.356 667.825 254.748C668.008 255.136 668.1 255.6 668.1 256.141V263H667.32V261.229H667.262C667.092 261.596 666.857 261.93 666.559 262.233C666.265 262.531 665.909 262.77 665.492 262.949C665.078 263.124 664.612 263.211 664.092 263.211ZM664.169 262.489C664.782 262.489 665.325 262.339 665.798 262.041C666.276 261.739 666.649 261.325 666.917 260.801C667.186 260.277 667.32 259.683 667.32 259.018V257.573C667.222 257.658 667.079 257.735 666.892 257.803C666.708 257.867 666.499 257.925 666.265 257.976C666.035 258.023 665.792 258.065 665.536 258.104C665.285 258.138 665.04 258.17 664.801 258.2C664.085 258.285 663.502 258.417 663.05 258.596C662.602 258.771 662.274 259.001 662.066 259.286C661.861 259.572 661.759 259.917 661.759 260.322C661.759 260.991 661.989 261.519 662.449 261.907C662.909 262.295 663.482 262.489 664.169 262.489ZM674.738 263.205C673.949 263.205 673.261 262.987 672.673 262.553C672.085 262.118 671.629 261.519 671.305 260.756C670.986 259.989 670.826 259.109 670.826 258.116C670.826 257.132 670.988 256.259 671.312 255.496C671.64 254.729 672.098 254.128 672.686 253.693C673.274 253.254 673.96 253.035 674.744 253.035C675.307 253.035 675.795 253.143 676.208 253.361C676.626 253.574 676.975 253.857 677.256 254.211C677.542 254.565 677.759 254.952 677.908 255.374H677.985V249.909H678.758V263H678.004V260.859H677.908C677.751 261.281 677.531 261.67 677.25 262.028C676.969 262.382 676.619 262.668 676.202 262.885C675.784 263.098 675.296 263.205 674.738 263.205ZM674.808 262.482C675.473 262.482 676.042 262.293 676.515 261.913C676.992 261.53 677.356 261.01 677.608 260.354C677.863 259.693 677.991 258.945 677.991 258.11C677.991 257.275 677.863 256.531 677.608 255.879C677.356 255.223 676.992 254.707 676.515 254.332C676.042 253.953 675.473 253.763 674.808 253.763C674.135 253.763 673.557 253.955 673.076 254.339C672.599 254.718 672.232 255.236 671.976 255.892C671.725 256.548 671.599 257.288 671.599 258.11C671.599 258.933 671.725 259.674 671.976 260.335C672.232 260.995 672.599 261.519 673.076 261.907C673.557 262.29 674.135 262.482 674.808 262.482ZM682.268 263V253.182H683.028V254.716H683.099C683.312 254.213 683.672 253.81 684.179 253.508C684.686 253.201 685.263 253.048 685.911 253.048C685.979 253.048 686.047 253.048 686.116 253.048C686.184 253.048 686.248 253.05 686.307 253.054V253.84C686.256 253.836 686.194 253.83 686.122 253.821C686.054 253.808 685.969 253.802 685.866 253.802C685.321 253.802 684.835 253.919 684.409 254.153C683.987 254.388 683.655 254.712 683.412 255.125C683.169 255.534 683.047 256.003 683.047 256.531V263H682.268ZM688.441 263V253.182H689.214V263H688.441ZM688.831 251.443C688.66 251.443 688.511 251.384 688.383 251.264C688.26 251.145 688.198 251 688.198 250.83C688.198 250.659 688.26 250.514 688.383 250.395C688.507 250.276 688.656 250.216 688.831 250.216C689.001 250.216 689.148 250.276 689.272 250.395C689.4 250.514 689.463 250.659 689.463 250.83C689.463 251 689.402 251.145 689.278 251.264C689.154 251.384 689.005 251.443 688.831 251.443ZM695.849 263.205C695.061 263.205 694.373 262.987 693.784 262.553C693.196 262.118 692.74 261.519 692.417 260.756C692.097 259.989 691.937 259.109 691.937 258.116C691.937 257.132 692.099 256.259 692.423 255.496C692.751 254.729 693.209 254.128 693.797 253.693C694.385 253.254 695.071 253.035 695.855 253.035C696.418 253.035 696.906 253.143 697.319 253.361C697.737 253.574 698.086 253.857 698.368 254.211C698.653 254.565 698.87 254.952 699.02 255.374H699.096V249.909H699.87V263H699.115V260.859H699.02C698.862 261.281 698.642 261.67 698.361 262.028C698.08 262.382 697.73 262.668 697.313 262.885C696.895 263.098 696.407 263.205 695.849 263.205ZM695.919 262.482C696.584 262.482 697.153 262.293 697.626 261.913C698.103 261.53 698.468 261.01 698.719 260.354C698.975 259.693 699.103 258.945 699.103 258.11C699.103 257.275 698.975 256.531 698.719 255.879C698.468 255.223 698.103 254.707 697.626 254.332C697.153 253.953 696.584 253.763 695.919 253.763C695.246 253.763 694.669 253.955 694.187 254.339C693.71 254.718 693.343 255.236 693.088 255.892C692.836 256.548 692.711 257.288 692.711 258.11C692.711 258.933 692.836 259.674 693.088 260.335C693.343 260.995 693.71 261.519 694.187 261.907C694.669 262.29 695.246 262.482 695.919 262.482ZM662.338 267.69V289.219H661.641V267.69H662.338ZM666.502 285V271.909H673.789V272.651H667.301V278.077H673.399V278.819H667.301V284.259H673.943V285H666.502ZM684.159 275.182C684.091 274.368 683.758 273.71 683.162 273.207C682.569 272.704 681.802 272.452 680.861 272.452C680.226 272.452 679.661 272.57 679.167 272.804C678.672 273.038 678.285 273.358 678.003 273.763C677.722 274.168 677.581 274.632 677.581 275.156C677.581 275.493 677.645 275.798 677.773 276.07C677.905 276.339 678.091 276.58 678.329 276.793C678.568 277.001 678.851 277.185 679.179 277.342C679.508 277.5 679.87 277.638 680.266 277.758L681.698 278.18C682.188 278.329 682.64 278.501 683.053 278.697C683.471 278.893 683.833 279.128 684.14 279.401C684.451 279.669 684.691 279.984 684.862 280.347C685.037 280.709 685.124 281.126 685.124 281.599C685.124 282.29 684.945 282.908 684.587 283.453C684.233 283.999 683.728 284.429 683.072 284.744C682.42 285.055 681.651 285.211 680.765 285.211C679.921 285.211 679.186 285.068 678.559 284.783C677.937 284.497 677.445 284.101 677.083 283.594C676.721 283.082 676.516 282.494 676.469 281.83H677.287C677.33 282.371 677.503 282.839 677.805 283.236C678.112 283.628 678.519 283.93 679.026 284.143C679.533 284.357 680.113 284.463 680.765 284.463C681.468 284.463 682.088 284.344 682.625 284.105C683.162 283.862 683.581 283.526 683.884 283.095C684.187 282.665 684.338 282.164 684.338 281.593C684.338 281.133 684.229 280.739 684.012 280.411C683.794 280.082 683.473 279.799 683.047 279.56C682.625 279.322 682.101 279.109 681.474 278.921L679.946 278.461C678.924 278.15 678.142 277.726 677.601 277.189C677.064 276.652 676.795 275.983 676.795 275.182C676.795 274.509 676.974 273.912 677.332 273.392C677.69 272.868 678.176 272.457 678.79 272.158C679.407 271.86 680.104 271.711 680.88 271.711C681.66 271.711 682.348 271.862 682.944 272.165C683.541 272.463 684.014 272.874 684.363 273.398C684.713 273.918 684.907 274.513 684.945 275.182H684.159ZM689.356 267.69V289.219H688.659V267.69H689.356Z" fill="white"/>
<path d="M544 44L543 178" stroke="#F2F2F2"/>
<path d="M503.483 196H502.639L507.363 182.909H508.283L513.007 196H512.163L507.855 183.938H507.791L503.483 196ZM504.678 191.072H510.968V191.813H504.678V191.072ZM530.483 187H529.665C529.579 186.557 529.42 186.129 529.185 185.715C528.951 185.298 528.648 184.923 528.278 184.59C527.911 184.254 527.485 183.987 526.999 183.791C526.513 183.595 525.976 183.497 525.388 183.497C524.528 183.497 523.735 183.727 523.01 184.188C522.29 184.643 521.713 185.315 521.278 186.201C520.848 187.087 520.633 188.172 520.633 189.455C520.633 190.746 520.848 191.835 521.278 192.721C521.713 193.607 522.29 194.278 523.01 194.734C523.735 195.186 524.528 195.412 525.388 195.412C525.976 195.412 526.513 195.316 526.999 195.124C527.485 194.928 527.911 194.664 528.278 194.332C528.648 193.995 528.951 193.618 529.185 193.2C529.42 192.783 529.579 192.352 529.665 191.909H530.483C530.389 192.437 530.208 192.955 529.939 193.462C529.675 193.969 529.326 194.43 528.891 194.843C528.461 195.252 527.952 195.578 527.363 195.821C526.78 196.06 526.121 196.179 525.388 196.179C524.297 196.179 523.336 195.902 522.506 195.348C521.675 194.79 521.023 194.006 520.55 192.996C520.081 191.986 519.846 190.805 519.846 189.455C519.846 188.104 520.081 186.923 520.55 185.913C521.023 184.903 521.675 184.121 522.506 183.567C523.336 183.009 524.297 182.73 525.388 182.73C526.121 182.73 526.78 182.852 527.363 183.094C527.952 183.333 528.461 183.657 528.891 184.066C529.326 184.471 529.675 184.927 529.939 185.434C530.208 185.941 530.389 186.463 530.483 187ZM536.929 196.205C536.119 196.205 535.399 195.987 534.769 195.553C534.138 195.114 533.642 194.511 533.279 193.744C532.917 192.977 532.736 192.103 532.736 191.123C532.736 190.138 532.917 189.265 533.279 188.502C533.642 187.735 534.138 187.132 534.769 186.693C535.399 186.254 536.119 186.035 536.929 186.035C537.739 186.035 538.459 186.254 539.09 186.693C539.72 187.132 540.217 187.735 540.579 188.502C540.941 189.269 541.122 190.143 541.122 191.123C541.122 192.103 540.941 192.977 540.579 193.744C540.217 194.511 539.72 195.114 539.09 195.553C538.459 195.987 537.739 196.205 536.929 196.205ZM536.929 195.482C537.615 195.482 538.214 195.288 538.725 194.901C539.241 194.513 539.639 193.989 539.921 193.328C540.206 192.668 540.349 191.933 540.349 191.123C540.349 190.313 540.206 189.58 539.921 188.924C539.635 188.263 539.237 187.739 538.725 187.352C538.214 186.96 537.615 186.763 536.929 186.763C536.243 186.763 535.644 186.96 535.133 187.352C534.622 187.739 534.223 188.263 533.938 188.924C533.652 189.58 533.509 190.313 533.509 191.123C533.509 191.933 533.65 192.668 533.931 193.328C534.217 193.989 534.615 194.513 535.127 194.901C535.642 195.288 536.243 195.482 536.929 195.482ZM543.809 196V186.182H544.569V187.716H544.64C544.853 187.213 545.213 186.81 545.72 186.508C546.227 186.201 546.804 186.048 547.452 186.048C547.52 186.048 547.588 186.048 547.657 186.048C547.725 186.048 547.789 186.05 547.848 186.054V186.84C547.797 186.836 547.735 186.83 547.663 186.821C547.595 186.808 547.51 186.802 547.407 186.802C546.862 186.802 546.376 186.919 545.95 187.153C545.528 187.388 545.196 187.712 544.953 188.125C544.71 188.534 544.588 189.003 544.588 189.531V196H543.809ZM556.233 192.516V186.182H557.013V196H556.233V194.408H556.169C555.939 194.915 555.566 195.329 555.051 195.648C554.539 195.968 553.934 196.128 553.235 196.128C552.592 196.128 552.023 195.987 551.529 195.706C551.034 195.425 550.646 195.026 550.365 194.511C550.084 193.991 549.943 193.373 549.943 192.657V186.182H550.723V192.625C550.723 193.443 550.97 194.106 551.465 194.613C551.963 195.116 552.607 195.367 553.395 195.367C553.906 195.367 554.377 195.252 554.808 195.022C555.238 194.792 555.583 194.464 555.843 194.038C556.103 193.607 556.233 193.1 556.233 192.516ZM561.024 189.634V196H560.244V186.182H561.005V187.735H561.081C561.312 187.228 561.68 186.821 562.187 186.514C562.694 186.207 563.297 186.054 563.996 186.054C564.657 186.054 565.236 186.195 565.735 186.476C566.238 186.757 566.63 187.158 566.911 187.678C567.197 188.193 567.339 188.809 567.339 189.525V196H566.559V189.557C566.559 188.722 566.31 188.05 565.812 187.543C565.317 187.032 564.663 186.776 563.849 186.776C563.304 186.776 562.818 186.896 562.392 187.134C561.966 187.373 561.631 187.707 561.388 188.138C561.145 188.564 561.024 189.062 561.024 189.634ZM561.465 184.648L560.8 184.597C560.839 184.111 561.024 183.717 561.356 183.414C561.693 183.107 562.098 182.954 562.571 182.954C562.848 182.954 563.089 183.003 563.293 183.101C563.498 183.199 563.687 183.312 563.862 183.44C564.037 183.563 564.214 183.676 564.393 183.778C564.576 183.876 564.785 183.925 565.019 183.925C565.292 183.925 565.539 183.834 565.76 183.651C565.982 183.463 566.114 183.224 566.157 182.935L566.815 183.037C566.751 183.518 566.549 183.904 566.208 184.194C565.871 184.484 565.483 184.629 565.045 184.629C564.763 184.629 564.525 184.58 564.329 184.482C564.137 184.384 563.958 184.273 563.792 184.149C563.626 184.021 563.451 183.908 563.268 183.81C563.084 183.708 562.861 183.657 562.596 183.657C562.294 183.657 562.036 183.753 561.823 183.945C561.61 184.132 561.491 184.366 561.465 184.648ZM573.182 196.211C572.615 196.211 572.095 196.098 571.622 195.872C571.153 195.646 570.776 195.316 570.491 194.881C570.209 194.447 570.069 193.918 570.069 193.296C570.069 192.887 570.141 192.527 570.286 192.216C570.431 191.905 570.655 191.636 570.957 191.411C571.26 191.185 571.648 190.999 572.121 190.854C572.594 190.705 573.158 190.59 573.814 190.509C574.313 190.45 574.758 190.392 575.15 190.337C575.542 190.277 575.849 190.185 576.071 190.062C576.297 189.938 576.41 189.751 576.41 189.499V189.09C576.41 188.374 576.184 187.805 575.732 187.384C575.28 186.962 574.658 186.751 573.866 186.751C573.162 186.751 572.57 186.906 572.089 187.217C571.611 187.524 571.277 187.92 571.085 188.406L570.35 188.131C570.537 187.663 570.808 187.273 571.162 186.962C571.52 186.651 571.929 186.418 572.389 186.265C572.854 186.112 573.339 186.035 573.846 186.035C574.285 186.035 574.703 186.097 575.099 186.22C575.5 186.344 575.856 186.531 576.167 186.783C576.482 187.034 576.731 187.356 576.915 187.748C577.098 188.136 577.189 188.6 577.189 189.141V196H576.41V194.229H576.352C576.182 194.596 575.947 194.93 575.649 195.233C575.355 195.531 574.999 195.77 574.581 195.949C574.168 196.124 573.702 196.211 573.182 196.211ZM573.258 195.489C573.872 195.489 574.415 195.339 574.888 195.041C575.366 194.739 575.738 194.325 576.007 193.801C576.275 193.277 576.41 192.683 576.41 192.018V190.573C576.312 190.658 576.169 190.735 575.981 190.803C575.798 190.867 575.589 190.925 575.355 190.976C575.125 191.023 574.882 191.065 574.626 191.104C574.375 191.138 574.13 191.17 573.891 191.2C573.175 191.285 572.591 191.417 572.14 191.596C571.692 191.771 571.364 192.001 571.155 192.286C570.951 192.572 570.849 192.917 570.849 193.322C570.849 193.991 571.079 194.519 571.539 194.907C571.999 195.295 572.572 195.489 573.258 195.489ZM529.838 200.69V222.219H529.141V200.69H529.838ZM534.002 218V204.909H541.289V205.651H534.801V211.077H540.899V211.819H534.801V217.259H541.443V218H534.002ZM551.659 208.182C551.591 207.368 551.258 206.71 550.662 206.207C550.069 205.704 549.302 205.452 548.361 205.452C547.726 205.452 547.161 205.57 546.667 205.804C546.172 206.038 545.785 206.358 545.503 206.763C545.222 207.168 545.081 207.632 545.081 208.156C545.081 208.493 545.145 208.798 545.273 209.07C545.405 209.339 545.591 209.58 545.829 209.793C546.068 210.001 546.351 210.185 546.679 210.342C547.008 210.5 547.37 210.638 547.766 210.758L549.198 211.18C549.688 211.329 550.14 211.501 550.553 211.697C550.971 211.893 551.333 212.128 551.64 212.401C551.951 212.669 552.191 212.984 552.362 213.347C552.537 213.709 552.624 214.126 552.624 214.599C552.624 215.29 552.445 215.908 552.087 216.453C551.733 216.999 551.228 217.429 550.572 217.744C549.92 218.055 549.151 218.211 548.265 218.211C547.421 218.211 546.686 218.068 546.059 217.783C545.437 217.497 544.945 217.101 544.583 216.594C544.221 216.082 544.016 215.494 543.969 214.83H544.787C544.83 215.371 545.003 215.839 545.305 216.236C545.612 216.628 546.019 216.93 546.526 217.143C547.033 217.357 547.613 217.463 548.265 217.463C548.968 217.463 549.588 217.344 550.125 217.105C550.662 216.862 551.081 216.526 551.384 216.095C551.687 215.665 551.838 215.164 551.838 214.593C551.838 214.133 551.729 213.739 551.512 213.411C551.294 213.082 550.973 212.799 550.547 212.56C550.125 212.322 549.601 212.109 548.974 211.921L547.446 211.461C546.424 211.15 545.642 210.726 545.101 210.189C544.564 209.652 544.295 208.983 544.295 208.182C544.295 207.509 544.474 206.912 544.832 206.392C545.19 205.868 545.676 205.457 546.29 205.158C546.907 204.86 547.604 204.711 548.38 204.711C549.16 204.711 549.848 204.862 550.444 205.165C551.041 205.463 551.514 205.874 551.863 206.398C552.213 206.918 552.407 207.513 552.445 208.182H551.659ZM556.856 200.69V222.219H556.159V200.69H556.856Z" fill="white"/>
<path d="M417 44L416 178" stroke="#F2F2F2"/>
<circle cx="415.5" cy="118.5" r="9.5" fill="white"/>
<path d="M376.483 196H375.639L380.363 182.909H381.283L386.007 196H385.163L380.855 183.938H380.791L376.483 196ZM377.678 191.072H383.968V191.813H377.678V191.072ZM403.483 187H402.665C402.579 186.557 402.42 186.129 402.185 185.715C401.951 185.298 401.648 184.923 401.278 184.59C400.911 184.254 400.485 183.987 399.999 183.791C399.513 183.595 398.976 183.497 398.388 183.497C397.528 183.497 396.735 183.727 396.01 184.188C395.29 184.643 394.713 185.315 394.278 186.201C393.848 187.087 393.633 188.172 393.633 189.455C393.633 190.746 393.848 191.835 394.278 192.721C394.713 193.607 395.29 194.278 396.01 194.734C396.735 195.186 397.528 195.412 398.388 195.412C398.976 195.412 399.513 195.316 399.999 195.124C400.485 194.928 400.911 194.664 401.278 194.332C401.648 193.995 401.951 193.618 402.185 193.2C402.42 192.783 402.579 192.352 402.665 191.909H403.483C403.389 192.437 403.208 192.955 402.939 193.462C402.675 193.969 402.326 194.43 401.891 194.843C401.461 195.252 400.952 195.578 400.363 195.821C399.78 196.06 399.121 196.179 398.388 196.179C397.297 196.179 396.336 195.902 395.506 195.348C394.675 194.79 394.023 194.006 393.55 192.996C393.081 191.986 392.846 190.805 392.846 189.455C392.846 188.104 393.081 186.923 393.55 185.913C394.023 184.903 394.675 184.121 395.506 183.567C396.336 183.009 397.297 182.73 398.388 182.73C399.121 182.73 399.78 182.852 400.363 183.094C400.952 183.333 401.461 183.657 401.891 184.066C402.326 184.471 402.675 184.927 402.939 185.434C403.208 185.941 403.389 186.463 403.483 187ZM409.929 196.205C409.119 196.205 408.399 195.987 407.769 195.553C407.138 195.114 406.642 194.511 406.279 193.744C405.917 192.977 405.736 192.103 405.736 191.123C405.736 190.138 405.917 189.265 406.279 188.502C406.642 187.735 407.138 187.132 407.769 186.693C408.399 186.254 409.119 186.035 409.929 186.035C410.739 186.035 411.459 186.254 412.09 186.693C412.72 187.132 413.217 187.735 413.579 188.502C413.941 189.269 414.122 190.143 414.122 191.123C414.122 192.103 413.941 192.977 413.579 193.744C413.217 194.511 412.72 195.114 412.09 195.553C411.459 195.987 410.739 196.205 409.929 196.205ZM409.929 195.482C410.615 195.482 411.214 195.288 411.725 194.901C412.241 194.513 412.639 193.989 412.921 193.328C413.206 192.668 413.349 191.933 413.349 191.123C413.349 190.313 413.206 189.58 412.921 188.924C412.635 188.263 412.237 187.739 411.725 187.352C411.214 186.96 410.615 186.763 409.929 186.763C409.243 186.763 408.644 186.96 408.133 187.352C407.622 187.739 407.223 188.263 406.938 188.924C406.652 189.58 406.509 190.313 406.509 191.123C406.509 191.933 406.65 192.668 406.931 193.328C407.217 193.989 407.615 194.513 408.127 194.901C408.642 195.288 409.243 195.482 409.929 195.482ZM416.809 196V186.182H417.569V187.716H417.64C417.853 187.213 418.213 186.81 418.72 186.508C419.227 186.201 419.804 186.048 420.452 186.048C420.52 186.048 420.588 186.048 420.657 186.048C420.725 186.048 420.789 186.05 420.848 186.054V186.84C420.797 186.836 420.735 186.83 420.663 186.821C420.595 186.808 420.51 186.802 420.407 186.802C419.862 186.802 419.376 186.919 418.95 187.153C418.528 187.388 418.196 187.712 417.953 188.125C417.71 188.534 417.588 189.003 417.588 189.531V196H416.809ZM429.233 192.516V186.182H430.013V196H429.233V194.408H429.169C428.939 194.915 428.566 195.329 428.051 195.648C427.539 195.968 426.934 196.128 426.235 196.128C425.592 196.128 425.023 195.987 424.529 195.706C424.034 195.425 423.646 195.026 423.365 194.511C423.084 193.991 422.943 193.373 422.943 192.657V186.182H423.723V192.625C423.723 193.443 423.97 194.106 424.465 194.613C424.963 195.116 425.607 195.367 426.395 195.367C426.906 195.367 427.377 195.252 427.808 195.022C428.238 194.792 428.583 194.464 428.843 194.038C429.103 193.607 429.233 193.1 429.233 192.516ZM434.024 189.634V196H433.244V186.182H434.005V187.735H434.081C434.312 187.228 434.68 186.821 435.187 186.514C435.694 186.207 436.297 186.054 436.996 186.054C437.657 186.054 438.236 186.195 438.735 186.476C439.238 186.757 439.63 187.158 439.911 187.678C440.197 188.193 440.339 188.809 440.339 189.525V196H439.559V189.557C439.559 188.722 439.31 188.05 438.812 187.543C438.317 187.032 437.663 186.776 436.849 186.776C436.304 186.776 435.818 186.896 435.392 187.134C434.966 187.373 434.631 187.707 434.388 188.138C434.145 188.564 434.024 189.062 434.024 189.634ZM434.465 184.648L433.8 184.597C433.839 184.111 434.024 183.717 434.356 183.414C434.693 183.107 435.098 182.954 435.571 182.954C435.848 182.954 436.089 183.003 436.293 183.101C436.498 183.199 436.687 183.312 436.862 183.44C437.037 183.563 437.214 183.676 437.393 183.778C437.576 183.876 437.785 183.925 438.019 183.925C438.292 183.925 438.539 183.834 438.76 183.651C438.982 183.463 439.114 183.224 439.157 182.935L439.815 183.037C439.751 183.518 439.549 183.904 439.208 184.194C438.871 184.484 438.483 184.629 438.045 184.629C437.763 184.629 437.525 184.58 437.329 184.482C437.137 184.384 436.958 184.273 436.792 184.149C436.626 184.021 436.451 183.908 436.268 183.81C436.084 183.708 435.861 183.657 435.596 183.657C435.294 183.657 435.036 183.753 434.823 183.945C434.61 184.132 434.491 184.366 434.465 184.648ZM446.182 196.211C445.615 196.211 445.095 196.098 444.622 195.872C444.153 195.646 443.776 195.316 443.491 194.881C443.209 194.447 443.069 193.918 443.069 193.296C443.069 192.887 443.141 192.527 443.286 192.216C443.431 191.905 443.655 191.636 443.957 191.411C444.26 191.185 444.648 190.999 445.121 190.854C445.594 190.705 446.158 190.59 446.814 190.509C447.313 190.45 447.758 190.392 448.15 190.337C448.542 190.277 448.849 190.185 449.071 190.062C449.297 189.938 449.41 189.751 449.41 189.499V189.09C449.41 188.374 449.184 187.805 448.732 187.384C448.28 186.962 447.658 186.751 446.866 186.751C446.162 186.751 445.57 186.906 445.089 187.217C444.611 187.524 444.277 187.92 444.085 188.406L443.35 188.131C443.537 187.663 443.808 187.273 444.162 186.962C444.52 186.651 444.929 186.418 445.389 186.265C445.854 186.112 446.339 186.035 446.846 186.035C447.285 186.035 447.703 186.097 448.099 186.22C448.5 186.344 448.856 186.531 449.167 186.783C449.482 187.034 449.731 187.356 449.915 187.748C450.098 188.136 450.189 188.6 450.189 189.141V196H449.41V194.229H449.352C449.182 194.596 448.947 194.93 448.649 195.233C448.355 195.531 447.999 195.77 447.581 195.949C447.168 196.124 446.702 196.211 446.182 196.211ZM446.258 195.489C446.872 195.489 447.415 195.339 447.888 195.041C448.366 194.739 448.738 194.325 449.007 193.801C449.275 193.277 449.41 192.683 449.41 192.018V190.573C449.312 190.658 449.169 190.735 448.981 190.803C448.798 190.867 448.589 190.925 448.355 190.976C448.125 191.023 447.882 191.065 447.626 191.104C447.375 191.138 447.13 191.17 446.891 191.2C446.175 191.285 445.591 191.417 445.14 191.596C444.692 191.771 444.364 192.001 444.155 192.286C443.951 192.572 443.849 192.917 443.849 193.322C443.849 193.991 444.079 194.519 444.539 194.907C444.999 195.295 445.572 195.489 446.258 195.489ZM402.838 200.69V222.219H402.141V200.69H402.838ZM407.002 218V204.909H414.289V205.651H407.801V211.077H413.899V211.819H407.801V217.259H414.443V218H407.002ZM424.659 208.182C424.591 207.368 424.258 206.71 423.662 206.207C423.069 205.704 422.302 205.452 421.361 205.452C420.726 205.452 420.161 205.57 419.667 205.804C419.172 206.038 418.785 206.358 418.503 206.763C418.222 207.168 418.081 207.632 418.081 208.156C418.081 208.493 418.145 208.798 418.273 209.07C418.405 209.339 418.591 209.58 418.829 209.793C419.068 210.001 419.351 210.185 419.679 210.342C420.008 210.5 420.37 210.638 420.766 210.758L422.198 211.18C422.688 211.329 423.14 211.501 423.553 211.697C423.971 211.893 424.333 212.128 424.64 212.401C424.951 212.669 425.191 212.984 425.362 213.347C425.537 213.709 425.624 214.126 425.624 214.599C425.624 215.29 425.445 215.908 425.087 216.453C424.733 216.999 424.228 217.429 423.572 217.744C422.92 218.055 422.151 218.211 421.265 218.211C420.421 218.211 419.686 218.068 419.059 217.783C418.437 217.497 417.945 217.101 417.583 216.594C417.221 216.082 417.016 215.494 416.969 214.83H417.787C417.83 215.371 418.003 215.839 418.305 216.236C418.612 216.628 419.019 216.93 419.526 217.143C420.033 217.357 420.613 217.463 421.265 217.463C421.968 217.463 422.588 217.344 423.125 217.105C423.662 216.862 424.081 216.526 424.384 216.095C424.687 215.665 424.838 215.164 424.838 214.593C424.838 214.133 424.729 213.739 424.512 213.411C424.294 213.082 423.973 212.799 423.547 212.56C423.125 212.322 422.601 212.109 421.974 211.921L420.446 211.461C419.424 211.15 418.642 210.726 418.101 210.189C417.564 209.652 417.295 208.983 417.295 208.182C417.295 207.509 417.474 206.912 417.832 206.392C418.19 205.868 418.676 205.457 419.29 205.158C419.907 204.86 420.604 204.711 421.38 204.711C422.16 204.711 422.848 204.862 423.444 205.165C424.041 205.463 424.514 205.874 424.863 206.398C425.213 206.918 425.407 207.513 425.445 208.182H424.659ZM429.856 200.69V222.219H429.159V200.69H429.856Z" fill="white"/>
<circle cx="838.5" cy="118.5" r="9.5" fill="white"/>
<path d="M840 30L839 164" stroke="#F2F2F2"/>
<path d="M799.483 182H798.639L803.363 168.909H804.283L809.007 182H808.163L803.855 169.938H803.791L799.483 182ZM800.678 177.072H806.968V177.813H800.678V177.072ZM826.483 173H825.665C825.579 172.557 825.42 172.129 825.185 171.715C824.951 171.298 824.648 170.923 824.278 170.59C823.911 170.254 823.485 169.987 822.999 169.791C822.513 169.595 821.976 169.497 821.388 169.497C820.528 169.497 819.735 169.727 819.01 170.188C818.29 170.643 817.713 171.315 817.278 172.201C816.848 173.087 816.633 174.172 816.633 175.455C816.633 176.746 816.848 177.835 817.278 178.721C817.713 179.607 818.29 180.278 819.01 180.734C819.735 181.186 820.528 181.412 821.388 181.412C821.976 181.412 822.513 181.316 822.999 181.124C823.485 180.928 823.911 180.664 824.278 180.332C824.648 179.995 824.951 179.618 825.185 179.2C825.42 178.783 825.579 178.352 825.665 177.909H826.483C826.389 178.437 826.208 178.955 825.939 179.462C825.675 179.969 825.326 180.43 824.891 180.843C824.461 181.252 823.952 181.578 823.363 181.821C822.78 182.06 822.121 182.179 821.388 182.179C820.297 182.179 819.336 181.902 818.506 181.348C817.675 180.79 817.023 180.006 816.55 178.996C816.081 177.986 815.846 176.805 815.846 175.455C815.846 174.104 816.081 172.923 816.55 171.913C817.023 170.903 817.675 170.121 818.506 169.567C819.336 169.009 820.297 168.73 821.388 168.73C822.121 168.73 822.78 168.852 823.363 169.094C823.952 169.333 824.461 169.657 824.891 170.066C825.326 170.471 825.675 170.927 825.939 171.434C826.208 171.941 826.389 172.463 826.483 173ZM832.929 182.205C832.119 182.205 831.399 181.987 830.769 181.553C830.138 181.114 829.642 180.511 829.279 179.744C828.917 178.977 828.736 178.103 828.736 177.123C828.736 176.138 828.917 175.265 829.279 174.502C829.642 173.735 830.138 173.132 830.769 172.693C831.399 172.254 832.119 172.035 832.929 172.035C833.739 172.035 834.459 172.254 835.09 172.693C835.72 173.132 836.217 173.735 836.579 174.502C836.941 175.269 837.122 176.143 837.122 177.123C837.122 178.103 836.941 178.977 836.579 179.744C836.217 180.511 835.72 181.114 835.09 181.553C834.459 181.987 833.739 182.205 832.929 182.205ZM832.929 181.482C833.615 181.482 834.214 181.288 834.725 180.901C835.241 180.513 835.639 179.989 835.921 179.328C836.206 178.668 836.349 177.933 836.349 177.123C836.349 176.313 836.206 175.58 835.921 174.924C835.635 174.263 835.237 173.739 834.725 173.352C834.214 172.96 833.615 172.763 832.929 172.763C832.243 172.763 831.644 172.96 831.133 173.352C830.622 173.739 830.223 174.263 829.938 174.924C829.652 175.58 829.509 176.313 829.509 177.123C829.509 177.933 829.65 178.668 829.931 179.328C830.217 179.989 830.615 180.513 831.127 180.901C831.642 181.288 832.243 181.482 832.929 181.482ZM839.809 182V172.182H840.569V173.716H840.64C840.853 173.213 841.213 172.81 841.72 172.508C842.227 172.201 842.804 172.048 843.452 172.048C843.52 172.048 843.588 172.048 843.657 172.048C843.725 172.048 843.789 172.05 843.848 172.054V172.84C843.797 172.836 843.735 172.83 843.663 172.821C843.595 172.808 843.51 172.802 843.407 172.802C842.862 172.802 842.376 172.919 841.95 173.153C841.528 173.388 841.196 173.712 840.953 174.125C840.71 174.534 840.588 175.003 840.588 175.531V182H839.809ZM852.233 178.516V172.182H853.013V182H852.233V180.408H852.169C851.939 180.915 851.566 181.329 851.051 181.648C850.539 181.968 849.934 182.128 849.235 182.128C848.592 182.128 848.023 181.987 847.529 181.706C847.034 181.425 846.646 181.026 846.365 180.511C846.084 179.991 845.943 179.373 845.943 178.657V172.182H846.723V178.625C846.723 179.443 846.97 180.106 847.465 180.613C847.963 181.116 848.607 181.367 849.395 181.367C849.906 181.367 850.377 181.252 850.808 181.022C851.238 180.792 851.583 180.464 851.843 180.038C852.103 179.607 852.233 179.1 852.233 178.516ZM857.024 175.634V182H856.244V172.182H857.005V173.735H857.081C857.312 173.228 857.68 172.821 858.187 172.514C858.694 172.207 859.297 172.054 859.996 172.054C860.657 172.054 861.236 172.195 861.735 172.476C862.238 172.757 862.63 173.158 862.911 173.678C863.197 174.193 863.339 174.809 863.339 175.525V182H862.559V175.557C862.559 174.722 862.31 174.05 861.812 173.543C861.317 173.032 860.663 172.776 859.849 172.776C859.304 172.776 858.818 172.896 858.392 173.134C857.966 173.373 857.631 173.707 857.388 174.138C857.145 174.564 857.024 175.062 857.024 175.634ZM857.465 170.648L856.8 170.597C856.839 170.111 857.024 169.717 857.356 169.414C857.693 169.107 858.098 168.954 858.571 168.954C858.848 168.954 859.089 169.003 859.293 169.101C859.498 169.199 859.687 169.312 859.862 169.44C860.037 169.563 860.214 169.676 860.393 169.778C860.576 169.876 860.785 169.925 861.019 169.925C861.292 169.925 861.539 169.834 861.76 169.651C861.982 169.463 862.114 169.224 862.157 168.935L862.815 169.037C862.751 169.518 862.549 169.904 862.208 170.194C861.871 170.484 861.483 170.629 861.045 170.629C860.763 170.629 860.525 170.58 860.329 170.482C860.137 170.384 859.958 170.273 859.792 170.149C859.626 170.021 859.451 169.908 859.268 169.81C859.084 169.708 858.861 169.657 858.596 169.657C858.294 169.657 858.036 169.753 857.823 169.945C857.61 170.132 857.491 170.366 857.465 170.648ZM869.182 182.211C868.615 182.211 868.095 182.098 867.622 181.872C867.153 181.646 866.776 181.316 866.491 180.881C866.209 180.447 866.069 179.918 866.069 179.296C866.069 178.887 866.141 178.527 866.286 178.216C866.431 177.905 866.655 177.636 866.957 177.411C867.26 177.185 867.648 176.999 868.121 176.854C868.594 176.705 869.158 176.59 869.814 176.509C870.313 176.45 870.758 176.392 871.15 176.337C871.542 176.277 871.849 176.185 872.071 176.062C872.297 175.938 872.41 175.751 872.41 175.499V175.09C872.41 174.374 872.184 173.805 871.732 173.384C871.28 172.962 870.658 172.751 869.866 172.751C869.162 172.751 868.57 172.906 868.089 173.217C867.611 173.524 867.277 173.92 867.085 174.406L866.35 174.131C866.537 173.663 866.808 173.273 867.162 172.962C867.52 172.651 867.929 172.418 868.389 172.265C868.854 172.112 869.339 172.035 869.846 172.035C870.285 172.035 870.703 172.097 871.099 172.22C871.5 172.344 871.856 172.531 872.167 172.783C872.482 173.034 872.731 173.356 872.915 173.748C873.098 174.136 873.189 174.6 873.189 175.141V182H872.41V180.229H872.352C872.182 180.596 871.947 180.93 871.649 181.233C871.355 181.531 870.999 181.77 870.581 181.949C870.168 182.124 869.702 182.211 869.182 182.211ZM869.258 181.489C869.872 181.489 870.415 181.339 870.888 181.041C871.366 180.739 871.738 180.325 872.007 179.801C872.275 179.277 872.41 178.683 872.41 178.018V176.573C872.312 176.658 872.169 176.735 871.981 176.803C871.798 176.867 871.589 176.925 871.355 176.976C871.125 177.023 870.882 177.065 870.626 177.104C870.375 177.138 870.13 177.17 869.891 177.2C869.175 177.285 868.591 177.417 868.14 177.596C867.692 177.771 867.364 178.001 867.155 178.286C866.951 178.572 866.849 178.917 866.849 179.322C866.849 179.991 867.079 180.519 867.539 180.907C867.999 181.295 868.572 181.489 869.258 181.489ZM825.838 186.69V208.219H825.141V186.69H825.838ZM830.002 204V190.909H837.289V191.651H830.801V197.077H836.899V197.819H830.801V203.259H837.443V204H830.002ZM847.659 194.182C847.591 193.368 847.258 192.71 846.662 192.207C846.069 191.704 845.302 191.452 844.361 191.452C843.726 191.452 843.161 191.57 842.667 191.804C842.172 192.038 841.785 192.358 841.503 192.763C841.222 193.168 841.081 193.632 841.081 194.156C841.081 194.493 841.145 194.798 841.273 195.07C841.405 195.339 841.591 195.58 841.829 195.793C842.068 196.001 842.351 196.185 842.679 196.342C843.008 196.5 843.37 196.638 843.766 196.758L845.198 197.18C845.688 197.329 846.14 197.501 846.553 197.697C846.971 197.893 847.333 198.128 847.64 198.401C847.951 198.669 848.191 198.984 848.362 199.347C848.537 199.709 848.624 200.126 848.624 200.599C848.624 201.29 848.445 201.908 848.087 202.453C847.733 202.999 847.228 203.429 846.572 203.744C845.92 204.055 845.151 204.211 844.265 204.211C843.421 204.211 842.686 204.068 842.059 203.783C841.437 203.497 840.945 203.101 840.583 202.594C840.221 202.082 840.016 201.494 839.969 200.83H840.787C840.83 201.371 841.003 201.839 841.305 202.236C841.612 202.628 842.019 202.93 842.526 203.143C843.033 203.357 843.613 203.463 844.265 203.463C844.968 203.463 845.588 203.344 846.125 203.105C846.662 202.862 847.081 202.526 847.384 202.095C847.687 201.665 847.838 201.164 847.838 200.593C847.838 200.133 847.729 199.739 847.512 199.411C847.294 199.082 846.973 198.799 846.547 198.56C846.125 198.322 845.601 198.109 844.974 197.921L843.446 197.461C842.424 197.15 841.642 196.726 841.101 196.189C840.564 195.652 840.295 194.983 840.295 194.182C840.295 193.509 840.474 192.912 840.832 192.392C841.19 191.868 841.676 191.457 842.29 191.158C842.907 190.86 843.604 190.711 844.38 190.711C845.16 190.711 845.848 190.862 846.444 191.165C847.041 191.463 847.514 191.874 847.863 192.398C848.213 192.918 848.407 193.513 848.445 194.182H847.659ZM852.856 186.69V208.219H852.159V186.69H852.856Z" fill="white"/>
<circle cx="497.5" cy="118.5" r="9.5" fill="white"/>
<line x1="498.5" y1="96" x2="498.5" y2="222" stroke="#F2F2F2"/>
<path d="M471.292 58V44.9091H475.543C476.336 44.9091 477.005 45.0497 477.55 45.331C478.096 45.6122 478.509 46.0064 478.79 46.5135C479.076 47.0206 479.219 47.6108 479.219 48.2841C479.219 48.8125 479.133 49.2812 478.963 49.6903C478.792 50.0994 478.554 50.4382 478.247 50.7067C477.944 50.9709 477.589 51.1541 477.18 51.2564V51.3331C477.631 51.3672 478.051 51.5249 478.439 51.8061C478.827 52.0831 479.138 52.4602 479.372 52.9375C479.611 53.4148 479.73 53.9709 479.73 54.6058C479.73 55.2749 479.585 55.8651 479.295 56.3764C479.01 56.8835 478.581 57.282 478.01 57.5717C477.439 57.8572 476.732 58 475.888 58H471.292ZM472.091 57.2585H475.888C476.873 57.2585 477.629 57.0114 478.157 56.517C478.69 56.0227 478.956 55.3857 478.956 54.6058C478.956 54.0561 478.827 53.5639 478.567 53.1293C478.311 52.6946 477.955 52.3516 477.499 52.1001C477.043 51.8445 476.515 51.7166 475.914 51.7166H472.091V57.2585ZM472.091 50.9879H475.818C476.376 50.9879 476.849 50.8665 477.237 50.6236C477.629 50.3807 477.927 50.0547 478.132 49.6456C478.341 49.2365 478.445 48.7827 478.445 48.2841C478.445 47.4744 478.194 46.8331 477.691 46.3601C477.188 45.8871 476.472 45.6506 475.543 45.6506H472.091V50.9879ZM486.43 58.2045C485.544 58.2045 484.773 57.9851 484.116 57.5462C483.46 57.1072 482.953 56.5064 482.595 55.7436C482.237 54.9808 482.058 54.1115 482.058 53.1357C482.058 52.1555 482.237 51.282 482.595 50.5149C482.957 49.7479 483.454 49.1428 484.085 48.6996C484.715 48.2564 485.435 48.0348 486.245 48.0348C486.795 48.0348 487.315 48.1456 487.805 48.3672C488.299 48.5845 488.734 48.8999 489.109 49.3132C489.488 49.7266 489.784 50.2251 489.997 50.8089C490.214 51.3928 490.323 52.049 490.323 52.7777V53.2635H482.55V52.554H489.543C489.543 51.8423 489.398 51.201 489.109 50.63C488.819 50.0589 488.425 49.6051 487.926 49.2685C487.428 48.9318 486.867 48.7635 486.245 48.7635C485.593 48.7635 485.011 48.9467 484.5 49.3132C483.993 49.6754 483.59 50.1655 483.292 50.7834C482.998 51.4013 482.844 52.0916 482.832 52.8544V53.174C482.832 53.9922 482.974 54.7273 483.26 55.3793C483.55 56.027 483.963 56.5405 484.5 56.9197C485.037 57.2947 485.68 57.4822 486.43 57.4822C486.967 57.4822 487.425 57.3928 487.805 57.2138C488.188 57.0305 488.501 56.8089 488.744 56.549C488.987 56.2891 489.17 56.0376 489.294 55.7947L490.004 56.0824C489.854 56.4105 489.622 56.7386 489.307 57.0668C488.996 57.3906 488.599 57.6612 488.118 57.8786C487.641 58.0959 487.078 58.2045 486.43 58.2045ZM493.788 44.9091V58H493.008V44.9091H493.788ZM500.723 48.1818V48.8786H496.37V48.1818H500.723ZM497.802 58V46.6541C497.802 46.1598 497.915 45.7379 498.141 45.3885C498.366 45.0391 498.663 44.7727 499.029 44.5895C499.4 44.4062 499.798 44.3146 500.224 44.3146C500.45 44.3146 500.642 44.3338 500.8 44.3722C500.962 44.4062 501.102 44.4467 501.222 44.4936L500.991 45.1839C500.893 45.1499 500.787 45.12 500.672 45.0945C500.561 45.0689 500.429 45.0561 500.276 45.0561C499.781 45.0561 499.374 45.2074 499.055 45.5099C498.735 45.8125 498.575 46.2344 498.575 46.7756L498.569 58H497.802ZM505.523 58.2109C504.957 58.2109 504.437 58.098 503.964 57.8722C503.495 57.6463 503.118 57.3161 502.832 56.8814C502.551 56.4467 502.411 55.9183 502.411 55.2962C502.411 54.8871 502.483 54.527 502.628 54.2159C502.773 53.9048 502.996 53.6364 503.299 53.4105C503.602 53.1847 503.989 52.9993 504.462 52.8544C504.935 52.7053 505.5 52.5902 506.156 52.5092C506.655 52.4496 507.1 52.392 507.492 52.3366C507.884 52.277 508.191 52.1854 508.413 52.0618C508.638 51.9382 508.751 51.7507 508.751 51.4993V51.0902C508.751 50.3743 508.526 49.8054 508.074 49.3835C507.622 48.9616 507 48.7507 506.207 48.7507C505.504 48.7507 504.912 48.9062 504.43 49.2173C503.953 49.5241 503.619 49.9205 503.427 50.4062L502.692 50.1314C502.879 49.6626 503.15 49.2727 503.504 48.9616C503.862 48.6506 504.271 48.4183 504.731 48.2649C505.195 48.1115 505.681 48.0348 506.188 48.0348C506.627 48.0348 507.045 48.0966 507.441 48.2202C507.842 48.3438 508.197 48.5312 508.509 48.7827C508.824 49.0341 509.073 49.3558 509.256 49.7479C509.44 50.1357 509.531 50.6001 509.531 51.1413V58H508.751V56.2294H508.694C508.523 56.5959 508.289 56.9304 507.991 57.233C507.697 57.5312 507.341 57.7699 506.923 57.9489C506.51 58.1236 506.043 58.2109 505.523 58.2109ZM505.6 57.4886C506.214 57.4886 506.757 57.3395 507.23 57.0412C507.707 56.7386 508.08 56.3253 508.349 55.8011C508.617 55.277 508.751 54.6825 508.751 54.0178V52.5732C508.653 52.6584 508.511 52.7351 508.323 52.8033C508.14 52.8672 507.931 52.9247 507.697 52.9759C507.467 53.0227 507.224 53.0653 506.968 53.1037C506.717 53.1378 506.472 53.1697 506.233 53.1996C505.517 53.2848 504.933 53.4169 504.482 53.5959C504.034 53.7706 503.706 54.0007 503.497 54.2862C503.293 54.5717 503.19 54.9169 503.19 55.3217C503.19 55.9908 503.42 56.5192 503.881 56.907C504.341 57.2947 504.914 57.4886 505.6 57.4886ZM519.039 50.2976L518.317 50.4893C518.202 50.1314 518.038 49.8224 517.825 49.5625C517.612 49.3026 517.343 49.1023 517.02 48.9616C516.7 48.8168 516.316 48.7443 515.869 48.7443C515.149 48.7443 514.559 48.9233 514.098 49.2812C513.642 49.6392 513.414 50.1058 513.414 50.6811C513.414 51.1499 513.57 51.5376 513.881 51.8445C514.192 52.147 514.667 52.3771 515.306 52.5348L516.815 52.9119C517.591 53.1037 518.174 53.4148 518.566 53.8452C518.958 54.2713 519.154 54.8018 519.154 55.4368C519.154 55.978 519.007 56.4574 518.713 56.875C518.419 57.2926 518.012 57.6186 517.493 57.853C516.977 58.0874 516.376 58.2045 515.69 58.2045C514.774 58.2045 514.022 57.9915 513.434 57.5653C512.846 57.1349 512.468 56.5192 512.302 55.718L513.05 55.5263C513.191 56.1655 513.483 56.6534 513.926 56.9901C514.373 57.3224 514.959 57.4886 515.684 57.4886C516.485 57.4886 517.13 57.299 517.62 56.9197C518.115 56.5405 518.362 56.0547 518.362 55.4624C518.362 55.0107 518.217 54.6293 517.927 54.3182C517.637 54.0071 517.199 53.7791 516.61 53.6342L515.044 53.2507C514.243 53.0547 513.642 52.7415 513.242 52.3111C512.841 51.8764 512.641 51.3416 512.641 50.7067C512.641 50.1783 512.779 49.7138 513.056 49.3132C513.333 48.9126 513.715 48.5994 514.201 48.3736C514.686 48.1477 515.243 48.0348 515.869 48.0348C516.7 48.0348 517.377 48.2308 517.902 48.6229C518.426 49.0149 518.805 49.5732 519.039 50.2976ZM525.324 48.1818V48.8786H521.035V48.1818H525.324ZM522.486 45.8295H523.26V55.6797C523.26 56.0803 523.336 56.4084 523.49 56.6641C523.648 56.9155 523.852 57.103 524.104 57.2266C524.359 57.3459 524.632 57.4055 524.922 57.4055C525.062 57.4055 525.184 57.3949 525.286 57.3736C525.393 57.3523 525.493 57.3246 525.586 57.2905L525.778 58C525.659 58.0426 525.527 58.0788 525.382 58.1087C525.237 58.1428 525.067 58.1598 524.871 58.1598C524.461 58.1598 524.074 58.0682 523.707 57.8849C523.345 57.7017 523.051 57.4354 522.825 57.0859C522.599 56.7365 522.486 56.3146 522.486 55.8203V45.8295ZM483.353 62.6903V84.2188H482.656V62.6903H483.353ZM496.383 66.9091H497.182V75.5767C497.182 76.4673 496.975 77.2621 496.562 77.9609C496.148 78.6555 495.577 79.2053 494.849 79.6101C494.124 80.0107 493.291 80.2109 492.349 80.2109C491.412 80.2109 490.579 80.0107 489.85 79.6101C489.121 79.2053 488.548 78.6534 488.131 77.9545C487.717 77.2557 487.513 76.4631 487.517 75.5767V66.9091H488.316V75.532C488.316 76.2862 488.487 76.9574 488.827 77.5455C489.173 78.1335 489.648 78.598 490.253 78.9389C490.858 79.2756 491.557 79.4439 492.349 79.4439C493.142 79.4439 493.841 79.2756 494.446 78.9389C495.051 78.598 495.524 78.1335 495.865 77.5455C496.21 76.9574 496.383 76.2862 496.383 75.532V66.9091ZM500.964 80V66.9091H501.763V74.5092H501.853L508.756 66.9091H509.817L504.135 73.103L509.766 80H508.769L503.623 73.6783L501.763 75.7365V80H500.964ZM513.341 62.6903V84.2188H512.644V62.6903H513.341Z" fill="white"/>
<circle cx="602.5" cy="118.5" r="9.5" fill="white"/>
<line x1="603.5" y1="55" x2="603.5" y2="222" stroke="#F2F2F2"/>
<path d="M580.368 11.4545C580.368 12.8054 580.134 13.9858 579.665 14.9957C579.196 16.0014 578.544 16.7834 577.709 17.3416C576.878 17.8999 575.919 18.179 574.833 18.179C573.742 18.179 572.779 17.8999 571.943 17.3416C571.112 16.7791 570.463 15.995 569.994 14.9893C569.525 13.9794 569.291 12.8011 569.291 11.4545C569.291 10.1037 569.525 8.92543 569.994 7.91974C570.467 6.91406 571.119 6.1321 571.95 5.57386C572.781 5.01136 573.742 4.73011 574.833 4.73011C575.919 4.73011 576.878 5.00923 577.709 5.56747C578.544 6.12571 579.196 6.9098 579.665 7.91974C580.134 8.92543 580.368 10.1037 580.368 11.4545ZM579.588 11.4545C579.588 10.2401 579.384 9.1875 578.975 8.29688C578.57 7.40625 578.009 6.71804 577.294 6.23224C576.578 5.74219 575.757 5.49716 574.833 5.49716C573.908 5.49716 573.088 5.74006 572.372 6.22585C571.656 6.70739 571.093 7.3956 570.684 8.29048C570.279 9.18111 570.077 10.2358 570.077 11.4545C570.077 12.6605 570.277 13.7109 570.678 14.6058C571.083 15.4964 571.643 16.1868 572.359 16.6768C573.075 17.1669 573.899 17.4119 574.833 17.4119C575.757 17.4119 576.578 17.169 577.294 16.6832C578.009 16.1932 578.57 15.5028 578.975 14.6122C579.384 13.7216 579.588 12.669 579.588 11.4545ZM589.506 14.5163V8.18182H590.285V18H589.506V16.4084H589.442C589.212 16.9155 588.839 17.3288 588.323 17.6484C587.812 17.968 587.207 18.1278 586.508 18.1278C585.864 18.1278 585.295 17.9872 584.801 17.706C584.307 17.4247 583.919 17.0263 583.638 16.5107C583.356 15.9908 583.216 15.3729 583.216 14.657V8.18182H583.996V14.625C583.996 15.4432 584.243 16.1058 584.737 16.6129C585.236 17.1158 585.879 17.3672 586.668 17.3672C587.179 17.3672 587.65 17.2521 588.08 17.022C588.511 16.7919 588.856 16.4638 589.116 16.0376C589.376 15.6072 589.506 15.1001 589.506 14.5163ZM593.517 18V8.18182H594.277V9.71591H594.348C594.561 9.21307 594.921 8.81037 595.428 8.50781C595.935 8.20099 596.512 8.04759 597.16 8.04759C597.228 8.04759 597.296 8.04759 597.365 8.04759C597.433 8.04759 597.497 8.04972 597.556 8.05398V8.8402C597.505 8.83594 597.443 8.82954 597.371 8.82102C597.303 8.80824 597.218 8.80185 597.115 8.80185C596.57 8.80185 596.084 8.91903 595.658 9.15341C595.236 9.38778 594.904 9.71165 594.661 10.125C594.418 10.5341 594.296 11.0028 594.296 11.5312V18H593.517ZM603.181 18.2045C602.295 18.2045 601.524 17.9851 600.867 17.5462C600.211 17.1072 599.704 16.5064 599.346 15.7436C598.988 14.9808 598.809 14.1115 598.809 13.1357C598.809 12.1555 598.988 11.282 599.346 10.5149C599.708 9.74787 600.205 9.14276 600.835 8.69957C601.466 8.25639 602.186 8.0348 602.996 8.0348C603.546 8.0348 604.066 8.1456 604.556 8.36719C605.05 8.58452 605.485 8.89986 605.86 9.31321C606.239 9.72656 606.535 10.2251 606.748 10.8089C606.965 11.3928 607.074 12.049 607.074 12.7777V13.2635H599.301V12.554H606.294C606.294 11.8423 606.149 11.201 605.86 10.63C605.57 10.0589 605.176 9.60511 604.677 9.26847C604.179 8.93182 603.618 8.76349 602.996 8.76349C602.344 8.76349 601.762 8.94673 601.251 9.31321C600.744 9.67543 600.341 10.1655 600.043 10.7834C599.749 11.4013 599.595 12.0916 599.583 12.8544V13.174C599.583 13.9922 599.725 14.7273 600.011 15.3793C600.301 16.027 600.714 16.5405 601.251 16.9197C601.788 17.2947 602.431 17.4822 603.181 17.4822C603.718 17.4822 604.176 17.3928 604.556 17.2138C604.939 17.0305 605.252 16.8089 605.495 16.549C605.738 16.2891 605.921 16.0376 606.045 15.7947L606.755 16.0824C606.605 16.4105 606.373 16.7386 606.058 17.0668C605.747 17.3906 605.35 17.6612 604.869 17.8786C604.392 18.0959 603.829 18.2045 603.181 18.2045ZM610.539 11.6335V18H609.759V8.18182H610.519V9.73509H610.596C610.826 9.22798 611.195 8.82102 611.702 8.5142C612.209 8.20739 612.812 8.05398 613.511 8.05398C614.171 8.05398 614.751 8.1946 615.25 8.47585C615.752 8.7571 616.144 9.15767 616.426 9.67756C616.711 10.1932 616.854 10.8089 616.854 11.5249V18H616.074V11.5568C616.074 10.7216 615.825 10.0504 615.326 9.54332C614.832 9.03196 614.178 8.77628 613.364 8.77628C612.818 8.77628 612.333 8.8956 611.907 9.13423C611.48 9.37287 611.146 9.70739 610.903 10.1378C610.66 10.5639 610.539 11.0625 610.539 11.6335ZM626.333 10.2976L625.611 10.4893C625.496 10.1314 625.332 9.82244 625.119 9.5625C624.906 9.30256 624.637 9.10227 624.313 8.96165C623.994 8.81676 623.61 8.74432 623.163 8.74432C622.443 8.74432 621.853 8.9233 621.392 9.28125C620.936 9.6392 620.708 10.1058 620.708 10.6811C620.708 11.1499 620.864 11.5376 621.175 11.8445C621.486 12.147 621.961 12.3771 622.6 12.5348L624.109 12.9119C624.884 13.1037 625.468 13.4148 625.86 13.8452C626.252 14.2713 626.448 14.8018 626.448 15.4368C626.448 15.978 626.301 16.4574 626.007 16.875C625.713 17.2926 625.306 17.6186 624.786 17.853C624.271 18.0874 623.67 18.2045 622.984 18.2045C622.068 18.2045 621.316 17.9915 620.728 17.5653C620.139 17.1349 619.762 16.5192 619.596 15.718L620.344 15.5263C620.485 16.1655 620.777 16.6534 621.22 16.9901C621.667 17.3224 622.253 17.4886 622.978 17.4886C623.779 17.4886 624.424 17.299 624.914 16.9197C625.409 16.5405 625.656 16.0547 625.656 15.4624C625.656 15.0107 625.511 14.6293 625.221 14.3182C624.931 14.0071 624.492 13.7791 623.904 13.6342L622.338 13.2507C621.537 13.0547 620.936 12.7415 620.536 12.3111C620.135 11.8764 619.935 11.3416 619.935 10.7067C619.935 10.1783 620.073 9.71378 620.35 9.31321C620.627 8.91264 621.009 8.59943 621.495 8.37358C621.98 8.14773 622.536 8.0348 623.163 8.0348C623.994 8.0348 624.671 8.23082 625.196 8.62287C625.72 9.01491 626.099 9.57315 626.333 10.2976ZM632.976 18.2045C632.09 18.2045 631.319 17.9851 630.662 17.5462C630.006 17.1072 629.499 16.5064 629.141 15.7436C628.783 14.9808 628.604 14.1115 628.604 13.1357C628.604 12.1555 628.783 11.282 629.141 10.5149C629.503 9.74787 630 9.14276 630.63 8.69957C631.261 8.25639 631.981 8.0348 632.791 8.0348C633.341 8.0348 633.861 8.1456 634.351 8.36719C634.845 8.58452 635.28 8.89986 635.655 9.31321C636.034 9.72656 636.33 10.2251 636.543 10.8089C636.76 11.3928 636.869 12.049 636.869 12.7777V13.2635H629.096V12.554H636.089C636.089 11.8423 635.944 11.201 635.655 10.63C635.365 10.0589 634.971 9.60511 634.472 9.26847C633.973 8.93182 633.413 8.76349 632.791 8.76349C632.139 8.76349 631.557 8.94673 631.046 9.31321C630.539 9.67543 630.136 10.1655 629.838 10.7834C629.544 11.4013 629.39 12.0916 629.378 12.8544V13.174C629.378 13.9922 629.52 14.7273 629.806 15.3793C630.096 16.027 630.509 16.5405 631.046 16.9197C631.583 17.2947 632.226 17.4822 632.976 17.4822C633.513 17.4822 633.971 17.3928 634.351 17.2138C634.734 17.0305 635.047 16.8089 635.29 16.549C635.533 16.2891 635.716 16.0376 635.84 15.7947L636.549 16.0824C636.4 16.4105 636.168 16.7386 635.853 17.0668C635.542 17.3906 635.145 17.6612 634.664 17.8786C634.187 18.0959 633.624 18.2045 632.976 18.2045ZM589.838 22.6903V44.2188H589.141V22.6903H589.838ZM594.002 40V26.9091H601.289V27.6506H594.801V33.0774H600.899V33.8189H594.801V39.2585H601.443V40H594.002ZM611.659 30.1818C611.591 29.3679 611.258 28.7095 610.662 28.2067C610.069 27.7038 609.302 27.4524 608.361 27.4524C607.726 27.4524 607.161 27.5696 606.667 27.804C606.172 28.0384 605.785 28.358 605.503 28.7628C605.222 29.1676 605.081 29.6321 605.081 30.1562C605.081 30.4929 605.145 30.7976 605.273 31.0703C605.405 31.3388 605.591 31.5795 605.829 31.7926C606.068 32.0014 606.351 32.1847 606.679 32.3423C607.008 32.5 607.37 32.6385 607.766 32.7578L609.198 33.1797C609.688 33.3288 610.14 33.5014 610.553 33.6974C610.971 33.8935 611.333 34.1278 611.64 34.4006C611.951 34.669 612.191 34.9844 612.362 35.3466C612.537 35.7088 612.624 36.1264 612.624 36.5994C612.624 37.2898 612.445 37.9077 612.087 38.4531C611.733 38.9986 611.228 39.429 610.572 39.7443C609.92 40.0554 609.151 40.2109 608.265 40.2109C607.421 40.2109 606.686 40.0682 606.059 39.7827C605.437 39.4972 604.945 39.1009 604.583 38.5938C604.221 38.0824 604.016 37.4943 603.969 36.8295H604.787C604.83 37.3707 605.003 37.8395 605.305 38.2358C605.612 38.6278 606.019 38.9304 606.526 39.1435C607.033 39.3565 607.613 39.4631 608.265 39.4631C608.968 39.4631 609.588 39.3437 610.125 39.1051C610.662 38.8622 611.081 38.5256 611.384 38.0952C611.687 37.6648 611.838 37.1641 611.838 36.593C611.838 36.1328 611.729 35.7386 611.512 35.4105C611.294 35.0824 610.973 34.799 610.547 34.5604C610.125 34.3217 609.601 34.1087 608.974 33.9212L607.446 33.4609C606.424 33.1499 605.642 32.7259 605.101 32.1889C604.564 31.652 604.295 30.983 604.295 30.1818C604.295 29.5085 604.474 28.9119 604.832 28.392C605.19 27.8679 605.676 27.4567 606.29 27.1584C606.907 26.8601 607.604 26.7109 608.38 26.7109C609.16 26.7109 609.848 26.8622 610.444 27.1648C611.041 27.4631 611.514 27.8743 611.863 28.3984C612.213 28.9183 612.407 29.5128 612.445 30.1818H611.659ZM616.856 22.6903V44.2188H616.159V22.6903H616.856Z" fill="white"/>
<circle cx="358.5" cy="118.5" r="9.5" fill="white"/>
<line x1="359.5" y1="55" x2="359.5" y2="222" stroke="#F2F2F2"/>
<path d="M325.828 4.90909L330.124 16.9709H330.213L334.509 4.90909H335.353L330.629 18H329.708L324.985 4.90909H325.828ZM339.207 18.2109C338.64 18.2109 338.12 18.098 337.647 17.8722C337.179 17.6463 336.801 17.3161 336.516 16.8814C336.235 16.4467 336.094 15.9183 336.094 15.2962C336.094 14.8871 336.167 14.527 336.311 14.2159C336.456 13.9048 336.68 13.6364 336.983 13.4105C337.285 13.1847 337.673 12.9993 338.146 12.8544C338.619 12.7053 339.184 12.5902 339.84 12.5092C340.338 12.4496 340.784 12.392 341.176 12.3366C341.568 12.277 341.875 12.1854 342.096 12.0618C342.322 11.9382 342.435 11.7507 342.435 11.4993V11.0902C342.435 10.3743 342.209 9.8054 341.757 9.38352C341.306 8.96165 340.684 8.75071 339.891 8.75071C339.188 8.75071 338.596 8.90625 338.114 9.21733C337.637 9.52415 337.302 9.92045 337.11 10.4062L336.375 10.1314C336.563 9.66264 336.833 9.27273 337.187 8.96165C337.545 8.65057 337.954 8.41832 338.414 8.26491C338.879 8.11151 339.365 8.0348 339.872 8.0348C340.311 8.0348 340.728 8.09659 341.125 8.22017C341.525 8.34375 341.881 8.53125 342.192 8.78267C342.507 9.03409 342.757 9.35582 342.94 9.74787C343.123 10.1357 343.215 10.6001 343.215 11.1413V18H342.435V16.2294H342.377C342.207 16.5959 341.973 16.9304 341.674 17.233C341.38 17.5312 341.025 17.7699 340.607 17.9489C340.194 18.1236 339.727 18.2109 339.207 18.2109ZM339.284 17.4886C339.897 17.4886 340.441 17.3395 340.914 17.0412C341.391 16.7386 341.764 16.3253 342.032 15.8011C342.301 15.277 342.435 14.6825 342.435 14.0178V12.5732C342.337 12.6584 342.194 12.7351 342.007 12.8033C341.824 12.8672 341.615 12.9247 341.38 12.9759C341.15 13.0227 340.907 13.0653 340.652 13.1037C340.4 13.1378 340.155 13.1697 339.917 13.1996C339.201 13.2848 338.617 13.4169 338.165 13.5959C337.718 13.7706 337.39 14.0007 337.181 14.2862C336.976 14.5717 336.874 14.9169 336.874 15.3217C336.874 15.9908 337.104 16.5192 337.564 16.907C338.025 17.2947 338.598 17.4886 339.284 17.4886ZM347.264 4.90909V18H346.484V4.90909H347.264ZM354.321 18.2045C353.435 18.2045 352.663 17.9851 352.007 17.5462C351.351 17.1072 350.844 16.5064 350.486 15.7436C350.128 14.9808 349.949 14.1115 349.949 13.1357C349.949 12.1555 350.128 11.282 350.486 10.5149C350.848 9.74787 351.344 9.14276 351.975 8.69957C352.606 8.25639 353.326 8.0348 354.136 8.0348C354.685 8.0348 355.205 8.1456 355.695 8.36719C356.19 8.58452 356.624 8.89986 356.999 9.31321C357.379 9.72656 357.675 10.2251 357.888 10.8089C358.105 11.3928 358.214 12.049 358.214 12.7777V13.2635H350.441V12.554H357.434C357.434 11.8423 357.289 11.201 356.999 10.63C356.71 10.0589 356.315 9.60511 355.817 9.26847C355.318 8.93182 354.758 8.76349 354.136 8.76349C353.484 8.76349 352.902 8.94673 352.391 9.31321C351.884 9.67543 351.481 10.1655 351.183 10.7834C350.888 11.4013 350.735 12.0916 350.722 12.8544V13.174C350.722 13.9922 350.865 14.7273 351.151 15.3793C351.44 16.027 351.854 16.5405 352.391 16.9197C352.928 17.2947 353.571 17.4822 354.321 17.4822C354.858 17.4822 355.316 17.3928 355.695 17.2138C356.079 17.0305 356.392 16.8089 356.635 16.549C356.878 16.2891 357.061 16.0376 357.185 15.7947L357.894 16.0824C357.745 16.4105 357.513 16.7386 357.197 17.0668C356.886 17.3906 356.49 17.6612 356.009 17.8786C355.531 18.0959 354.969 18.2045 354.321 18.2045ZM361.678 11.6335V18H360.898V8.18182H361.659V9.73509H361.736C361.966 9.22798 362.335 8.82102 362.842 8.5142C363.349 8.20739 363.952 8.05398 364.651 8.05398C365.311 8.05398 365.891 8.1946 366.389 8.47585C366.892 8.7571 367.284 9.15767 367.565 9.67756C367.851 10.1932 367.994 10.8089 367.994 11.5249V18H367.214V11.5568C367.214 10.7216 366.964 10.0504 366.466 9.54332C365.972 9.03196 365.317 8.77628 364.504 8.77628C363.958 8.77628 363.472 8.8956 363.046 9.13423C362.62 9.37287 362.286 9.70739 362.043 10.1378C361.8 10.5639 361.678 11.0625 361.678 11.6335ZM374.916 18.2045C374.081 18.2045 373.346 17.9851 372.711 17.5462C372.076 17.103 371.58 16.4979 371.222 15.7308C370.868 14.9638 370.691 14.0945 370.691 13.1229C370.691 12.1513 370.87 11.282 371.228 10.5149C371.586 9.74787 372.082 9.14276 372.717 8.69957C373.352 8.25639 374.083 8.0348 374.91 8.0348C375.532 8.0348 376.099 8.16264 376.61 8.41832C377.126 8.67401 377.552 9.02983 377.888 9.4858C378.229 9.94176 378.447 10.4702 378.54 11.071H377.748C377.62 10.4062 377.3 9.85653 376.789 9.42188C376.282 8.98295 375.658 8.76349 374.916 8.76349C374.251 8.76349 373.659 8.95099 373.139 9.32599C372.619 9.69673 372.21 10.2102 371.912 10.8665C371.614 11.5185 371.464 12.2663 371.464 13.1101C371.464 13.9411 371.609 14.6868 371.899 15.3473C372.189 16.0036 372.594 16.5234 373.114 16.907C373.634 17.2905 374.234 17.4822 374.916 17.4822C375.398 17.4822 375.837 17.3864 376.233 17.1946C376.634 17.0028 376.968 16.7301 377.237 16.3764C377.505 16.0227 377.682 15.6094 377.767 15.1364H378.56C378.466 15.7415 378.253 16.2741 377.92 16.7344C377.588 17.1946 377.164 17.5547 376.648 17.8146C376.133 18.0746 375.555 18.2045 374.916 18.2045ZM381.257 18V8.18182H382.031V18H381.257ZM381.647 6.44318C381.477 6.44318 381.327 6.38352 381.2 6.2642C381.076 6.14489 381.014 6 381.014 5.82955C381.014 5.65909 381.076 5.5142 381.2 5.39489C381.323 5.27557 381.472 5.21591 381.647 5.21591C381.817 5.21591 381.964 5.27557 382.088 5.39489C382.216 5.5142 382.28 5.65909 382.28 5.82955C382.28 6 382.218 6.14489 382.094 6.2642C381.971 6.38352 381.822 6.44318 381.647 6.44318ZM387.898 18.2109C387.332 18.2109 386.812 18.098 386.339 17.8722C385.87 17.6463 385.493 17.3161 385.207 16.8814C384.926 16.4467 384.786 15.9183 384.786 15.2962C384.786 14.8871 384.858 14.527 385.003 14.2159C385.148 13.9048 385.371 13.6364 385.674 13.4105C385.977 13.1847 386.364 12.9993 386.837 12.8544C387.31 12.7053 387.875 12.5902 388.531 12.5092C389.03 12.4496 389.475 12.392 389.867 12.3366C390.259 12.277 390.566 12.1854 390.788 12.0618C391.013 11.9382 391.126 11.7507 391.126 11.4993V11.0902C391.126 10.3743 390.901 9.8054 390.449 9.38352C389.997 8.96165 389.375 8.75071 388.582 8.75071C387.879 8.75071 387.287 8.90625 386.805 9.21733C386.328 9.52415 385.994 9.92045 385.802 10.4062L385.067 10.1314C385.254 9.66264 385.525 9.27273 385.879 8.96165C386.237 8.65057 386.646 8.41832 387.106 8.26491C387.57 8.11151 388.056 8.0348 388.563 8.0348C389.002 8.0348 389.42 8.09659 389.816 8.22017C390.217 8.34375 390.572 8.53125 390.884 8.78267C391.199 9.03409 391.448 9.35582 391.631 9.74787C391.815 10.1357 391.906 10.6001 391.906 11.1413V18H391.126V16.2294H391.069C390.898 16.5959 390.664 16.9304 390.366 17.233C390.072 17.5312 389.716 17.7699 389.298 17.9489C388.885 18.1236 388.418 18.2109 387.898 18.2109ZM387.975 17.4886C388.589 17.4886 389.132 17.3395 389.605 17.0412C390.082 16.7386 390.455 16.3253 390.724 15.8011C390.992 15.277 391.126 14.6825 391.126 14.0178V12.5732C391.028 12.6584 390.886 12.7351 390.698 12.8033C390.515 12.8672 390.306 12.9247 390.072 12.9759C389.842 13.0227 389.599 13.0653 389.343 13.1037C389.092 13.1378 388.847 13.1697 388.608 13.1996C387.892 13.2848 387.308 13.4169 386.857 13.5959C386.409 13.7706 386.081 14.0007 385.872 14.2862C385.668 14.5717 385.565 14.9169 385.565 15.3217C385.565 15.9908 385.795 16.5192 386.256 16.907C386.716 17.2947 387.289 17.4886 387.975 17.4886ZM345.838 22.6903V44.2188H345.141V22.6903H345.838ZM350.002 40V26.9091H357.289V27.6506H350.801V33.0774H356.899V33.8189H350.801V39.2585H357.443V40H350.002ZM367.659 30.1818C367.591 29.3679 367.258 28.7095 366.662 28.2067C366.069 27.7038 365.302 27.4524 364.361 27.4524C363.726 27.4524 363.161 27.5696 362.667 27.804C362.172 28.0384 361.785 28.358 361.503 28.7628C361.222 29.1676 361.081 29.6321 361.081 30.1562C361.081 30.4929 361.145 30.7976 361.273 31.0703C361.405 31.3388 361.591 31.5795 361.829 31.7926C362.068 32.0014 362.351 32.1847 362.679 32.3423C363.008 32.5 363.37 32.6385 363.766 32.7578L365.198 33.1797C365.688 33.3288 366.14 33.5014 366.553 33.6974C366.971 33.8935 367.333 34.1278 367.64 34.4006C367.951 34.669 368.191 34.9844 368.362 35.3466C368.537 35.7088 368.624 36.1264 368.624 36.5994C368.624 37.2898 368.445 37.9077 368.087 38.4531C367.733 38.9986 367.228 39.429 366.572 39.7443C365.92 40.0554 365.151 40.2109 364.265 40.2109C363.421 40.2109 362.686 40.0682 362.059 39.7827C361.437 39.4972 360.945 39.1009 360.583 38.5938C360.221 38.0824 360.016 37.4943 359.969 36.8295H360.787C360.83 37.3707 361.003 37.8395 361.305 38.2358C361.612 38.6278 362.019 38.9304 362.526 39.1435C363.033 39.3565 363.613 39.4631 364.265 39.4631C364.968 39.4631 365.588 39.3437 366.125 39.1051C366.662 38.8622 367.081 38.5256 367.384 38.0952C367.687 37.6648 367.838 37.1641 367.838 36.593C367.838 36.1328 367.729 35.7386 367.512 35.4105C367.294 35.0824 366.973 34.799 366.547 34.5604C366.125 34.3217 365.601 34.1087 364.974 33.9212L363.446 33.4609C362.424 33.1499 361.642 32.7259 361.101 32.1889C360.564 31.652 360.295 30.983 360.295 30.1818C360.295 29.5085 360.474 28.9119 360.832 28.392C361.19 27.8679 361.676 27.4567 362.29 27.1584C362.907 26.8601 363.604 26.7109 364.38 26.7109C365.16 26.7109 365.848 26.8622 366.444 27.1648C367.041 27.4631 367.514 27.8743 367.863 28.3984C368.213 28.9183 368.407 29.5128 368.445 30.1818H367.659ZM372.856 22.6903V44.2188H372.159V22.6903H372.856Z" fill="white"/>
</svg>
