<svg width="356" height="870" viewBox="0 0 356 870" fill="none" xmlns="http://www.w3.org/2000/svg">
<line x1="208.5" y1="64.9998" x2="208.5" y2="806" stroke="white"/>
<line x1="208.5" y1="817" x2="208.5" y2="837" stroke="white"/>
<line x1="208.5" y1="850" x2="208.5" y2="870" stroke="white"/>
<circle cx="208.5" cy="65.4998" r="9.5" transform="rotate(90 208.5 65.4998)" fill="white"/>
<circle cx="208.5" cy="200.5" r="9.5" transform="rotate(90 208.5 200.5)" fill="white"/>
<line x1="317" y1="201.5" x2="88" y2="201.5" stroke="#F2F2F2"/>
<path d="M178.009 9.14062C177.919 8.82955 177.793 8.55469 177.631 8.31605C177.469 8.07315 177.271 7.86861 177.037 7.70241C176.807 7.53196 176.543 7.40199 176.244 7.3125C175.95 7.22301 175.624 7.17827 175.266 7.17827C174.597 7.17827 174.009 7.34446 173.502 7.67685C172.999 8.00923 172.607 8.4929 172.326 9.12784C172.045 9.75852 171.904 10.5298 171.904 11.4418C171.904 12.3537 172.043 13.1293 172.32 13.7685C172.597 14.4077 172.989 14.8956 173.496 15.2322C174.003 15.5646 174.602 15.7308 175.292 15.7308C175.918 15.7308 176.453 15.62 176.896 15.3984C177.344 15.1726 177.685 14.8551 177.919 14.446C178.158 14.0369 178.277 13.5533 178.277 12.995L178.839 13.0781H175.464V10.9943H180.942V12.6435C180.942 13.794 180.7 14.7827 180.214 15.6094C179.728 16.4318 179.059 17.0668 178.207 17.5142C177.354 17.9574 176.379 18.179 175.279 18.179C174.052 18.179 172.974 17.9084 172.045 17.3672C171.116 16.8217 170.391 16.0483 169.871 15.0469C169.356 14.0412 169.098 12.848 169.098 11.4673C169.098 10.4062 169.251 9.46023 169.558 8.62926C169.869 7.79403 170.304 7.08665 170.862 6.5071C171.42 5.92756 172.07 5.48651 172.812 5.18395C173.553 4.88139 174.357 4.73011 175.222 4.73011C175.963 4.73011 176.653 4.83878 177.293 5.05611C177.932 5.26918 178.499 5.57173 178.993 5.96378C179.491 6.35582 179.898 6.82244 180.214 7.36364C180.529 7.90057 180.732 8.4929 180.821 9.14062H178.009ZM185.77 18.1854C185.144 18.1854 184.585 18.0767 184.095 17.8594C183.605 17.6378 183.218 17.3118 182.932 16.8814C182.651 16.4467 182.51 15.9055 182.51 15.2578C182.51 14.7124 182.61 14.2543 182.811 13.8835C183.011 13.5128 183.284 13.2145 183.629 12.9886C183.974 12.7628 184.366 12.5923 184.805 12.4773C185.248 12.3622 185.713 12.2812 186.198 12.2344C186.769 12.1747 187.23 12.1193 187.579 12.0682C187.928 12.0128 188.182 11.9318 188.34 11.8253C188.497 11.7187 188.576 11.5611 188.576 11.3523V11.3139C188.576 10.9091 188.448 10.5959 188.193 10.3743C187.941 10.1527 187.583 10.0419 187.119 10.0419C186.629 10.0419 186.239 10.1506 185.949 10.3679C185.659 10.581 185.468 10.8494 185.374 11.1733L182.855 10.9688C182.983 10.3722 183.235 9.85653 183.61 9.42188C183.985 8.98295 184.468 8.64631 185.061 8.41193C185.657 8.1733 186.347 8.05398 187.132 8.05398C187.677 8.05398 188.199 8.1179 188.698 8.24574C189.2 8.37358 189.646 8.57173 190.034 8.8402C190.426 9.10866 190.735 9.45384 190.96 9.87571C191.186 10.2933 191.299 10.794 191.299 11.3778V18H188.717V16.6385H188.64C188.482 16.9453 188.271 17.2159 188.007 17.4503C187.743 17.6804 187.426 17.8615 187.055 17.9936C186.684 18.1214 186.256 18.1854 185.77 18.1854ZM186.55 16.3061C186.95 16.3061 187.304 16.2273 187.611 16.0696C187.918 15.9077 188.159 15.6903 188.333 15.4176C188.508 15.1449 188.595 14.8359 188.595 14.4908V13.4489C188.51 13.5043 188.393 13.5554 188.244 13.6023C188.099 13.6449 187.935 13.6854 187.752 13.7237C187.568 13.7578 187.385 13.7898 187.202 13.8196C187.019 13.8452 186.852 13.8686 186.703 13.8899C186.384 13.9368 186.105 14.0114 185.866 14.1136C185.627 14.2159 185.442 14.3544 185.31 14.5291C185.178 14.6996 185.112 14.9126 185.112 15.1683C185.112 15.5391 185.246 15.8224 185.514 16.0185C185.787 16.2102 186.132 16.3061 186.55 16.3061ZM196.135 4.90909V18H193.412V4.90909H196.135ZM198.316 18V8.18182H201.039V18H198.316ZM199.684 6.91619C199.279 6.91619 198.932 6.78196 198.642 6.51349C198.357 6.24077 198.214 5.91477 198.214 5.53551C198.214 5.16051 198.357 4.83878 198.642 4.57031C198.932 4.29758 199.279 4.16122 199.684 4.16122C200.089 4.16122 200.434 4.29758 200.719 4.57031C201.009 4.83878 201.154 5.16051 201.154 5.53551C201.154 5.91477 201.009 6.24077 200.719 6.51349C200.434 6.78196 200.089 6.91619 199.684 6.91619ZM207.656 18.1918C206.651 18.1918 205.786 17.9787 205.061 17.5526C204.341 17.1222 203.787 16.5256 203.399 15.7628C203.016 15 202.824 14.1222 202.824 13.1293C202.824 12.1236 203.018 11.2415 203.406 10.483C203.798 9.72017 204.354 9.12571 205.074 8.69957C205.794 8.26918 206.651 8.05398 207.644 8.05398C208.5 8.05398 209.25 8.20952 209.894 8.5206C210.537 8.83168 211.046 9.26847 211.421 9.83097C211.796 10.3935 212.003 11.054 212.041 11.8125H209.472C209.399 11.3224 209.208 10.9283 208.896 10.63C208.59 10.3274 208.187 10.1761 207.688 10.1761C207.267 10.1761 206.898 10.2912 206.583 10.5213C206.271 10.7472 206.029 11.0774 205.854 11.5121C205.679 11.9467 205.592 12.473 205.592 13.0909C205.592 13.7173 205.677 14.25 205.847 14.6889C206.022 15.1278 206.267 15.4624 206.583 15.6925C206.898 15.9226 207.267 16.0376 207.688 16.0376C207.999 16.0376 208.279 15.9737 208.526 15.8459C208.777 15.718 208.984 15.5327 209.146 15.2898C209.312 15.0426 209.421 14.7464 209.472 14.4013H212.041C211.999 15.1513 211.794 15.8118 211.428 16.3828C211.066 16.9496 210.565 17.3928 209.926 17.7124C209.286 18.032 208.53 18.1918 207.656 18.1918ZM213.785 18V8.18182H216.508V18H213.785ZM215.153 6.91619C214.748 6.91619 214.401 6.78196 214.111 6.51349C213.825 6.24077 213.683 5.91477 213.683 5.53551C213.683 5.16051 213.825 4.83878 214.111 4.57031C214.401 4.29758 214.748 4.16122 215.153 4.16122C215.558 4.16122 215.903 4.29758 216.188 4.57031C216.478 4.83878 216.623 5.16051 216.623 5.53551C216.623 5.91477 216.478 6.24077 216.188 6.51349C215.903 6.78196 215.558 6.91619 215.153 6.91619ZM221.489 18.1854C220.862 18.1854 220.304 18.0767 219.814 17.8594C219.324 17.6378 218.936 17.3118 218.651 16.8814C218.369 16.4467 218.229 15.9055 218.229 15.2578C218.229 14.7124 218.329 14.2543 218.529 13.8835C218.73 13.5128 219.002 13.2145 219.347 12.9886C219.693 12.7628 220.085 12.5923 220.524 12.4773C220.967 12.3622 221.431 12.2812 221.917 12.2344C222.488 12.1747 222.948 12.1193 223.298 12.0682C223.647 12.0128 223.901 11.9318 224.058 11.8253C224.216 11.7187 224.295 11.5611 224.295 11.3523V11.3139C224.295 10.9091 224.167 10.5959 223.911 10.3743C223.66 10.1527 223.302 10.0419 222.838 10.0419C222.347 10.0419 221.958 10.1506 221.668 10.3679C221.378 10.581 221.186 10.8494 221.093 11.1733L218.574 10.9688C218.702 10.3722 218.953 9.85653 219.328 9.42188C219.703 8.98295 220.187 8.64631 220.779 8.41193C221.376 8.1733 222.066 8.05398 222.85 8.05398C223.396 8.05398 223.918 8.1179 224.416 8.24574C224.919 8.37358 225.365 8.57173 225.752 8.8402C226.144 9.10866 226.453 9.45384 226.679 9.87571C226.905 10.2933 227.018 10.794 227.018 11.3778V18H224.436V16.6385H224.359C224.201 16.9453 223.99 17.2159 223.726 17.4503C223.462 17.6804 223.144 17.8615 222.774 17.9936C222.403 18.1214 221.975 18.1854 221.489 18.1854ZM222.269 16.3061C222.669 16.3061 223.023 16.2273 223.33 16.0696C223.637 15.9077 223.877 15.6903 224.052 15.4176C224.227 15.1449 224.314 14.8359 224.314 14.4908V13.4489C224.229 13.5043 224.112 13.5554 223.963 13.6023C223.818 13.6449 223.654 13.6854 223.47 13.7237C223.287 13.7578 223.104 13.7898 222.921 13.8196C222.737 13.8452 222.571 13.8686 222.422 13.8899C222.102 13.9368 221.823 14.0114 221.585 14.1136C221.346 14.2159 221.161 14.3544 221.029 14.5291C220.896 14.6996 220.83 14.9126 220.83 15.1683C220.83 15.5391 220.965 15.8224 221.233 16.0185C221.506 16.2102 221.851 16.3061 222.269 16.3061ZM232.547 5.68722V4.14545H239.186V5.68722H236.804V12H234.933V5.68722H232.547ZM240.437 4.14545H242.788L244.783 9.00852H244.875L246.869 4.14545H249.22V12H247.371V7.17528H247.306L245.419 11.9501H244.238L242.351 7.14844H242.286V12H240.437V4.14545ZM195.513 22.6903V44.2188H192.93V22.6903H195.513ZM198.73 40V26.9091H207.551V29.1911H201.497V32.3104H207.097V34.5923H201.497V37.718H207.576V40H198.73ZM216.853 30.674C216.801 30.1584 216.582 29.7578 216.194 29.4723C215.806 29.1868 215.28 29.044 214.615 29.044C214.164 29.044 213.782 29.108 213.471 29.2358C213.16 29.3594 212.922 29.532 212.755 29.7536C212.593 29.9751 212.512 30.2266 212.512 30.5078C212.504 30.7422 212.553 30.9467 212.659 31.1214C212.77 31.2962 212.922 31.4474 213.113 31.5753C213.305 31.6989 213.527 31.8075 213.778 31.9013C214.029 31.9908 214.298 32.0675 214.583 32.1314L215.76 32.4126C216.331 32.5405 216.855 32.7109 217.332 32.924C217.809 33.1371 218.223 33.3991 218.572 33.7102C218.922 34.0213 219.192 34.3878 219.384 34.8097C219.58 35.2315 219.68 35.7152 219.684 36.2607C219.68 37.0618 219.475 37.7564 219.071 38.3445C218.67 38.9283 218.091 39.3821 217.332 39.706C216.578 40.0256 215.668 40.1854 214.603 40.1854C213.546 40.1854 212.625 40.0234 211.841 39.6996C211.061 39.3757 210.452 38.8963 210.013 38.2614C209.578 37.6222 209.35 36.8317 209.329 35.8899H212.007C212.037 36.3288 212.163 36.6953 212.385 36.9893C212.61 37.2791 212.911 37.4986 213.286 37.6477C213.665 37.7926 214.093 37.8651 214.571 37.8651C215.039 37.8651 215.446 37.7969 215.792 37.6605C216.141 37.5241 216.412 37.3345 216.603 37.0916C216.795 36.8487 216.891 36.5696 216.891 36.2543C216.891 35.9602 216.804 35.7131 216.629 35.5128C216.458 35.3125 216.207 35.142 215.875 35.0014C215.547 34.8608 215.144 34.733 214.667 34.6179L213.241 34.2599C212.137 33.9915 211.266 33.5717 210.627 33.0007C209.988 32.4297 209.67 31.6605 209.674 30.6932C209.67 29.9006 209.881 29.2081 210.307 28.6158C210.738 28.0234 211.328 27.5611 212.078 27.2287C212.828 26.8963 213.68 26.7301 214.635 26.7301C215.606 26.7301 216.454 26.8963 217.179 27.2287C217.907 27.5611 218.474 28.0234 218.879 28.6158C219.284 29.2081 219.493 29.8942 219.505 30.674H216.853ZM225.062 22.6903V44.2188H222.479V22.6903H225.062Z" fill="white"/>
<path d="M1.48278 191H0.639027L5.36275 177.909H6.2832L11.0069 191H10.1632L5.85494 178.938H5.79102L1.48278 191ZM2.67809 186.071H8.96786V186.813H2.67809V186.071ZM28.4828 182H27.6646C27.5794 181.557 27.4196 181.128 27.1852 180.715C26.9508 180.297 26.6483 179.922 26.2775 179.59C25.911 179.253 25.4849 178.987 24.9991 178.791C24.5133 178.595 23.9764 178.497 23.3883 178.497C22.5275 178.497 21.7349 178.727 21.0105 179.187C20.2903 179.643 19.7129 180.314 19.2782 181.201C18.8478 182.087 18.6326 183.172 18.6326 184.454C18.6326 185.745 18.8478 186.834 19.2782 187.721C19.7129 188.607 20.2903 189.278 21.0105 189.734C21.7349 190.186 22.5275 190.412 23.3883 190.412C23.9764 190.412 24.5133 190.316 24.9991 190.124C25.4849 189.928 25.911 189.664 26.2775 189.331C26.6483 188.995 26.9508 188.618 27.1852 188.2C27.4196 187.782 27.5794 187.352 27.6646 186.909H28.4828C28.389 187.437 28.2079 187.955 27.9395 188.462C27.6752 188.969 27.3258 189.429 26.8912 189.843C26.4608 190.252 25.9515 190.578 25.3635 190.821C24.7797 191.059 24.1213 191.179 23.3883 191.179C22.2974 191.179 21.3365 190.902 20.5055 190.348C19.6745 189.79 19.0225 189.005 18.5495 187.995C18.0808 186.986 17.8464 185.805 17.8464 184.454C17.8464 183.103 18.0808 181.923 18.5495 180.913C19.0225 179.903 19.6745 179.121 20.5055 178.567C21.3365 178.009 22.2974 177.73 23.3883 177.73C24.1213 177.73 24.7797 177.851 25.3635 178.094C25.9515 178.333 26.4608 178.657 26.8912 179.066C27.3258 179.471 27.6752 179.927 27.9395 180.434C28.2079 180.941 28.389 181.463 28.4828 182ZM34.9292 191.204C34.1195 191.204 33.3993 190.987 32.7686 190.552C32.138 190.113 31.6415 189.51 31.2793 188.743C30.9171 187.976 30.736 187.103 30.736 186.123C30.736 185.138 30.9171 184.265 31.2793 183.502C31.6415 182.735 32.138 182.132 32.7686 181.693C33.3993 181.254 34.1195 181.035 34.9292 181.035C35.7388 181.035 36.459 181.254 37.0897 181.693C37.7203 182.132 38.2168 182.735 38.579 183.502C38.9412 184.269 39.1223 185.143 39.1223 186.123C39.1223 187.103 38.9412 187.976 38.579 188.743C38.2168 189.51 37.7203 190.113 37.0897 190.552C36.459 190.987 35.7388 191.204 34.9292 191.204ZM34.9292 190.482C35.6152 190.482 36.214 190.288 36.7253 189.9C37.2409 189.513 37.6394 188.988 37.9206 188.328C38.2061 187.667 38.3489 186.932 38.3489 186.123C38.3489 185.313 38.2061 184.58 37.9206 183.924C37.6351 183.263 37.2367 182.739 36.7253 182.351C36.214 181.959 35.6152 181.763 34.9292 181.763C34.2431 181.763 33.6444 181.959 33.133 182.351C32.6216 182.739 32.2232 183.263 31.9377 183.924C31.6522 184.58 31.5094 185.313 31.5094 186.123C31.5094 186.932 31.65 187.667 31.9313 188.328C32.2168 188.988 32.6152 189.513 33.1266 189.9C33.6422 190.288 34.2431 190.482 34.9292 190.482ZM41.8086 191V181.182H42.5692V182.716H42.6396C42.8526 182.213 43.2127 181.81 43.7198 181.508C44.2269 181.201 44.8043 181.047 45.4521 181.047C45.5202 181.047 45.5884 181.047 45.6566 181.047C45.7248 181.047 45.7887 181.049 45.8484 181.054V181.84C45.7972 181.836 45.7354 181.829 45.663 181.821C45.5948 181.808 45.5096 181.802 45.4073 181.802C44.8619 181.802 44.3761 181.919 43.9499 182.153C43.5281 182.388 43.1957 182.711 42.9528 183.125C42.7099 183.534 42.5884 184.003 42.5884 184.531V191H41.8086ZM54.2331 187.516V181.182H55.013V191H54.2331V189.408H54.1692C53.9391 189.915 53.5662 190.329 53.0506 190.648C52.5392 190.968 51.9341 191.128 51.2353 191.128C50.5918 191.128 50.0229 190.987 49.5286 190.706C49.0343 190.424 48.6465 190.026 48.3652 189.51C48.084 188.991 47.9434 188.373 47.9434 187.657V181.182H48.7232V187.625C48.7232 188.443 48.9703 189.106 49.4647 189.613C49.9632 190.116 50.6067 190.367 51.3951 190.367C51.9064 190.367 52.3773 190.252 52.8077 190.022C53.2381 189.792 53.5833 189.464 53.8432 189.037C54.1032 188.607 54.2331 188.1 54.2331 187.516ZM59.024 184.633V191H58.2441V181.182H59.0048V182.735H59.0815C59.3116 182.228 59.6802 181.821 60.1873 181.514C60.6944 181.207 61.2974 181.054 61.9963 181.054C62.6568 181.054 63.2363 181.194 63.7349 181.476C64.2377 181.757 64.6298 182.157 64.911 182.677C65.1966 183.193 65.3393 183.809 65.3393 184.525V191H64.5595V184.557C64.5595 183.721 64.3102 183.05 63.8116 182.543C63.3173 182.032 62.6632 181.776 61.8493 181.776C61.3038 181.776 60.818 181.895 60.3919 182.134C59.9657 182.373 59.6312 182.707 59.3883 183.138C59.1454 183.564 59.024 184.062 59.024 184.633ZM59.465 179.647L58.8002 179.596C58.8386 179.111 59.024 178.716 59.3564 178.414C59.693 178.107 60.0978 177.954 60.5708 177.954C60.8478 177.954 61.0886 178.003 61.2931 178.101C61.4977 178.199 61.6873 178.312 61.862 178.439C62.0368 178.563 62.2136 178.676 62.3926 178.778C62.5758 178.876 62.7846 178.925 63.019 178.925C63.2917 178.925 63.5389 178.834 63.7605 178.65C63.9821 178.463 64.1142 178.224 64.1568 177.934L64.8152 178.037C64.7512 178.518 64.5488 178.904 64.2079 179.194C63.8713 179.483 63.4835 179.628 63.0446 179.628C62.7633 179.628 62.5247 179.579 62.3287 179.481C62.1369 179.383 61.9579 179.272 61.7917 179.149C61.6255 179.021 61.4508 178.908 61.2676 178.81C61.0843 178.708 60.8606 178.657 60.5964 178.657C60.2939 178.657 60.036 178.753 59.823 178.944C59.6099 179.132 59.4906 179.366 59.465 179.647ZM71.1816 191.211C70.6149 191.211 70.095 191.098 69.622 190.872C69.1532 190.646 68.7761 190.316 68.4906 189.881C68.2093 189.446 68.0687 188.918 68.0687 188.296C68.0687 187.887 68.1412 187.527 68.286 187.216C68.4309 186.905 68.6547 186.636 68.9572 186.41C69.2598 186.184 69.6475 185.999 70.1206 185.854C70.5936 185.705 71.1582 185.59 71.8145 185.509C72.313 185.449 72.7583 185.392 73.1504 185.336C73.5424 185.277 73.8493 185.185 74.0708 185.062C74.2967 184.938 74.4096 184.75 74.4096 184.499V184.09C74.4096 183.374 74.1838 182.805 73.7321 182.383C73.2804 181.961 72.6582 181.75 71.8656 181.75C71.1625 181.75 70.5701 181.906 70.0886 182.217C69.6113 182.524 69.2768 182.92 69.085 183.406L68.35 183.131C68.5375 182.662 68.8081 182.272 69.1618 181.961C69.5197 181.65 69.9288 181.418 70.389 181.265C70.8535 181.111 71.3393 181.035 71.8464 181.035C72.2853 181.035 72.7029 181.096 73.0993 181.22C73.4998 181.344 73.8556 181.531 74.1667 181.782C74.4821 182.034 74.7314 182.356 74.9146 182.748C75.0978 183.135 75.1895 183.6 75.1895 184.141V191H74.4096V189.229H74.3521C74.1816 189.596 73.9473 189.93 73.649 190.233C73.3549 190.531 72.9991 190.77 72.5815 190.949C72.1681 191.123 71.7015 191.211 71.1816 191.211ZM71.2583 190.488C71.872 190.488 72.4153 190.339 72.8883 190.041C73.3656 189.738 73.7385 189.325 74.0069 188.801C74.2754 188.277 74.4096 187.682 74.4096 187.018V185.573C74.3116 185.658 74.1689 185.735 73.9814 185.803C73.7981 185.867 73.5893 185.924 73.3549 185.976C73.1248 186.022 72.8819 186.065 72.6262 186.103C72.3748 186.138 72.1298 186.169 71.8912 186.199C71.1752 186.285 70.5914 186.417 70.1397 186.596C69.6923 186.77 69.3642 187 69.1554 187.286C68.9508 187.571 68.8485 187.917 68.8485 188.321C68.8485 188.991 69.0787 189.519 69.5389 189.907C69.9991 190.295 70.5723 190.488 71.2583 190.488ZM27.838 195.69V217.219H27.1412V195.69H27.838ZM32.0024 213V199.909H39.2893V200.65H32.8014V206.077H38.8994V206.819H32.8014V212.258H39.4427V213H32.0024ZM49.6588 203.182C49.5906 202.368 49.2583 201.709 48.6617 201.206C48.0693 200.704 47.3023 200.452 46.3605 200.452C45.7256 200.452 45.161 200.569 44.6666 200.804C44.1723 201.038 43.7845 201.358 43.5033 201.763C43.222 202.167 43.0814 202.632 43.0814 203.156C43.0814 203.493 43.1453 203.797 43.2732 204.07C43.4053 204.339 43.5906 204.579 43.8293 204.792C44.0679 205.001 44.3513 205.184 44.6794 205.342C45.0075 205.5 45.3698 205.638 45.7661 205.758L47.1979 206.179C47.6879 206.329 48.1396 206.501 48.553 206.697C48.9706 206.893 49.3328 207.128 49.6396 207.4C49.9507 207.669 50.1915 207.984 50.362 208.346C50.5367 208.709 50.624 209.126 50.624 209.599C50.624 210.29 50.445 210.907 50.0871 211.453C49.7334 211.998 49.2284 212.429 48.5722 212.744C47.9202 213.055 47.151 213.211 46.2646 213.211C45.4209 213.211 44.6858 213.068 44.0594 212.782C43.4372 212.497 42.945 212.101 42.5828 211.594C42.2206 211.082 42.0161 210.494 41.9692 209.829H42.7874C42.83 210.37 43.0026 210.839 43.3051 211.236C43.6119 211.628 44.0189 211.93 44.526 212.143C45.0331 212.356 45.6127 212.463 46.2646 212.463C46.9678 212.463 47.5878 212.344 48.1247 212.105C48.6617 211.862 49.0814 211.525 49.384 211.095C49.6865 210.665 49.8378 210.164 49.8378 209.593C49.8378 209.133 49.7291 208.738 49.5118 208.41C49.2945 208.082 48.9727 207.799 48.5466 207.56C48.1247 207.321 47.6006 207.108 46.9742 206.921L45.4465 206.461C44.4237 206.15 43.6418 205.726 43.1006 205.189C42.5637 204.652 42.2952 203.983 42.2952 203.182C42.2952 202.508 42.4742 201.912 42.8321 201.392C43.1901 200.868 43.6759 200.456 44.2895 200.158C44.9074 199.86 45.6041 199.711 46.3797 199.711C47.1595 199.711 47.8477 199.862 48.4443 200.165C49.0409 200.463 49.5139 200.874 49.8634 201.398C50.2128 201.918 50.4067 202.513 50.445 203.182H49.6588ZM54.8556 195.69V217.219H54.1588V195.69H54.8556Z" fill="white"/>
<circle cx="206.5" cy="612.5" r="9.5" transform="rotate(90 206.5 612.5)" fill="white"/>
<line x1="327" y1="613.5" x2="86" y2="613.5" stroke="#F2F2F2"/>
<path d="M21.0678 595.909H21.9371L26.9805 607.849H27.07L32.1133 595.909H32.9826V609H32.2156V597.808H32.1389L27.4023 609H26.6481L21.9116 597.808H21.8349V609H21.0678V595.909ZM39.0918 609.211C38.525 609.211 38.0051 609.098 37.5321 608.872C37.0634 608.646 36.6863 608.316 36.4007 607.881C36.1195 607.447 35.9789 606.918 35.9789 606.296C35.9789 605.887 36.0513 605.527 36.1962 605.216C36.3411 604.905 36.5648 604.636 36.8674 604.411C37.1699 604.185 37.5577 603.999 38.0307 603.854C38.5037 603.705 39.0684 603.59 39.7246 603.509C40.2232 603.45 40.6685 603.392 41.0605 603.337C41.4526 603.277 41.7594 603.185 41.981 603.062C42.2069 602.938 42.3198 602.751 42.3198 602.499V602.09C42.3198 601.374 42.0939 600.805 41.6422 600.384C41.1905 599.962 40.5684 599.751 39.7757 599.751C39.0726 599.751 38.4803 599.906 37.9988 600.217C37.5215 600.524 37.187 600.92 36.9952 601.406L36.2601 601.131C36.4476 600.663 36.7182 600.273 37.0719 599.962C37.4299 599.651 37.839 599.418 38.2992 599.265C38.7637 599.112 39.2495 599.035 39.7566 599.035C40.1955 599.035 40.6131 599.097 41.0094 599.22C41.41 599.344 41.7658 599.531 42.0769 599.783C42.3922 600.034 42.6415 600.356 42.8248 600.748C43.008 601.136 43.0996 601.6 43.0996 602.141V609H42.3198V607.229H42.2623C42.0918 607.596 41.8574 607.93 41.5591 608.233C41.2651 608.531 40.9093 608.77 40.4917 608.949C40.0783 609.124 39.6117 609.211 39.0918 609.211ZM39.1685 608.489C39.7821 608.489 40.3255 608.339 40.7985 608.041C41.2757 607.739 41.6486 607.325 41.9171 606.801C42.1855 606.277 42.3198 605.683 42.3198 605.018V603.573C42.2218 603.658 42.079 603.735 41.8915 603.803C41.7083 603.867 41.4995 603.925 41.2651 603.976C41.035 604.023 40.7921 604.065 40.5364 604.104C40.285 604.138 40.04 604.17 39.8013 604.2C39.0854 604.285 38.5016 604.417 38.0499 604.596C37.6025 604.771 37.2743 605.001 37.0655 605.286C36.861 605.572 36.7587 605.917 36.7587 606.322C36.7587 606.991 36.9888 607.519 37.449 607.907C37.9093 608.295 38.4824 608.489 39.1685 608.489ZM49.7377 609.205C48.9494 609.205 48.2612 608.987 47.6731 608.553C47.085 608.118 46.6291 607.519 46.3052 606.756C45.9856 605.989 45.8258 605.109 45.8258 604.116C45.8258 603.132 45.9877 602.259 46.3116 601.496C46.6397 600.729 47.0978 600.128 47.6859 599.693C48.274 599.254 48.96 599.035 49.7441 599.035C50.3066 599.035 50.7946 599.143 51.2079 599.361C51.6255 599.574 51.975 599.857 52.2562 600.211C52.5417 600.565 52.7591 600.952 52.9082 601.374H52.9849V595.909H53.7583V609H53.0041V606.859H52.9082C52.7505 607.281 52.5311 607.67 52.2498 608.028C51.9686 608.382 51.6191 608.668 51.2015 608.885C50.7839 609.098 50.296 609.205 49.7377 609.205ZM49.8081 608.482C50.4728 608.482 51.0417 608.293 51.5147 607.913C51.992 607.53 52.3564 607.01 52.6078 606.354C52.8635 605.693 52.9913 604.945 52.9913 604.11C52.9913 603.275 52.8635 602.531 52.6078 601.879C52.3564 601.223 51.992 600.707 51.5147 600.332C51.0417 599.953 50.4728 599.763 49.8081 599.763C49.1348 599.763 48.5574 599.955 48.0758 600.339C47.5985 600.718 47.2321 601.236 46.9764 601.892C46.725 602.548 46.5993 603.288 46.5993 604.11C46.5993 604.933 46.725 605.674 46.9764 606.335C47.2321 606.995 47.5985 607.519 48.0758 607.907C48.5574 608.29 49.1348 608.482 49.8081 608.482ZM57.2676 609V599.182H58.0282V600.716H58.0985C58.3116 600.213 58.6717 599.81 59.1788 599.508C59.6859 599.201 60.2633 599.048 60.911 599.048C60.9792 599.048 61.0474 599.048 61.1156 599.048C61.1838 599.048 61.2477 599.05 61.3074 599.054V599.84C61.2562 599.836 61.1944 599.83 61.122 599.821C61.0538 599.808 60.9686 599.802 60.8663 599.802C60.3208 599.802 59.835 599.919 59.4089 600.153C58.987 600.388 58.6547 600.712 58.4118 601.125C58.1689 601.534 58.0474 602.003 58.0474 602.531V609H57.2676ZM63.4407 609V599.182H64.2141V609H63.4407ZM63.8306 597.443C63.6602 597.443 63.511 597.384 63.3832 597.264C63.2596 597.145 63.1978 597 63.1978 596.83C63.1978 596.659 63.2596 596.514 63.3832 596.395C63.5067 596.276 63.6559 596.216 63.8306 596.216C64.0011 596.216 64.1481 596.276 64.2717 596.395C64.3995 596.514 64.4634 596.659 64.4634 596.83C64.4634 597 64.4016 597.145 64.2781 597.264C64.1545 597.384 64.0053 597.443 63.8306 597.443ZM70.8491 609.205C70.0607 609.205 69.3725 608.987 68.7844 608.553C68.1964 608.118 67.7404 607.519 67.4165 606.756C67.0969 605.989 66.9371 605.109 66.9371 604.116C66.9371 603.132 67.0991 602.259 67.4229 601.496C67.7511 600.729 68.2092 600.128 68.7972 599.693C69.3853 599.254 70.0714 599.035 70.8555 599.035C71.418 599.035 71.9059 599.143 72.3192 599.361C72.7369 599.574 73.0863 599.857 73.3675 600.211C73.6531 600.565 73.8704 600.952 74.0195 601.374H74.0962V595.909H74.8697V609H74.1154V606.859H74.0195C73.8619 607.281 73.6424 607.67 73.3612 608.028C73.0799 608.382 72.7305 608.668 72.3129 608.885C71.8952 609.098 71.4073 609.205 70.8491 609.205ZM70.9194 608.482C71.5842 608.482 72.1531 608.293 72.6261 607.913C73.1033 607.53 73.4677 607.01 73.7191 606.354C73.9748 605.693 74.1026 604.945 74.1026 604.11C74.1026 603.275 73.9748 602.531 73.7191 601.879C73.4677 601.223 73.1033 600.707 72.6261 600.332C72.1531 599.953 71.5842 599.763 70.9194 599.763C70.2461 599.763 69.6687 599.955 69.1871 600.339C68.7099 600.718 68.3434 601.236 68.0877 601.892C67.8363 602.548 67.7106 603.288 67.7106 604.11C67.7106 604.933 67.8363 605.674 68.0877 606.335C68.3434 606.995 68.7099 607.519 69.1871 607.907C69.6687 608.29 70.2461 608.482 70.9194 608.482ZM37.338 613.69V635.219H36.6412V613.69H37.338ZM41.5024 631V617.909H48.7893V618.651H42.3014V624.077H48.3994V624.819H42.3014V630.259H48.9427V631H41.5024ZM59.1588 621.182C59.0906 620.368 58.7583 619.71 58.1617 619.207C57.5693 618.704 56.8023 618.452 55.8605 618.452C55.2256 618.452 54.661 618.57 54.1666 618.804C53.6723 619.038 53.2845 619.358 53.0033 619.763C52.722 620.168 52.5814 620.632 52.5814 621.156C52.5814 621.493 52.6453 621.798 52.7732 622.07C52.9053 622.339 53.0906 622.58 53.3293 622.793C53.5679 623.001 53.8513 623.185 54.1794 623.342C54.5075 623.5 54.8698 623.638 55.2661 623.758L56.6979 624.18C57.1879 624.329 57.6396 624.501 58.053 624.697C58.4706 624.893 58.8328 625.128 59.1396 625.401C59.4507 625.669 59.6915 625.984 59.862 626.347C60.0367 626.709 60.124 627.126 60.124 627.599C60.124 628.29 59.945 628.908 59.5871 629.453C59.2334 629.999 58.7284 630.429 58.0722 630.744C57.4202 631.055 56.651 631.211 55.7646 631.211C54.9209 631.211 54.1858 631.068 53.5594 630.783C52.9372 630.497 52.445 630.101 52.0828 629.594C51.7206 629.082 51.5161 628.494 51.4692 627.83H52.2874C52.33 628.371 52.5026 628.839 52.8051 629.236C53.1119 629.628 53.5189 629.93 54.026 630.143C54.5331 630.357 55.1127 630.463 55.7646 630.463C56.4678 630.463 57.0878 630.344 57.6247 630.105C58.1617 629.862 58.5814 629.526 58.884 629.095C59.1865 628.665 59.3378 628.164 59.3378 627.593C59.3378 627.133 59.2291 626.739 59.0118 626.411C58.7945 626.082 58.4727 625.799 58.0466 625.56C57.6247 625.322 57.1006 625.109 56.4742 624.921L54.9465 624.461C53.9237 624.15 53.1418 623.726 52.6006 623.189C52.0637 622.652 51.7952 621.983 51.7952 621.182C51.7952 620.509 51.9742 619.912 52.3321 619.392C52.6901 618.868 53.1759 618.457 53.7895 618.158C54.4074 617.86 55.1041 617.711 55.8797 617.711C56.6595 617.711 57.3477 617.862 57.9443 618.165C58.5409 618.463 59.0139 618.874 59.3634 619.398C59.7128 619.918 59.9067 620.513 59.945 621.182H59.1588ZM64.3556 613.69V635.219H63.6588V613.69H64.3556Z" fill="white"/>
<path d="M283 482L149 481" stroke="#F2F2F2"/>
<path d="M68.4828 477H67.639L72.3627 463.909H73.2832L78.0069 477H77.1632L72.8549 464.938H72.791L68.4828 477ZM69.6781 472.072H75.9679V472.813H69.6781V472.072ZM95.4828 468H94.6646C94.5794 467.557 94.4196 467.129 94.1852 466.715C93.9508 466.298 93.6483 465.923 93.2775 465.59C92.911 465.254 92.4849 464.987 91.9991 464.791C91.5133 464.595 90.9764 464.497 90.3883 464.497C89.5275 464.497 88.7349 464.727 88.0105 465.188C87.2903 465.643 86.7129 466.315 86.2782 467.201C85.8478 468.087 85.6326 469.172 85.6326 470.455C85.6326 471.746 85.8478 472.835 86.2782 473.721C86.7129 474.607 87.2903 475.278 88.0105 475.734C88.7349 476.186 89.5275 476.412 90.3883 476.412C90.9764 476.412 91.5133 476.316 91.9991 476.124C92.4849 475.928 92.911 475.664 93.2775 475.332C93.6483 474.995 93.9508 474.618 94.1852 474.2C94.4196 473.783 94.5794 473.352 94.6646 472.909H95.4828C95.389 473.437 95.2079 473.955 94.9395 474.462C94.6752 474.969 94.3258 475.43 93.8912 475.843C93.4608 476.252 92.9515 476.578 92.3635 476.821C91.7797 477.06 91.1213 477.179 90.3883 477.179C89.2974 477.179 88.3365 476.902 87.5055 476.348C86.6745 475.79 86.0225 475.006 85.5495 473.996C85.0808 472.986 84.8464 471.805 84.8464 470.455C84.8464 469.104 85.0808 467.923 85.5495 466.913C86.0225 465.903 86.6745 465.121 87.5055 464.567C88.3365 464.009 89.2974 463.73 90.3883 463.73C91.1213 463.73 91.7797 463.852 92.3635 464.094C92.9515 464.333 93.4608 464.657 93.8912 465.066C94.3258 465.471 94.6752 465.927 94.9395 466.434C95.2079 466.941 95.389 467.463 95.4828 468ZM101.929 477.205C101.119 477.205 100.399 476.987 99.7686 476.553C99.138 476.114 98.6415 475.511 98.2793 474.744C97.9171 473.977 97.736 473.103 97.736 472.123C97.736 471.138 97.9171 470.265 98.2793 469.502C98.6415 468.735 99.138 468.132 99.7686 467.693C100.399 467.254 101.119 467.035 101.929 467.035C102.739 467.035 103.459 467.254 104.09 467.693C104.72 468.132 105.217 468.735 105.579 469.502C105.941 470.269 106.122 471.143 106.122 472.123C106.122 473.103 105.941 473.977 105.579 474.744C105.217 475.511 104.72 476.114 104.09 476.553C103.459 476.987 102.739 477.205 101.929 477.205ZM101.929 476.482C102.615 476.482 103.214 476.288 103.725 475.901C104.241 475.513 104.639 474.989 104.921 474.328C105.206 473.668 105.349 472.933 105.349 472.123C105.349 471.313 105.206 470.58 104.921 469.924C104.635 469.263 104.237 468.739 103.725 468.352C103.214 467.96 102.615 467.763 101.929 467.763C101.243 467.763 100.644 467.96 100.133 468.352C99.6216 468.739 99.2232 469.263 98.9377 469.924C98.6522 470.58 98.5094 471.313 98.5094 472.123C98.5094 472.933 98.65 473.668 98.9313 474.328C99.2168 474.989 99.6152 475.513 100.127 475.901C100.642 476.288 101.243 476.482 101.929 476.482ZM108.809 477V467.182H109.569V468.716H109.64C109.853 468.213 110.213 467.81 110.72 467.508C111.227 467.201 111.804 467.048 112.452 467.048C112.52 467.048 112.588 467.048 112.657 467.048C112.725 467.048 112.789 467.05 112.848 467.054V467.84C112.797 467.836 112.735 467.83 112.663 467.821C112.595 467.808 112.51 467.802 112.407 467.802C111.862 467.802 111.376 467.919 110.95 468.153C110.528 468.388 110.196 468.712 109.953 469.125C109.71 469.534 109.588 470.003 109.588 470.531V477H108.809ZM121.233 473.516V467.182H122.013V477H121.233V475.408H121.169C120.939 475.915 120.566 476.329 120.051 476.648C119.539 476.968 118.934 477.128 118.235 477.128C117.592 477.128 117.023 476.987 116.529 476.706C116.034 476.425 115.646 476.026 115.365 475.511C115.084 474.991 114.943 474.373 114.943 473.657V467.182H115.723V473.625C115.723 474.443 115.97 475.106 116.465 475.613C116.963 476.116 117.607 476.367 118.395 476.367C118.906 476.367 119.377 476.252 119.808 476.022C120.238 475.792 120.583 475.464 120.843 475.038C121.103 474.607 121.233 474.1 121.233 473.516ZM126.024 470.634V477H125.244V467.182H126.005V468.735H126.081C126.312 468.228 126.68 467.821 127.187 467.514C127.694 467.207 128.297 467.054 128.996 467.054C129.657 467.054 130.236 467.195 130.735 467.476C131.238 467.757 131.63 468.158 131.911 468.678C132.197 469.193 132.339 469.809 132.339 470.525V477H131.559V470.557C131.559 469.722 131.31 469.05 130.812 468.543C130.317 468.032 129.663 467.776 128.849 467.776C128.304 467.776 127.818 467.896 127.392 468.134C126.966 468.373 126.631 468.707 126.388 469.138C126.145 469.564 126.024 470.062 126.024 470.634ZM126.465 465.648L125.8 465.597C125.839 465.111 126.024 464.717 126.356 464.414C126.693 464.107 127.098 463.954 127.571 463.954C127.848 463.954 128.089 464.003 128.293 464.101C128.498 464.199 128.687 464.312 128.862 464.44C129.037 464.563 129.214 464.676 129.393 464.778C129.576 464.876 129.785 464.925 130.019 464.925C130.292 464.925 130.539 464.834 130.76 464.651C130.982 464.463 131.114 464.224 131.157 463.935L131.815 464.037C131.751 464.518 131.549 464.904 131.208 465.194C130.871 465.484 130.483 465.629 130.045 465.629C129.763 465.629 129.525 465.58 129.329 465.482C129.137 465.384 128.958 465.273 128.792 465.149C128.626 465.021 128.451 464.908 128.268 464.81C128.084 464.708 127.861 464.657 127.596 464.657C127.294 464.657 127.036 464.753 126.823 464.945C126.61 465.132 126.491 465.366 126.465 465.648ZM138.182 477.211C137.615 477.211 137.095 477.098 136.622 476.872C136.153 476.646 135.776 476.316 135.491 475.881C135.209 475.447 135.069 474.918 135.069 474.296C135.069 473.887 135.141 473.527 135.286 473.216C135.431 472.905 135.655 472.636 135.957 472.411C136.26 472.185 136.648 471.999 137.121 471.854C137.594 471.705 138.158 471.59 138.814 471.509C139.313 471.45 139.758 471.392 140.15 471.337C140.542 471.277 140.849 471.185 141.071 471.062C141.297 470.938 141.41 470.751 141.41 470.499V470.09C141.41 469.374 141.184 468.805 140.732 468.384C140.28 467.962 139.658 467.751 138.866 467.751C138.162 467.751 137.57 467.906 137.089 468.217C136.611 468.524 136.277 468.92 136.085 469.406L135.35 469.131C135.537 468.663 135.808 468.273 136.162 467.962C136.52 467.651 136.929 467.418 137.389 467.265C137.854 467.112 138.339 467.035 138.846 467.035C139.285 467.035 139.703 467.097 140.099 467.22C140.5 467.344 140.856 467.531 141.167 467.783C141.482 468.034 141.731 468.356 141.915 468.748C142.098 469.136 142.189 469.6 142.189 470.141V477H141.41V475.229H141.352C141.182 475.596 140.947 475.93 140.649 476.233C140.355 476.531 139.999 476.77 139.581 476.949C139.168 477.124 138.702 477.211 138.182 477.211ZM138.258 476.489C138.872 476.489 139.415 476.339 139.888 476.041C140.366 475.739 140.738 475.325 141.007 474.801C141.275 474.277 141.41 473.683 141.41 473.018V471.573C141.312 471.658 141.169 471.735 140.981 471.803C140.798 471.867 140.589 471.925 140.355 471.976C140.125 472.023 139.882 472.065 139.626 472.104C139.375 472.138 139.13 472.17 138.891 472.2C138.175 472.285 137.591 472.417 137.14 472.596C136.692 472.771 136.364 473.001 136.155 473.286C135.951 473.572 135.849 473.917 135.849 474.322C135.849 474.991 136.079 475.519 136.539 475.907C136.999 476.295 137.572 476.489 138.258 476.489ZM94.838 481.69V503.219H94.1412V481.69H94.838ZM99.0024 499V485.909H106.289V486.651H99.8014V492.077H105.899V492.819H99.8014V498.259H106.443V499H99.0024ZM116.659 489.182C116.591 488.368 116.258 487.71 115.662 487.207C115.069 486.704 114.302 486.452 113.361 486.452C112.726 486.452 112.161 486.57 111.667 486.804C111.172 487.038 110.785 487.358 110.503 487.763C110.222 488.168 110.081 488.632 110.081 489.156C110.081 489.493 110.145 489.798 110.273 490.07C110.405 490.339 110.591 490.58 110.829 490.793C111.068 491.001 111.351 491.185 111.679 491.342C112.008 491.5 112.37 491.638 112.766 491.758L114.198 492.18C114.688 492.329 115.14 492.501 115.553 492.697C115.971 492.893 116.333 493.128 116.64 493.401C116.951 493.669 117.191 493.984 117.362 494.347C117.537 494.709 117.624 495.126 117.624 495.599C117.624 496.29 117.445 496.908 117.087 497.453C116.733 497.999 116.228 498.429 115.572 498.744C114.92 499.055 114.151 499.211 113.265 499.211C112.421 499.211 111.686 499.068 111.059 498.783C110.437 498.497 109.945 498.101 109.583 497.594C109.221 497.082 109.016 496.494 108.969 495.83H109.787C109.83 496.371 110.003 496.839 110.305 497.236C110.612 497.628 111.019 497.93 111.526 498.143C112.033 498.357 112.613 498.463 113.265 498.463C113.968 498.463 114.588 498.344 115.125 498.105C115.662 497.862 116.081 497.526 116.384 497.095C116.687 496.665 116.838 496.164 116.838 495.593C116.838 495.133 116.729 494.739 116.512 494.411C116.294 494.082 115.973 493.799 115.547 493.56C115.125 493.322 114.601 493.109 113.974 492.921L112.446 492.461C111.424 492.15 110.642 491.726 110.101 491.189C109.564 490.652 109.295 489.983 109.295 489.182C109.295 488.509 109.474 487.912 109.832 487.392C110.19 486.868 110.676 486.457 111.29 486.158C111.907 485.86 112.604 485.711 113.38 485.711C114.16 485.711 114.848 485.862 115.444 486.165C116.041 486.463 116.514 486.874 116.863 487.398C117.213 487.918 117.407 488.513 117.445 489.182H116.659ZM121.856 481.69V503.219H121.159V481.69H121.856Z" fill="white"/>
<path d="M283 355L149 354" stroke="#F2F2F2"/>
<circle cx="208.5" cy="353.5" r="9.5" transform="rotate(90 208.5 353.5)" fill="white"/>
<path d="M68.4828 350H67.639L72.3627 336.909H73.2832L78.0069 350H77.1632L72.8549 337.938H72.791L68.4828 350ZM69.6781 345.072H75.9679V345.813H69.6781V345.072ZM95.4828 341H94.6646C94.5794 340.557 94.4196 340.129 94.1852 339.715C93.9508 339.298 93.6483 338.923 93.2775 338.59C92.911 338.254 92.4849 337.987 91.9991 337.791C91.5133 337.595 90.9764 337.497 90.3883 337.497C89.5275 337.497 88.7349 337.727 88.0105 338.188C87.2903 338.643 86.7129 339.315 86.2782 340.201C85.8478 341.087 85.6326 342.172 85.6326 343.455C85.6326 344.746 85.8478 345.835 86.2782 346.721C86.7129 347.607 87.2903 348.278 88.0105 348.734C88.7349 349.186 89.5275 349.412 90.3883 349.412C90.9764 349.412 91.5133 349.316 91.9991 349.124C92.4849 348.928 92.911 348.664 93.2775 348.332C93.6483 347.995 93.9508 347.618 94.1852 347.2C94.4196 346.783 94.5794 346.352 94.6646 345.909H95.4828C95.389 346.437 95.2079 346.955 94.9395 347.462C94.6752 347.969 94.3258 348.43 93.8912 348.843C93.4608 349.252 92.9515 349.578 92.3635 349.821C91.7797 350.06 91.1213 350.179 90.3883 350.179C89.2974 350.179 88.3365 349.902 87.5055 349.348C86.6745 348.79 86.0225 348.006 85.5495 346.996C85.0808 345.986 84.8464 344.805 84.8464 343.455C84.8464 342.104 85.0808 340.923 85.5495 339.913C86.0225 338.903 86.6745 338.121 87.5055 337.567C88.3365 337.009 89.2974 336.73 90.3883 336.73C91.1213 336.73 91.7797 336.852 92.3635 337.094C92.9515 337.333 93.4608 337.657 93.8912 338.066C94.3258 338.471 94.6752 338.927 94.9395 339.434C95.2079 339.941 95.389 340.463 95.4828 341ZM101.929 350.205C101.119 350.205 100.399 349.987 99.7686 349.553C99.138 349.114 98.6415 348.511 98.2793 347.744C97.9171 346.977 97.736 346.103 97.736 345.123C97.736 344.138 97.9171 343.265 98.2793 342.502C98.6415 341.735 99.138 341.132 99.7686 340.693C100.399 340.254 101.119 340.035 101.929 340.035C102.739 340.035 103.459 340.254 104.09 340.693C104.72 341.132 105.217 341.735 105.579 342.502C105.941 343.269 106.122 344.143 106.122 345.123C106.122 346.103 105.941 346.977 105.579 347.744C105.217 348.511 104.72 349.114 104.09 349.553C103.459 349.987 102.739 350.205 101.929 350.205ZM101.929 349.482C102.615 349.482 103.214 349.288 103.725 348.901C104.241 348.513 104.639 347.989 104.921 347.328C105.206 346.668 105.349 345.933 105.349 345.123C105.349 344.313 105.206 343.58 104.921 342.924C104.635 342.263 104.237 341.739 103.725 341.352C103.214 340.96 102.615 340.763 101.929 340.763C101.243 340.763 100.644 340.96 100.133 341.352C99.6216 341.739 99.2232 342.263 98.9377 342.924C98.6522 343.58 98.5094 344.313 98.5094 345.123C98.5094 345.933 98.65 346.668 98.9313 347.328C99.2168 347.989 99.6152 348.513 100.127 348.901C100.642 349.288 101.243 349.482 101.929 349.482ZM108.809 350V340.182H109.569V341.716H109.64C109.853 341.213 110.213 340.81 110.72 340.508C111.227 340.201 111.804 340.048 112.452 340.048C112.52 340.048 112.588 340.048 112.657 340.048C112.725 340.048 112.789 340.05 112.848 340.054V340.84C112.797 340.836 112.735 340.83 112.663 340.821C112.595 340.808 112.51 340.802 112.407 340.802C111.862 340.802 111.376 340.919 110.95 341.153C110.528 341.388 110.196 341.712 109.953 342.125C109.71 342.534 109.588 343.003 109.588 343.531V350H108.809ZM121.233 346.516V340.182H122.013V350H121.233V348.408H121.169C120.939 348.915 120.566 349.329 120.051 349.648C119.539 349.968 118.934 350.128 118.235 350.128C117.592 350.128 117.023 349.987 116.529 349.706C116.034 349.425 115.646 349.026 115.365 348.511C115.084 347.991 114.943 347.373 114.943 346.657V340.182H115.723V346.625C115.723 347.443 115.97 348.106 116.465 348.613C116.963 349.116 117.607 349.367 118.395 349.367C118.906 349.367 119.377 349.252 119.808 349.022C120.238 348.792 120.583 348.464 120.843 348.038C121.103 347.607 121.233 347.1 121.233 346.516ZM126.024 343.634V350H125.244V340.182H126.005V341.735H126.081C126.312 341.228 126.68 340.821 127.187 340.514C127.694 340.207 128.297 340.054 128.996 340.054C129.657 340.054 130.236 340.195 130.735 340.476C131.238 340.757 131.63 341.158 131.911 341.678C132.197 342.193 132.339 342.809 132.339 343.525V350H131.559V343.557C131.559 342.722 131.31 342.05 130.812 341.543C130.317 341.032 129.663 340.776 128.849 340.776C128.304 340.776 127.818 340.896 127.392 341.134C126.966 341.373 126.631 341.707 126.388 342.138C126.145 342.564 126.024 343.062 126.024 343.634ZM126.465 338.648L125.8 338.597C125.839 338.111 126.024 337.717 126.356 337.414C126.693 337.107 127.098 336.954 127.571 336.954C127.848 336.954 128.089 337.003 128.293 337.101C128.498 337.199 128.687 337.312 128.862 337.44C129.037 337.563 129.214 337.676 129.393 337.778C129.576 337.876 129.785 337.925 130.019 337.925C130.292 337.925 130.539 337.834 130.76 337.651C130.982 337.463 131.114 337.224 131.157 336.935L131.815 337.037C131.751 337.518 131.549 337.904 131.208 338.194C130.871 338.484 130.483 338.629 130.045 338.629C129.763 338.629 129.525 338.58 129.329 338.482C129.137 338.384 128.958 338.273 128.792 338.149C128.626 338.021 128.451 337.908 128.268 337.81C128.084 337.708 127.861 337.657 127.596 337.657C127.294 337.657 127.036 337.753 126.823 337.945C126.61 338.132 126.491 338.366 126.465 338.648ZM138.182 350.211C137.615 350.211 137.095 350.098 136.622 349.872C136.153 349.646 135.776 349.316 135.491 348.881C135.209 348.447 135.069 347.918 135.069 347.296C135.069 346.887 135.141 346.527 135.286 346.216C135.431 345.905 135.655 345.636 135.957 345.411C136.26 345.185 136.648 344.999 137.121 344.854C137.594 344.705 138.158 344.59 138.814 344.509C139.313 344.45 139.758 344.392 140.15 344.337C140.542 344.277 140.849 344.185 141.071 344.062C141.297 343.938 141.41 343.751 141.41 343.499V343.09C141.41 342.374 141.184 341.805 140.732 341.384C140.28 340.962 139.658 340.751 138.866 340.751C138.162 340.751 137.57 340.906 137.089 341.217C136.611 341.524 136.277 341.92 136.085 342.406L135.35 342.131C135.537 341.663 135.808 341.273 136.162 340.962C136.52 340.651 136.929 340.418 137.389 340.265C137.854 340.112 138.339 340.035 138.846 340.035C139.285 340.035 139.703 340.097 140.099 340.22C140.5 340.344 140.856 340.531 141.167 340.783C141.482 341.034 141.731 341.356 141.915 341.748C142.098 342.136 142.189 342.6 142.189 343.141V350H141.41V348.229H141.352C141.182 348.596 140.947 348.93 140.649 349.233C140.355 349.531 139.999 349.77 139.581 349.949C139.168 350.124 138.702 350.211 138.182 350.211ZM138.258 349.489C138.872 349.489 139.415 349.339 139.888 349.041C140.366 348.739 140.738 348.325 141.007 347.801C141.275 347.277 141.41 346.683 141.41 346.018V344.573C141.312 344.658 141.169 344.735 140.981 344.803C140.798 344.867 140.589 344.925 140.355 344.976C140.125 345.023 139.882 345.065 139.626 345.104C139.375 345.138 139.13 345.17 138.891 345.2C138.175 345.285 137.591 345.417 137.14 345.596C136.692 345.771 136.364 346.001 136.155 346.286C135.951 346.572 135.849 346.917 135.849 347.322C135.849 347.991 136.079 348.519 136.539 348.907C136.999 349.295 137.572 349.489 138.258 349.489ZM94.838 354.69V376.219H94.1412V354.69H94.838ZM99.0024 372V358.909H106.289V359.651H99.8014V365.077H105.899V365.819H99.8014V371.259H106.443V372H99.0024ZM116.659 362.182C116.591 361.368 116.258 360.71 115.662 360.207C115.069 359.704 114.302 359.452 113.361 359.452C112.726 359.452 112.161 359.57 111.667 359.804C111.172 360.038 110.785 360.358 110.503 360.763C110.222 361.168 110.081 361.632 110.081 362.156C110.081 362.493 110.145 362.798 110.273 363.07C110.405 363.339 110.591 363.58 110.829 363.793C111.068 364.001 111.351 364.185 111.679 364.342C112.008 364.5 112.37 364.638 112.766 364.758L114.198 365.18C114.688 365.329 115.14 365.501 115.553 365.697C115.971 365.893 116.333 366.128 116.64 366.401C116.951 366.669 117.191 366.984 117.362 367.347C117.537 367.709 117.624 368.126 117.624 368.599C117.624 369.29 117.445 369.908 117.087 370.453C116.733 370.999 116.228 371.429 115.572 371.744C114.92 372.055 114.151 372.211 113.265 372.211C112.421 372.211 111.686 372.068 111.059 371.783C110.437 371.497 109.945 371.101 109.583 370.594C109.221 370.082 109.016 369.494 108.969 368.83H109.787C109.83 369.371 110.003 369.839 110.305 370.236C110.612 370.628 111.019 370.93 111.526 371.143C112.033 371.357 112.613 371.463 113.265 371.463C113.968 371.463 114.588 371.344 115.125 371.105C115.662 370.862 116.081 370.526 116.384 370.095C116.687 369.665 116.838 369.164 116.838 368.593C116.838 368.133 116.729 367.739 116.512 367.411C116.294 367.082 115.973 366.799 115.547 366.56C115.125 366.322 114.601 366.109 113.974 365.921L112.446 365.461C111.424 365.15 110.642 364.726 110.101 364.189C109.564 363.652 109.295 362.983 109.295 362.182C109.295 361.509 109.474 360.912 109.832 360.392C110.19 359.868 110.676 359.457 111.29 359.158C111.907 358.86 112.604 358.711 113.38 358.711C114.16 358.711 114.848 358.862 115.444 359.165C116.041 359.463 116.514 359.874 116.863 360.398C117.213 360.918 117.407 361.513 117.445 362.182H116.659ZM121.856 354.69V376.219H121.159V354.69H121.856Z" fill="white"/>
<circle cx="208.5" cy="776.5" r="9.5" transform="rotate(90 208.5 776.5)" fill="white"/>
<path d="M272 777L105 776" stroke="#F2F2F2"/>
<path d="M275.483 763H274.639L279.363 749.909H280.283L285.007 763H284.163L279.855 750.938H279.791L275.483 763ZM276.678 758.072H282.968V758.813H276.678V758.072ZM302.483 754H301.665C301.579 753.557 301.42 753.129 301.185 752.715C300.951 752.298 300.648 751.923 300.278 751.59C299.911 751.254 299.485 750.987 298.999 750.791C298.513 750.595 297.976 750.497 297.388 750.497C296.528 750.497 295.735 750.727 295.01 751.188C294.29 751.643 293.713 752.315 293.278 753.201C292.848 754.087 292.633 755.172 292.633 756.455C292.633 757.746 292.848 758.835 293.278 759.721C293.713 760.607 294.29 761.278 295.01 761.734C295.735 762.186 296.528 762.412 297.388 762.412C297.976 762.412 298.513 762.316 298.999 762.124C299.485 761.928 299.911 761.664 300.278 761.332C300.648 760.995 300.951 760.618 301.185 760.2C301.42 759.783 301.579 759.352 301.665 758.909H302.483C302.389 759.437 302.208 759.955 301.939 760.462C301.675 760.969 301.326 761.43 300.891 761.843C300.461 762.252 299.952 762.578 299.363 762.821C298.78 763.06 298.121 763.179 297.388 763.179C296.297 763.179 295.336 762.902 294.506 762.348C293.675 761.79 293.023 761.006 292.55 759.996C292.081 758.986 291.846 757.805 291.846 756.455C291.846 755.104 292.081 753.923 292.55 752.913C293.023 751.903 293.675 751.121 294.506 750.567C295.336 750.009 296.297 749.73 297.388 749.73C298.121 749.73 298.78 749.852 299.363 750.094C299.952 750.333 300.461 750.657 300.891 751.066C301.326 751.471 301.675 751.927 301.939 752.434C302.208 752.941 302.389 753.463 302.483 754ZM308.929 763.205C308.119 763.205 307.399 762.987 306.769 762.553C306.138 762.114 305.642 761.511 305.279 760.744C304.917 759.977 304.736 759.103 304.736 758.123C304.736 757.138 304.917 756.265 305.279 755.502C305.642 754.735 306.138 754.132 306.769 753.693C307.399 753.254 308.119 753.035 308.929 753.035C309.739 753.035 310.459 753.254 311.09 753.693C311.72 754.132 312.217 754.735 312.579 755.502C312.941 756.269 313.122 757.143 313.122 758.123C313.122 759.103 312.941 759.977 312.579 760.744C312.217 761.511 311.72 762.114 311.09 762.553C310.459 762.987 309.739 763.205 308.929 763.205ZM308.929 762.482C309.615 762.482 310.214 762.288 310.725 761.901C311.241 761.513 311.639 760.989 311.921 760.328C312.206 759.668 312.349 758.933 312.349 758.123C312.349 757.313 312.206 756.58 311.921 755.924C311.635 755.263 311.237 754.739 310.725 754.352C310.214 753.96 309.615 753.763 308.929 753.763C308.243 753.763 307.644 753.96 307.133 754.352C306.622 754.739 306.223 755.263 305.938 755.924C305.652 756.58 305.509 757.313 305.509 758.123C305.509 758.933 305.65 759.668 305.931 760.328C306.217 760.989 306.615 761.513 307.127 761.901C307.642 762.288 308.243 762.482 308.929 762.482ZM315.809 763V753.182H316.569V754.716H316.64C316.853 754.213 317.213 753.81 317.72 753.508C318.227 753.201 318.804 753.048 319.452 753.048C319.52 753.048 319.588 753.048 319.657 753.048C319.725 753.048 319.789 753.05 319.848 753.054V753.84C319.797 753.836 319.735 753.83 319.663 753.821C319.595 753.808 319.51 753.802 319.407 753.802C318.862 753.802 318.376 753.919 317.95 754.153C317.528 754.388 317.196 754.712 316.953 755.125C316.71 755.534 316.588 756.003 316.588 756.531V763H315.809ZM328.233 759.516V753.182H329.013V763H328.233V761.408H328.169C327.939 761.915 327.566 762.329 327.051 762.648C326.539 762.968 325.934 763.128 325.235 763.128C324.592 763.128 324.023 762.987 323.529 762.706C323.034 762.425 322.646 762.026 322.365 761.511C322.084 760.991 321.943 760.373 321.943 759.657V753.182H322.723V759.625C322.723 760.443 322.97 761.106 323.465 761.613C323.963 762.116 324.607 762.367 325.395 762.367C325.906 762.367 326.377 762.252 326.808 762.022C327.238 761.792 327.583 761.464 327.843 761.038C328.103 760.607 328.233 760.1 328.233 759.516ZM333.024 756.634V763H332.244V753.182H333.005V754.735H333.081C333.312 754.228 333.68 753.821 334.187 753.514C334.694 753.207 335.297 753.054 335.996 753.054C336.657 753.054 337.236 753.195 337.735 753.476C338.238 753.757 338.63 754.158 338.911 754.678C339.197 755.193 339.339 755.809 339.339 756.525V763H338.559V756.557C338.559 755.722 338.31 755.05 337.812 754.543C337.317 754.032 336.663 753.776 335.849 753.776C335.304 753.776 334.818 753.896 334.392 754.134C333.966 754.373 333.631 754.707 333.388 755.138C333.145 755.564 333.024 756.062 333.024 756.634ZM333.465 751.648L332.8 751.597C332.839 751.111 333.024 750.717 333.356 750.414C333.693 750.107 334.098 749.954 334.571 749.954C334.848 749.954 335.089 750.003 335.293 750.101C335.498 750.199 335.687 750.312 335.862 750.44C336.037 750.563 336.214 750.676 336.393 750.778C336.576 750.876 336.785 750.925 337.019 750.925C337.292 750.925 337.539 750.834 337.76 750.651C337.982 750.463 338.114 750.224 338.157 749.935L338.815 750.037C338.751 750.518 338.549 750.904 338.208 751.194C337.871 751.484 337.483 751.629 337.045 751.629C336.763 751.629 336.525 751.58 336.329 751.482C336.137 751.384 335.958 751.273 335.792 751.149C335.626 751.021 335.451 750.908 335.268 750.81C335.084 750.708 334.861 750.657 334.596 750.657C334.294 750.657 334.036 750.753 333.823 750.945C333.61 751.132 333.491 751.366 333.465 751.648ZM345.182 763.211C344.615 763.211 344.095 763.098 343.622 762.872C343.153 762.646 342.776 762.316 342.491 761.881C342.209 761.447 342.069 760.918 342.069 760.296C342.069 759.887 342.141 759.527 342.286 759.216C342.431 758.905 342.655 758.636 342.957 758.411C343.26 758.185 343.648 757.999 344.121 757.854C344.594 757.705 345.158 757.59 345.814 757.509C346.313 757.45 346.758 757.392 347.15 757.337C347.542 757.277 347.849 757.185 348.071 757.062C348.297 756.938 348.41 756.751 348.41 756.499V756.09C348.41 755.374 348.184 754.805 347.732 754.384C347.28 753.962 346.658 753.751 345.866 753.751C345.162 753.751 344.57 753.906 344.089 754.217C343.611 754.524 343.277 754.92 343.085 755.406L342.35 755.131C342.537 754.663 342.808 754.273 343.162 753.962C343.52 753.651 343.929 753.418 344.389 753.265C344.854 753.112 345.339 753.035 345.846 753.035C346.285 753.035 346.703 753.097 347.099 753.22C347.5 753.344 347.856 753.531 348.167 753.783C348.482 754.034 348.731 754.356 348.915 754.748C349.098 755.136 349.189 755.6 349.189 756.141V763H348.41V761.229H348.352C348.182 761.596 347.947 761.93 347.649 762.233C347.355 762.531 346.999 762.77 346.581 762.949C346.168 763.124 345.702 763.211 345.182 763.211ZM345.258 762.489C345.872 762.489 346.415 762.339 346.888 762.041C347.366 761.739 347.738 761.325 348.007 760.801C348.275 760.277 348.41 759.683 348.41 759.018V757.573C348.312 757.658 348.169 757.735 347.981 757.803C347.798 757.867 347.589 757.925 347.355 757.976C347.125 758.023 346.882 758.065 346.626 758.104C346.375 758.138 346.13 758.17 345.891 758.2C345.175 758.285 344.591 758.417 344.14 758.596C343.692 758.771 343.364 759.001 343.155 759.286C342.951 759.572 342.849 759.917 342.849 760.322C342.849 760.991 343.079 761.519 343.539 761.907C343.999 762.295 344.572 762.489 345.258 762.489ZM301.838 767.69V789.219H301.141V767.69H301.838ZM306.002 785V771.909H313.289V772.651H306.801V778.077H312.899V778.819H306.801V784.259H313.443V785H306.002ZM323.659 775.182C323.591 774.368 323.258 773.71 322.662 773.207C322.069 772.704 321.302 772.452 320.361 772.452C319.726 772.452 319.161 772.57 318.667 772.804C318.172 773.038 317.785 773.358 317.503 773.763C317.222 774.168 317.081 774.632 317.081 775.156C317.081 775.493 317.145 775.798 317.273 776.07C317.405 776.339 317.591 776.58 317.829 776.793C318.068 777.001 318.351 777.185 318.679 777.342C319.008 777.5 319.37 777.638 319.766 777.758L321.198 778.18C321.688 778.329 322.14 778.501 322.553 778.697C322.971 778.893 323.333 779.128 323.64 779.401C323.951 779.669 324.191 779.984 324.362 780.347C324.537 780.709 324.624 781.126 324.624 781.599C324.624 782.29 324.445 782.908 324.087 783.453C323.733 783.999 323.228 784.429 322.572 784.744C321.92 785.055 321.151 785.211 320.265 785.211C319.421 785.211 318.686 785.068 318.059 784.783C317.437 784.497 316.945 784.101 316.583 783.594C316.221 783.082 316.016 782.494 315.969 781.83H316.787C316.83 782.371 317.003 782.839 317.305 783.236C317.612 783.628 318.019 783.93 318.526 784.143C319.033 784.357 319.613 784.463 320.265 784.463C320.968 784.463 321.588 784.344 322.125 784.105C322.662 783.862 323.081 783.526 323.384 783.095C323.687 782.665 323.838 782.164 323.838 781.593C323.838 781.133 323.729 780.739 323.512 780.411C323.294 780.082 322.973 779.799 322.547 779.56C322.125 779.322 321.601 779.109 320.974 778.921L319.446 778.461C318.424 778.15 317.642 777.726 317.101 777.189C316.564 776.652 316.295 775.983 316.295 775.182C316.295 774.509 316.474 773.912 316.832 773.392C317.19 772.868 317.676 772.457 318.29 772.158C318.907 771.86 319.604 771.711 320.38 771.711C321.16 771.711 321.848 771.862 322.444 772.165C323.041 772.463 323.514 772.874 323.863 773.398C324.213 773.918 324.407 774.513 324.445 775.182H323.659ZM328.856 767.69V789.219H328.159V767.69H328.856Z" fill="white"/>
<circle cx="208.5" cy="435.5" r="9.5" transform="rotate(90 208.5 435.5)" fill="white"/>
<line x1="231" y1="436.5" x2="105" y2="436.5" stroke="#F2F2F2"/>
<path d="M238.292 432V418.909H242.543C243.336 418.909 244.005 419.05 244.55 419.331C245.096 419.612 245.509 420.007 245.79 420.514C246.076 421.021 246.219 421.611 246.219 422.284C246.219 422.813 246.133 423.281 245.963 423.691C245.792 424.1 245.554 424.438 245.247 424.707C244.944 424.971 244.589 425.154 244.18 425.257V425.333C244.631 425.367 245.051 425.525 245.439 425.806C245.827 426.083 246.138 426.46 246.372 426.938C246.611 427.415 246.73 427.971 246.73 428.606C246.73 429.275 246.585 429.865 246.295 430.377C246.01 430.884 245.581 431.282 245.01 431.572C244.439 431.857 243.732 432 242.888 432H238.292ZM239.091 431.259H242.888C243.873 431.259 244.629 431.012 245.157 430.517C245.69 430.023 245.956 429.386 245.956 428.606C245.956 428.056 245.827 427.564 245.567 427.13C245.311 426.695 244.955 426.352 244.499 426.1C244.043 425.845 243.515 425.717 242.914 425.717H239.091V431.259ZM239.091 424.988H242.818C243.376 424.988 243.849 424.867 244.237 424.624C244.629 424.381 244.927 424.055 245.132 423.646C245.341 423.237 245.445 422.783 245.445 422.284C245.445 421.475 245.194 420.833 244.691 420.36C244.188 419.887 243.472 419.651 242.543 419.651H239.091V424.988ZM253.43 432.205C252.544 432.205 251.773 431.985 251.116 431.546C250.46 431.107 249.953 430.507 249.595 429.744C249.237 428.981 249.058 428.112 249.058 427.136C249.058 426.156 249.237 425.282 249.595 424.515C249.957 423.748 250.454 423.143 251.085 422.7C251.715 422.257 252.435 422.035 253.245 422.035C253.795 422.035 254.315 422.146 254.805 422.367C255.299 422.585 255.734 422.9 256.109 423.313C256.488 423.727 256.784 424.225 256.997 424.809C257.214 425.393 257.323 426.049 257.323 426.778V427.264H249.55V426.554H256.543C256.543 425.843 256.398 425.201 256.109 424.63C255.819 424.059 255.425 423.605 254.926 423.269C254.428 422.932 253.867 422.764 253.245 422.764C252.593 422.764 252.011 422.947 251.5 423.313C250.993 423.676 250.59 424.166 250.292 424.784C249.998 425.402 249.844 426.092 249.832 426.855V427.174C249.832 427.992 249.974 428.728 250.26 429.38C250.55 430.027 250.963 430.541 251.5 430.92C252.037 431.295 252.68 431.482 253.43 431.482C253.967 431.482 254.425 431.393 254.805 431.214C255.188 431.031 255.501 430.809 255.744 430.549C255.987 430.289 256.17 430.038 256.294 429.795L257.004 430.083C256.854 430.411 256.622 430.739 256.307 431.067C255.996 431.391 255.599 431.661 255.118 431.879C254.641 432.096 254.078 432.205 253.43 432.205ZM260.788 418.909V432H260.008V418.909H260.788ZM267.723 422.182V422.879H263.37V422.182H267.723ZM264.802 432V420.654C264.802 420.16 264.915 419.738 265.141 419.389C265.366 419.039 265.663 418.773 266.029 418.59C266.4 418.406 266.798 418.315 267.224 418.315C267.45 418.315 267.642 418.334 267.8 418.372C267.962 418.406 268.102 418.447 268.222 418.494L267.991 419.184C267.893 419.15 267.787 419.12 267.672 419.095C267.561 419.069 267.429 419.056 267.276 419.056C266.781 419.056 266.374 419.208 266.055 419.51C265.735 419.813 265.575 420.235 265.575 420.776L265.569 432H264.802ZM272.523 432.211C271.957 432.211 271.437 432.098 270.964 431.872C270.495 431.647 270.118 431.316 269.832 430.882C269.551 430.447 269.411 429.919 269.411 429.296C269.411 428.887 269.483 428.527 269.628 428.216C269.773 427.905 269.996 427.637 270.299 427.411C270.602 427.185 270.989 427 271.462 426.855C271.935 426.705 272.5 426.59 273.156 426.509C273.655 426.45 274.1 426.392 274.492 426.337C274.884 426.277 275.191 426.186 275.413 426.062C275.638 425.938 275.751 425.751 275.751 425.5V425.09C275.751 424.375 275.526 423.806 275.074 423.384C274.622 422.962 274 422.751 273.207 422.751C272.504 422.751 271.912 422.906 271.43 423.218C270.953 423.524 270.619 423.921 270.427 424.406L269.692 424.132C269.879 423.663 270.15 423.273 270.504 422.962C270.862 422.651 271.271 422.419 271.731 422.265C272.195 422.112 272.681 422.035 273.188 422.035C273.627 422.035 274.045 422.097 274.441 422.22C274.842 422.344 275.197 422.531 275.509 422.783C275.824 423.034 276.073 423.356 276.256 423.748C276.44 424.136 276.531 424.6 276.531 425.142V432H275.751V430.23H275.694C275.523 430.596 275.289 430.931 274.991 431.233C274.697 431.531 274.341 431.77 273.923 431.949C273.51 432.124 273.043 432.211 272.523 432.211ZM272.6 431.489C273.214 431.489 273.757 431.34 274.23 431.041C274.707 430.739 275.08 430.326 275.349 429.801C275.617 429.277 275.751 428.683 275.751 428.018V426.573C275.653 426.659 275.511 426.735 275.323 426.804C275.14 426.867 274.931 426.925 274.697 426.976C274.467 427.023 274.224 427.066 273.968 427.104C273.717 427.138 273.472 427.17 273.233 427.2C272.517 427.285 271.933 427.417 271.482 427.596C271.034 427.771 270.706 428.001 270.497 428.286C270.293 428.572 270.19 428.917 270.19 429.322C270.19 429.991 270.42 430.519 270.881 430.907C271.341 431.295 271.914 431.489 272.6 431.489ZM286.039 424.298L285.317 424.49C285.202 424.132 285.038 423.823 284.825 423.563C284.612 423.303 284.343 423.103 284.02 422.962C283.7 422.817 283.316 422.745 282.869 422.745C282.149 422.745 281.559 422.924 281.098 423.281C280.642 423.639 280.414 424.106 280.414 424.681C280.414 425.15 280.57 425.538 280.881 425.845C281.192 426.147 281.667 426.377 282.306 426.535L283.815 426.912C284.591 427.104 285.174 427.415 285.566 427.845C285.958 428.272 286.154 428.802 286.154 429.437C286.154 429.978 286.007 430.458 285.713 430.875C285.419 431.293 285.012 431.619 284.493 431.853C283.977 432.088 283.376 432.205 282.69 432.205C281.774 432.205 281.022 431.992 280.434 431.566C279.846 431.135 279.468 430.519 279.302 429.718L280.05 429.527C280.191 430.166 280.483 430.654 280.926 430.99C281.373 431.323 281.959 431.489 282.684 431.489C283.485 431.489 284.13 431.299 284.62 430.92C285.115 430.541 285.362 430.055 285.362 429.463C285.362 429.011 285.217 428.63 284.927 428.318C284.637 428.007 284.199 427.779 283.61 427.634L282.044 427.251C281.243 427.055 280.642 426.742 280.242 426.311C279.841 425.877 279.641 425.342 279.641 424.707C279.641 424.179 279.779 423.714 280.056 423.313C280.333 422.913 280.715 422.6 281.201 422.374C281.686 422.148 282.243 422.035 282.869 422.035C283.7 422.035 284.377 422.231 284.902 422.623C285.426 423.015 285.805 423.573 286.039 424.298ZM292.324 422.182V422.879H288.035V422.182H292.324ZM289.486 419.83H290.26V429.68C290.26 430.08 290.336 430.409 290.49 430.664C290.648 430.916 290.852 431.103 291.104 431.227C291.359 431.346 291.632 431.406 291.922 431.406C292.062 431.406 292.184 431.395 292.286 431.374C292.393 431.353 292.493 431.325 292.586 431.291L292.778 432C292.659 432.043 292.527 432.079 292.382 432.109C292.237 432.143 292.067 432.16 291.871 432.16C291.461 432.16 291.074 432.068 290.707 431.885C290.345 431.702 290.051 431.436 289.825 431.086C289.599 430.737 289.486 430.315 289.486 429.821V419.83ZM250.353 436.691V458.219H249.656V436.691H250.353ZM263.383 440.909H264.182V449.577C264.182 450.468 263.975 451.262 263.562 451.961C263.148 452.656 262.577 453.205 261.849 453.61C261.124 454.011 260.291 454.211 259.349 454.211C258.412 454.211 257.579 454.011 256.85 453.61C256.121 453.205 255.548 452.654 255.131 451.955C254.717 451.256 254.513 450.463 254.517 449.577V440.909H255.316V449.532C255.316 450.286 255.487 450.958 255.827 451.546C256.173 452.134 256.648 452.598 257.253 452.939C257.858 453.276 258.557 453.444 259.349 453.444C260.142 453.444 260.841 453.276 261.446 452.939C262.051 452.598 262.524 452.134 262.865 451.546C263.21 450.958 263.383 450.286 263.383 449.532V440.909ZM267.964 454V440.909H268.763V448.509H268.853L275.756 440.909H276.817L271.135 447.103L276.766 454H275.769L270.623 447.679L268.763 449.737V454H267.964ZM280.341 436.691V458.219H279.644V436.691H280.341Z" fill="white"/>
<circle cx="208.5" cy="540.5" r="9.5" transform="rotate(90 208.5 540.5)" fill="white"/>
<line x1="272" y1="541.5" x2="105" y2="541.5" stroke="#F2F2F2"/>
<path d="M292.368 530.455C292.368 531.805 292.134 532.986 291.665 533.996C291.196 535.001 290.544 535.783 289.709 536.342C288.878 536.9 287.919 537.179 286.833 537.179C285.742 537.179 284.779 536.9 283.943 536.342C283.112 535.779 282.463 534.995 281.994 533.989C281.525 532.979 281.291 531.801 281.291 530.455C281.291 529.104 281.525 527.925 281.994 526.92C282.467 525.914 283.119 525.132 283.95 524.574C284.781 524.011 285.742 523.73 286.833 523.73C287.919 523.73 288.878 524.009 289.709 524.567C290.544 525.126 291.196 525.91 291.665 526.92C292.134 527.925 292.368 529.104 292.368 530.455ZM291.588 530.455C291.588 529.24 291.384 528.188 290.975 527.297C290.57 526.406 290.009 525.718 289.294 525.232C288.578 524.742 287.757 524.497 286.833 524.497C285.908 524.497 285.088 524.74 284.372 525.226C283.656 525.707 283.093 526.396 282.684 527.29C282.279 528.181 282.077 529.236 282.077 530.455C282.077 531.661 282.277 532.711 282.678 533.606C283.083 534.496 283.643 535.187 284.359 535.677C285.075 536.167 285.899 536.412 286.833 536.412C287.757 536.412 288.578 536.169 289.294 535.683C290.009 535.193 290.57 534.503 290.975 533.612C291.384 532.722 291.588 531.669 291.588 530.455ZM301.506 533.516V527.182H302.285V537H301.506V535.408H301.442C301.212 535.915 300.839 536.329 300.323 536.648C299.812 536.968 299.207 537.128 298.508 537.128C297.864 537.128 297.295 536.987 296.801 536.706C296.307 536.425 295.919 536.026 295.638 535.511C295.356 534.991 295.216 534.373 295.216 533.657V527.182H295.996V533.625C295.996 534.443 296.243 535.106 296.737 535.613C297.236 536.116 297.879 536.367 298.668 536.367C299.179 536.367 299.65 536.252 300.08 536.022C300.511 535.792 300.856 535.464 301.116 535.038C301.376 534.607 301.506 534.1 301.506 533.516ZM305.517 537V527.182H306.277V528.716H306.348C306.561 528.213 306.921 527.81 307.428 527.508C307.935 527.201 308.512 527.048 309.16 527.048C309.228 527.048 309.296 527.048 309.365 527.048C309.433 527.048 309.497 527.05 309.556 527.054V527.84C309.505 527.836 309.443 527.83 309.371 527.821C309.303 527.808 309.218 527.802 309.115 527.802C308.57 527.802 308.084 527.919 307.658 528.153C307.236 528.388 306.904 528.712 306.661 529.125C306.418 529.534 306.296 530.003 306.296 530.531V537H305.517ZM315.181 537.205C314.295 537.205 313.524 536.985 312.867 536.546C312.211 536.107 311.704 535.506 311.346 534.744C310.988 533.981 310.809 533.112 310.809 532.136C310.809 531.156 310.988 530.282 311.346 529.515C311.708 528.748 312.205 528.143 312.835 527.7C313.466 527.256 314.186 527.035 314.996 527.035C315.546 527.035 316.066 527.146 316.556 527.367C317.05 527.585 317.485 527.9 317.86 528.313C318.239 528.727 318.535 529.225 318.748 529.809C318.965 530.393 319.074 531.049 319.074 531.778V532.263H311.301V531.554H318.294C318.294 530.842 318.149 530.201 317.86 529.63C317.57 529.059 317.176 528.605 316.677 528.268C316.179 527.932 315.618 527.763 314.996 527.763C314.344 527.763 313.762 527.947 313.251 528.313C312.744 528.675 312.341 529.165 312.043 529.783C311.749 530.401 311.595 531.092 311.583 531.854V532.174C311.583 532.992 311.725 533.727 312.011 534.379C312.301 535.027 312.714 535.54 313.251 535.92C313.788 536.295 314.431 536.482 315.181 536.482C315.718 536.482 316.176 536.393 316.556 536.214C316.939 536.031 317.252 535.809 317.495 535.549C317.738 535.289 317.921 535.038 318.045 534.795L318.755 535.082C318.605 535.411 318.373 535.739 318.058 536.067C317.747 536.391 317.35 536.661 316.869 536.879C316.392 537.096 315.829 537.205 315.181 537.205ZM322.539 530.634V537H321.759V527.182H322.519V528.735H322.596C322.826 528.228 323.195 527.821 323.702 527.514C324.209 527.207 324.812 527.054 325.511 527.054C326.171 527.054 326.751 527.195 327.25 527.476C327.752 527.757 328.144 528.158 328.426 528.678C328.711 529.193 328.854 529.809 328.854 530.525V537H328.074V530.557C328.074 529.722 327.825 529.05 327.326 528.543C326.832 528.032 326.178 527.776 325.364 527.776C324.818 527.776 324.333 527.896 323.907 528.134C323.48 528.373 323.146 528.707 322.903 529.138C322.66 529.564 322.539 530.062 322.539 530.634ZM338.333 529.298L337.611 529.489C337.496 529.131 337.332 528.822 337.119 528.562C336.906 528.303 336.637 528.102 336.313 527.962C335.994 527.817 335.61 527.744 335.163 527.744C334.443 527.744 333.853 527.923 333.392 528.281C332.936 528.639 332.708 529.106 332.708 529.681C332.708 530.15 332.864 530.538 333.175 530.844C333.486 531.147 333.961 531.377 334.6 531.535L336.109 531.912C336.884 532.104 337.468 532.415 337.86 532.845C338.252 533.271 338.448 533.802 338.448 534.437C338.448 534.978 338.301 535.457 338.007 535.875C337.713 536.293 337.306 536.619 336.786 536.853C336.271 537.087 335.67 537.205 334.984 537.205C334.068 537.205 333.316 536.991 332.728 536.565C332.139 536.135 331.762 535.519 331.596 534.718L332.344 534.526C332.485 535.165 332.777 535.653 333.22 535.99C333.667 536.322 334.253 536.489 334.978 536.489C335.779 536.489 336.424 536.299 336.914 535.92C337.409 535.54 337.656 535.055 337.656 534.462C337.656 534.011 337.511 533.629 337.221 533.318C336.931 533.007 336.492 532.779 335.904 532.634L334.338 532.251C333.537 532.055 332.936 531.741 332.536 531.311C332.135 530.876 331.935 530.342 331.935 529.707C331.935 529.178 332.073 528.714 332.35 528.313C332.627 527.913 333.009 527.599 333.495 527.374C333.98 527.148 334.536 527.035 335.163 527.035C335.994 527.035 336.671 527.231 337.196 527.623C337.72 528.015 338.099 528.573 338.333 529.298ZM344.976 537.205C344.09 537.205 343.319 536.985 342.662 536.546C342.006 536.107 341.499 535.506 341.141 534.744C340.783 533.981 340.604 533.112 340.604 532.136C340.604 531.156 340.783 530.282 341.141 529.515C341.503 528.748 342 528.143 342.63 527.7C343.261 527.256 343.981 527.035 344.791 527.035C345.341 527.035 345.861 527.146 346.351 527.367C346.845 527.585 347.28 527.9 347.655 528.313C348.034 528.727 348.33 529.225 348.543 529.809C348.76 530.393 348.869 531.049 348.869 531.778V532.263H341.096V531.554H348.089C348.089 530.842 347.944 530.201 347.655 529.63C347.365 529.059 346.971 528.605 346.472 528.268C345.973 527.932 345.413 527.763 344.791 527.763C344.139 527.763 343.557 527.947 343.046 528.313C342.539 528.675 342.136 529.165 341.838 529.783C341.544 530.401 341.39 531.092 341.378 531.854V532.174C341.378 532.992 341.52 533.727 341.806 534.379C342.096 535.027 342.509 535.54 343.046 535.92C343.583 536.295 344.226 536.482 344.976 536.482C345.513 536.482 345.971 536.393 346.351 536.214C346.734 536.031 347.047 535.809 347.29 535.549C347.533 535.289 347.716 535.038 347.84 534.795L348.549 535.082C348.4 535.411 348.168 535.739 347.853 536.067C347.542 536.391 347.145 536.661 346.664 536.879C346.187 537.096 345.624 537.205 344.976 537.205ZM301.838 541.69V563.219H301.141V541.69H301.838ZM306.002 559V545.909H313.289V546.651H306.801V552.077H312.899V552.819H306.801V558.259H313.443V559H306.002ZM323.659 549.182C323.591 548.368 323.258 547.71 322.662 547.207C322.069 546.704 321.302 546.452 320.361 546.452C319.726 546.452 319.161 546.57 318.667 546.804C318.172 547.038 317.785 547.358 317.503 547.763C317.222 548.168 317.081 548.632 317.081 549.156C317.081 549.493 317.145 549.798 317.273 550.07C317.405 550.339 317.591 550.58 317.829 550.793C318.068 551.001 318.351 551.185 318.679 551.342C319.008 551.5 319.37 551.638 319.766 551.758L321.198 552.18C321.688 552.329 322.14 552.501 322.553 552.697C322.971 552.893 323.333 553.128 323.64 553.401C323.951 553.669 324.191 553.984 324.362 554.347C324.537 554.709 324.624 555.126 324.624 555.599C324.624 556.29 324.445 556.908 324.087 557.453C323.733 557.999 323.228 558.429 322.572 558.744C321.92 559.055 321.151 559.211 320.265 559.211C319.421 559.211 318.686 559.068 318.059 558.783C317.437 558.497 316.945 558.101 316.583 557.594C316.221 557.082 316.016 556.494 315.969 555.83H316.787C316.83 556.371 317.003 556.839 317.305 557.236C317.612 557.628 318.019 557.93 318.526 558.143C319.033 558.357 319.613 558.463 320.265 558.463C320.968 558.463 321.588 558.344 322.125 558.105C322.662 557.862 323.081 557.526 323.384 557.095C323.687 556.665 323.838 556.164 323.838 555.593C323.838 555.133 323.729 554.739 323.512 554.411C323.294 554.082 322.973 553.799 322.547 553.56C322.125 553.322 321.601 553.109 320.974 552.921L319.446 552.461C318.424 552.15 317.642 551.726 317.101 551.189C316.564 550.652 316.295 549.983 316.295 549.182C316.295 548.509 316.474 547.912 316.832 547.392C317.19 546.868 317.676 546.457 318.29 546.158C318.907 545.86 319.604 545.711 320.38 545.711C321.16 545.711 321.848 545.862 322.444 546.165C323.041 546.463 323.514 546.874 323.863 547.398C324.213 547.918 324.407 548.513 324.445 549.182H323.659ZM328.856 541.69V563.219H328.159V541.69H328.856Z" fill="white"/>
<circle cx="208.5" cy="296.5" r="9.5" transform="rotate(90 208.5 296.5)" fill="white"/>
<line x1="272" y1="297.5" x2="105" y2="297.5" stroke="#F2F2F2"/>
<path d="M281.828 280.909L286.124 292.971H286.213L290.509 280.909H291.353L286.629 294H285.708L280.985 280.909H281.828ZM295.207 294.211C294.64 294.211 294.12 294.098 293.647 293.872C293.179 293.646 292.801 293.316 292.516 292.881C292.235 292.447 292.094 291.918 292.094 291.296C292.094 290.887 292.167 290.527 292.311 290.216C292.456 289.905 292.68 289.636 292.983 289.411C293.285 289.185 293.673 288.999 294.146 288.854C294.619 288.705 295.184 288.59 295.84 288.509C296.338 288.45 296.784 288.392 297.176 288.337C297.568 288.277 297.875 288.185 298.096 288.062C298.322 287.938 298.435 287.751 298.435 287.499V287.09C298.435 286.374 298.209 285.805 297.757 285.384C297.306 284.962 296.684 284.751 295.891 284.751C295.188 284.751 294.596 284.906 294.114 285.217C293.637 285.524 293.302 285.92 293.11 286.406L292.375 286.131C292.563 285.663 292.833 285.273 293.187 284.962C293.545 284.651 293.954 284.418 294.414 284.265C294.879 284.112 295.365 284.035 295.872 284.035C296.311 284.035 296.728 284.097 297.125 284.22C297.525 284.344 297.881 284.531 298.192 284.783C298.507 285.034 298.757 285.356 298.94 285.748C299.123 286.136 299.215 286.6 299.215 287.141V294H298.435V292.229H298.377C298.207 292.596 297.973 292.93 297.674 293.233C297.38 293.531 297.025 293.77 296.607 293.949C296.194 294.124 295.727 294.211 295.207 294.211ZM295.284 293.489C295.897 293.489 296.441 293.339 296.914 293.041C297.391 292.739 297.764 292.325 298.032 291.801C298.301 291.277 298.435 290.683 298.435 290.018V288.573C298.337 288.658 298.194 288.735 298.007 288.803C297.824 288.867 297.615 288.925 297.38 288.976C297.15 289.023 296.907 289.065 296.652 289.104C296.4 289.138 296.155 289.17 295.917 289.2C295.201 289.285 294.617 289.417 294.165 289.596C293.718 289.771 293.39 290.001 293.181 290.286C292.976 290.572 292.874 290.917 292.874 291.322C292.874 291.991 293.104 292.519 293.564 292.907C294.025 293.295 294.598 293.489 295.284 293.489ZM303.264 280.909V294H302.484V280.909H303.264ZM310.321 294.205C309.435 294.205 308.663 293.985 308.007 293.546C307.351 293.107 306.844 292.506 306.486 291.744C306.128 290.981 305.949 290.112 305.949 289.136C305.949 288.156 306.128 287.282 306.486 286.515C306.848 285.748 307.344 285.143 307.975 284.7C308.606 284.256 309.326 284.035 310.136 284.035C310.685 284.035 311.205 284.146 311.695 284.367C312.19 284.585 312.624 284.9 312.999 285.313C313.379 285.727 313.675 286.225 313.888 286.809C314.105 287.393 314.214 288.049 314.214 288.778V289.263H306.441V288.554H313.434C313.434 287.842 313.289 287.201 312.999 286.63C312.71 286.059 312.315 285.605 311.817 285.268C311.318 284.932 310.758 284.763 310.136 284.763C309.484 284.763 308.902 284.947 308.391 285.313C307.884 285.675 307.481 286.165 307.183 286.783C306.888 287.401 306.735 288.092 306.722 288.854V289.174C306.722 289.992 306.865 290.727 307.151 291.379C307.44 292.027 307.854 292.54 308.391 292.92C308.928 293.295 309.571 293.482 310.321 293.482C310.858 293.482 311.316 293.393 311.695 293.214C312.079 293.031 312.392 292.809 312.635 292.549C312.878 292.289 313.061 292.038 313.185 291.795L313.894 292.082C313.745 292.411 313.513 292.739 313.197 293.067C312.886 293.391 312.49 293.661 312.009 293.879C311.531 294.096 310.969 294.205 310.321 294.205ZM317.678 287.634V294H316.898V284.182H317.659V285.735H317.736C317.966 285.228 318.335 284.821 318.842 284.514C319.349 284.207 319.952 284.054 320.651 284.054C321.311 284.054 321.891 284.195 322.389 284.476C322.892 284.757 323.284 285.158 323.565 285.678C323.851 286.193 323.994 286.809 323.994 287.525V294H323.214V287.557C323.214 286.722 322.964 286.05 322.466 285.543C321.972 285.032 321.317 284.776 320.504 284.776C319.958 284.776 319.472 284.896 319.046 285.134C318.62 285.373 318.286 285.707 318.043 286.138C317.8 286.564 317.678 287.062 317.678 287.634ZM330.916 294.205C330.081 294.205 329.346 293.985 328.711 293.546C328.076 293.103 327.58 292.498 327.222 291.731C326.868 290.964 326.691 290.094 326.691 289.123C326.691 288.151 326.87 287.282 327.228 286.515C327.586 285.748 328.082 285.143 328.717 284.7C329.352 284.256 330.083 284.035 330.91 284.035C331.532 284.035 332.099 284.163 332.61 284.418C333.126 284.674 333.552 285.03 333.888 285.486C334.229 285.942 334.447 286.47 334.54 287.071H333.748C333.62 286.406 333.3 285.857 332.789 285.422C332.282 284.983 331.658 284.763 330.916 284.763C330.251 284.763 329.659 284.951 329.139 285.326C328.619 285.697 328.21 286.21 327.912 286.866C327.614 287.518 327.464 288.266 327.464 289.11C327.464 289.941 327.609 290.687 327.899 291.347C328.189 292.004 328.594 292.523 329.114 292.907C329.634 293.29 330.234 293.482 330.916 293.482C331.398 293.482 331.837 293.386 332.233 293.195C332.634 293.003 332.968 292.73 333.237 292.376C333.505 292.023 333.682 291.609 333.767 291.136H334.56C334.466 291.741 334.253 292.274 333.92 292.734C333.588 293.195 333.164 293.555 332.648 293.815C332.133 294.075 331.555 294.205 330.916 294.205ZM337.257 294V284.182H338.031V294H337.257ZM337.647 282.443C337.477 282.443 337.327 282.384 337.2 282.264C337.076 282.145 337.014 282 337.014 281.83C337.014 281.659 337.076 281.514 337.2 281.395C337.323 281.276 337.472 281.216 337.647 281.216C337.817 281.216 337.964 281.276 338.088 281.395C338.216 281.514 338.28 281.659 338.28 281.83C338.28 282 338.218 282.145 338.094 282.264C337.971 282.384 337.822 282.443 337.647 282.443ZM343.898 294.211C343.332 294.211 342.812 294.098 342.339 293.872C341.87 293.646 341.493 293.316 341.207 292.881C340.926 292.447 340.786 291.918 340.786 291.296C340.786 290.887 340.858 290.527 341.003 290.216C341.148 289.905 341.371 289.636 341.674 289.411C341.977 289.185 342.364 288.999 342.837 288.854C343.31 288.705 343.875 288.59 344.531 288.509C345.03 288.45 345.475 288.392 345.867 288.337C346.259 288.277 346.566 288.185 346.788 288.062C347.013 287.938 347.126 287.751 347.126 287.499V287.09C347.126 286.374 346.901 285.805 346.449 285.384C345.997 284.962 345.375 284.751 344.582 284.751C343.879 284.751 343.287 284.906 342.805 285.217C342.328 285.524 341.994 285.92 341.802 286.406L341.067 286.131C341.254 285.663 341.525 285.273 341.879 284.962C342.237 284.651 342.646 284.418 343.106 284.265C343.57 284.112 344.056 284.035 344.563 284.035C345.002 284.035 345.42 284.097 345.816 284.22C346.217 284.344 346.572 284.531 346.884 284.783C347.199 285.034 347.448 285.356 347.631 285.748C347.815 286.136 347.906 286.6 347.906 287.141V294H347.126V292.229H347.069C346.898 292.596 346.664 292.93 346.366 293.233C346.072 293.531 345.716 293.77 345.298 293.949C344.885 294.124 344.418 294.211 343.898 294.211ZM343.975 293.489C344.589 293.489 345.132 293.339 345.605 293.041C346.082 292.739 346.455 292.325 346.724 291.801C346.992 291.277 347.126 290.683 347.126 290.018V288.573C347.028 288.658 346.886 288.735 346.698 288.803C346.515 288.867 346.306 288.925 346.072 288.976C345.842 289.023 345.599 289.065 345.343 289.104C345.092 289.138 344.847 289.17 344.608 289.2C343.892 289.285 343.308 289.417 342.857 289.596C342.409 289.771 342.081 290.001 341.872 290.286C341.668 290.572 341.565 290.917 341.565 291.322C341.565 291.991 341.795 292.519 342.256 292.907C342.716 293.295 343.289 293.489 343.975 293.489ZM301.838 298.69V320.219H301.141V298.69H301.838ZM306.002 316V302.909H313.289V303.651H306.801V309.077H312.899V309.819H306.801V315.259H313.443V316H306.002ZM323.659 306.182C323.591 305.368 323.258 304.71 322.662 304.207C322.069 303.704 321.302 303.452 320.361 303.452C319.726 303.452 319.161 303.57 318.667 303.804C318.172 304.038 317.785 304.358 317.503 304.763C317.222 305.168 317.081 305.632 317.081 306.156C317.081 306.493 317.145 306.798 317.273 307.07C317.405 307.339 317.591 307.58 317.829 307.793C318.068 308.001 318.351 308.185 318.679 308.342C319.008 308.5 319.37 308.638 319.766 308.758L321.198 309.18C321.688 309.329 322.14 309.501 322.553 309.697C322.971 309.893 323.333 310.128 323.64 310.401C323.951 310.669 324.191 310.984 324.362 311.347C324.537 311.709 324.624 312.126 324.624 312.599C324.624 313.29 324.445 313.908 324.087 314.453C323.733 314.999 323.228 315.429 322.572 315.744C321.92 316.055 321.151 316.211 320.265 316.211C319.421 316.211 318.686 316.068 318.059 315.783C317.437 315.497 316.945 315.101 316.583 314.594C316.221 314.082 316.016 313.494 315.969 312.83H316.787C316.83 313.371 317.003 313.839 317.305 314.236C317.612 314.628 318.019 314.93 318.526 315.143C319.033 315.357 319.613 315.463 320.265 315.463C320.968 315.463 321.588 315.344 322.125 315.105C322.662 314.862 323.081 314.526 323.384 314.095C323.687 313.665 323.838 313.164 323.838 312.593C323.838 312.133 323.729 311.739 323.512 311.411C323.294 311.082 322.973 310.799 322.547 310.56C322.125 310.322 321.601 310.109 320.974 309.921L319.446 309.461C318.424 309.15 317.642 308.726 317.101 308.189C316.564 307.652 316.295 306.983 316.295 306.182C316.295 305.509 316.474 304.912 316.832 304.392C317.19 303.868 317.676 303.457 318.29 303.158C318.907 302.86 319.604 302.711 320.38 302.711C321.16 302.711 321.848 302.862 322.444 303.165C323.041 303.463 323.514 303.874 323.863 304.398C324.213 304.918 324.407 305.513 324.445 306.182H323.659ZM328.856 298.69V320.219H328.159V298.69H328.856Z" fill="white"/>
</svg>
